%TF.GenerationSoftware,KiCad,Pcbnew,9.0.7*%
%TF.CreationDate,2026-10-08T00:00:33+11:00*%
%TF.ProjectId,Combined_EQ,436f6d62-696e-4656-945f-45512e6b6963,rev?*%
%TF.SameCoordinates,Original*%
%TF.FileFunction,Paste,Top*%
%TF.FilePolarity,Positive*%
%FSLAX46Y46*%
G04 Gerber Fmt 4.6, Leading zero omitted, Abs format (unit mm)*
G04 Created by KiCad (PCBNEW 9.0.7) date 2026-10-08 00:00:33*
%MOMM*%
%LPD*%
G01*
G04 APERTURE LIST*
%ADD10R,1.525000X0.650000*%
%ADD11R,0.650000X1.525000*%
%ADD12R,1.528000X0.650000*%
G04 APERTURE END LIST*
D10*
%TO.C,IC4*%
X115726000Y-126880000D03*
X115726000Y-128150000D03*
X115726000Y-129420000D03*
X115726000Y-130690000D03*
X115726000Y-131960000D03*
X115726000Y-133230000D03*
X115726000Y-134500000D03*
X121150000Y-134500000D03*
X121150000Y-133230000D03*
X121150000Y-131960000D03*
X121150000Y-130690000D03*
X121150000Y-129420000D03*
X121150000Y-128150000D03*
X121150000Y-126880000D03*
%TD*%
D11*
%TO.C,IC2*%
X91340000Y-144980000D03*
X92610000Y-144980000D03*
X93880000Y-144980000D03*
X95150000Y-144980000D03*
X96420000Y-144980000D03*
X97690000Y-144980000D03*
X98960000Y-144980000D03*
X98960000Y-139556000D03*
X97690000Y-139556000D03*
X96420000Y-139556000D03*
X95150000Y-139556000D03*
X93880000Y-139556000D03*
X92610000Y-139556000D03*
X91340000Y-139556000D03*
%TD*%
D12*
%TO.C,U1*%
X134361000Y-75405000D03*
X134361000Y-74135000D03*
X134361000Y-72865000D03*
X134361000Y-71595000D03*
X128939000Y-71595000D03*
X128939000Y-72865000D03*
X128939000Y-74135000D03*
X128939000Y-75405000D03*
%TD*%
D11*
%TO.C,IC3*%
X106260000Y-73350000D03*
X104990000Y-73350000D03*
X103720000Y-73350000D03*
X102450000Y-73350000D03*
X101180000Y-73350000D03*
X99910000Y-73350000D03*
X98640000Y-73350000D03*
X98640000Y-78774000D03*
X99910000Y-78774000D03*
X101180000Y-78774000D03*
X102450000Y-78774000D03*
X103720000Y-78774000D03*
X104990000Y-78774000D03*
X106260000Y-78774000D03*
%TD*%
%TO.C,IC8*%
X141280000Y-115250000D03*
X142550000Y-115250000D03*
X143820000Y-115250000D03*
X145090000Y-115250000D03*
X146360000Y-115250000D03*
X147630000Y-115250000D03*
X148900000Y-115250000D03*
X148900000Y-109826000D03*
X147630000Y-109826000D03*
X146360000Y-109826000D03*
X145090000Y-109826000D03*
X143820000Y-109826000D03*
X142550000Y-109826000D03*
X141280000Y-109826000D03*
%TD*%
M02*
