%TF.GenerationSoftware,KiCad,Pcbnew,9.0.7*%
%TF.CreationDate,2026-10-08T00:00:33+11:00*%
%TF.ProjectId,Combined_EQ,436f6d62-696e-4656-945f-45512e6b6963,rev?*%
%TF.SameCoordinates,Original*%
%TF.FileFunction,Legend,Bot*%
%TF.FilePolarity,Positive*%
%FSLAX46Y46*%
G04 Gerber Fmt 4.6, Leading zero omitted, Abs format (unit mm)*
G04 Created by KiCad (PCBNEW 9.0.7) date 2026-10-08 00:00:33*
%MOMM*%
%LPD*%
G01*
G04 APERTURE LIST*
G04 Aperture macros list*
%AMRoundRect*
0 Rectangle with rounded corners*
0 $1 Rounding radius*
0 $2 $3 $4 $5 $6 $7 $8 $9 X,Y pos of 4 corners*
0 Add a 4 corners polygon primitive as box body*
4,1,4,$2,$3,$4,$5,$6,$7,$8,$9,$2,$3,0*
0 Add four circle primitives for the rounded corners*
1,1,$1+$1,$2,$3*
1,1,$1+$1,$4,$5*
1,1,$1+$1,$6,$7*
1,1,$1+$1,$8,$9*
0 Add four rect primitives between the rounded corners*
20,1,$1+$1,$2,$3,$4,$5,0*
20,1,$1+$1,$4,$5,$6,$7,0*
20,1,$1+$1,$6,$7,$8,$9,0*
20,1,$1+$1,$8,$9,$2,$3,0*%
G04 Aperture macros list end*
%ADD10C,0.150000*%
%ADD11C,1.600000*%
%ADD12R,1.130000X1.130000*%
%ADD13C,1.130000*%
%ADD14R,1.700000X1.700000*%
%ADD15C,1.700000*%
%ADD16RoundRect,0.248920X3.751080X-1.021080X3.751080X1.021080X-3.751080X1.021080X-3.751080X-1.021080X0*%
%ADD17RoundRect,0.248920X-3.751080X1.021080X-3.751080X-1.021080X3.751080X-1.021080X3.751080X1.021080X0*%
%ADD18RoundRect,0.450000X0.450000X0.450000X-0.450000X0.450000X-0.450000X-0.450000X0.450000X-0.450000X0*%
%ADD19C,1.800000*%
%ADD20RoundRect,0.250000X0.650000X0.650000X-0.650000X0.650000X-0.650000X-0.650000X0.650000X-0.650000X0*%
%ADD21C,2.000000*%
%ADD22C,3.200000*%
%ADD23RoundRect,0.250000X0.450000X-0.450000X0.450000X0.450000X-0.450000X0.450000X-0.450000X-0.450000X0*%
%ADD24C,1.400000*%
G04 APERTURE END LIST*
D10*
X193041142Y-123113819D02*
X193041142Y-122113819D01*
X193041142Y-122113819D02*
X192660190Y-122113819D01*
X192660190Y-122113819D02*
X192564952Y-122161438D01*
X192564952Y-122161438D02*
X192517333Y-122209057D01*
X192517333Y-122209057D02*
X192469714Y-122304295D01*
X192469714Y-122304295D02*
X192469714Y-122447152D01*
X192469714Y-122447152D02*
X192517333Y-122542390D01*
X192517333Y-122542390D02*
X192564952Y-122590009D01*
X192564952Y-122590009D02*
X192660190Y-122637628D01*
X192660190Y-122637628D02*
X193041142Y-122637628D01*
X192136380Y-122113819D02*
X191898285Y-123113819D01*
X191898285Y-123113819D02*
X191707809Y-122399533D01*
X191707809Y-122399533D02*
X191517333Y-123113819D01*
X191517333Y-123113819D02*
X191279238Y-122113819D01*
X190326857Y-123113819D02*
X190660190Y-122637628D01*
X190898285Y-123113819D02*
X190898285Y-122113819D01*
X190898285Y-122113819D02*
X190517333Y-122113819D01*
X190517333Y-122113819D02*
X190422095Y-122161438D01*
X190422095Y-122161438D02*
X190374476Y-122209057D01*
X190374476Y-122209057D02*
X190326857Y-122304295D01*
X190326857Y-122304295D02*
X190326857Y-122447152D01*
X190326857Y-122447152D02*
X190374476Y-122542390D01*
X190374476Y-122542390D02*
X190422095Y-122590009D01*
X190422095Y-122590009D02*
X190517333Y-122637628D01*
X190517333Y-122637628D02*
X190898285Y-122637628D01*
X189374476Y-122161438D02*
X189469714Y-122113819D01*
X189469714Y-122113819D02*
X189612571Y-122113819D01*
X189612571Y-122113819D02*
X189755428Y-122161438D01*
X189755428Y-122161438D02*
X189850666Y-122256676D01*
X189850666Y-122256676D02*
X189898285Y-122351914D01*
X189898285Y-122351914D02*
X189945904Y-122542390D01*
X189945904Y-122542390D02*
X189945904Y-122685247D01*
X189945904Y-122685247D02*
X189898285Y-122875723D01*
X189898285Y-122875723D02*
X189850666Y-122970961D01*
X189850666Y-122970961D02*
X189755428Y-123066200D01*
X189755428Y-123066200D02*
X189612571Y-123113819D01*
X189612571Y-123113819D02*
X189517333Y-123113819D01*
X189517333Y-123113819D02*
X189374476Y-123066200D01*
X189374476Y-123066200D02*
X189326857Y-123018580D01*
X189326857Y-123018580D02*
X189326857Y-122685247D01*
X189326857Y-122685247D02*
X189517333Y-122685247D01*
X188898285Y-123113819D02*
X188898285Y-122113819D01*
X188898285Y-122113819D02*
X188326857Y-123113819D01*
X188326857Y-123113819D02*
X188326857Y-122113819D01*
X187850666Y-123113819D02*
X187850666Y-122113819D01*
X187850666Y-122113819D02*
X187612571Y-122113819D01*
X187612571Y-122113819D02*
X187469714Y-122161438D01*
X187469714Y-122161438D02*
X187374476Y-122256676D01*
X187374476Y-122256676D02*
X187326857Y-122351914D01*
X187326857Y-122351914D02*
X187279238Y-122542390D01*
X187279238Y-122542390D02*
X187279238Y-122685247D01*
X187279238Y-122685247D02*
X187326857Y-122875723D01*
X187326857Y-122875723D02*
X187374476Y-122970961D01*
X187374476Y-122970961D02*
X187469714Y-123066200D01*
X187469714Y-123066200D02*
X187612571Y-123113819D01*
X187612571Y-123113819D02*
X187850666Y-123113819D01*
X193214094Y-102932866D02*
X192452190Y-102932866D01*
X191975999Y-103313819D02*
X191975999Y-102313819D01*
X191499809Y-103313819D02*
X191499809Y-102313819D01*
X191499809Y-102313819D02*
X190928381Y-103313819D01*
X190928381Y-103313819D02*
X190928381Y-102313819D01*
X190452190Y-102932866D02*
X189690286Y-102932866D01*
X190071238Y-103313819D02*
X190071238Y-102551914D01*
X188785524Y-102647152D02*
X188785524Y-103313819D01*
X189023619Y-102266200D02*
X189261714Y-102980485D01*
X189261714Y-102980485D02*
X188642667Y-102980485D01*
X193017332Y-95346200D02*
X192874475Y-95393819D01*
X192874475Y-95393819D02*
X192636380Y-95393819D01*
X192636380Y-95393819D02*
X192541142Y-95346200D01*
X192541142Y-95346200D02*
X192493523Y-95298580D01*
X192493523Y-95298580D02*
X192445904Y-95203342D01*
X192445904Y-95203342D02*
X192445904Y-95108104D01*
X192445904Y-95108104D02*
X192493523Y-95012866D01*
X192493523Y-95012866D02*
X192541142Y-94965247D01*
X192541142Y-94965247D02*
X192636380Y-94917628D01*
X192636380Y-94917628D02*
X192826856Y-94870009D01*
X192826856Y-94870009D02*
X192922094Y-94822390D01*
X192922094Y-94822390D02*
X192969713Y-94774771D01*
X192969713Y-94774771D02*
X193017332Y-94679533D01*
X193017332Y-94679533D02*
X193017332Y-94584295D01*
X193017332Y-94584295D02*
X192969713Y-94489057D01*
X192969713Y-94489057D02*
X192922094Y-94441438D01*
X192922094Y-94441438D02*
X192826856Y-94393819D01*
X192826856Y-94393819D02*
X192588761Y-94393819D01*
X192588761Y-94393819D02*
X192445904Y-94441438D01*
X191445904Y-95298580D02*
X191493523Y-95346200D01*
X191493523Y-95346200D02*
X191636380Y-95393819D01*
X191636380Y-95393819D02*
X191731618Y-95393819D01*
X191731618Y-95393819D02*
X191874475Y-95346200D01*
X191874475Y-95346200D02*
X191969713Y-95250961D01*
X191969713Y-95250961D02*
X192017332Y-95155723D01*
X192017332Y-95155723D02*
X192064951Y-94965247D01*
X192064951Y-94965247D02*
X192064951Y-94822390D01*
X192064951Y-94822390D02*
X192017332Y-94631914D01*
X192017332Y-94631914D02*
X191969713Y-94536676D01*
X191969713Y-94536676D02*
X191874475Y-94441438D01*
X191874475Y-94441438D02*
X191731618Y-94393819D01*
X191731618Y-94393819D02*
X191636380Y-94393819D01*
X191636380Y-94393819D02*
X191493523Y-94441438D01*
X191493523Y-94441438D02*
X191445904Y-94489057D01*
X189779237Y-95393819D02*
X190255427Y-95393819D01*
X190255427Y-95393819D02*
X190255427Y-94393819D01*
X189445903Y-95393819D02*
X189445903Y-94393819D01*
X188969713Y-95393819D02*
X188969713Y-94393819D01*
X188969713Y-94393819D02*
X188398285Y-95393819D01*
X188398285Y-95393819D02*
X188398285Y-94393819D01*
X187922094Y-95393819D02*
X187922094Y-94393819D01*
X187350666Y-95393819D02*
X187779237Y-94822390D01*
X187350666Y-94393819D02*
X187922094Y-94965247D01*
X192493523Y-75498580D02*
X192541142Y-75546200D01*
X192541142Y-75546200D02*
X192683999Y-75593819D01*
X192683999Y-75593819D02*
X192779237Y-75593819D01*
X192779237Y-75593819D02*
X192922094Y-75546200D01*
X192922094Y-75546200D02*
X193017332Y-75450961D01*
X193017332Y-75450961D02*
X193064951Y-75355723D01*
X193064951Y-75355723D02*
X193112570Y-75165247D01*
X193112570Y-75165247D02*
X193112570Y-75022390D01*
X193112570Y-75022390D02*
X193064951Y-74831914D01*
X193064951Y-74831914D02*
X193017332Y-74736676D01*
X193017332Y-74736676D02*
X192922094Y-74641438D01*
X192922094Y-74641438D02*
X192779237Y-74593819D01*
X192779237Y-74593819D02*
X192683999Y-74593819D01*
X192683999Y-74593819D02*
X192541142Y-74641438D01*
X192541142Y-74641438D02*
X192493523Y-74689057D01*
X192064951Y-75593819D02*
X192064951Y-74593819D01*
X192064951Y-75070009D02*
X191493523Y-75070009D01*
X191493523Y-75593819D02*
X191493523Y-74593819D01*
X191064951Y-75308104D02*
X190588761Y-75308104D01*
X191160189Y-75593819D02*
X190826856Y-74593819D01*
X190826856Y-74593819D02*
X190493523Y-75593819D01*
X190207808Y-75546200D02*
X190064951Y-75593819D01*
X190064951Y-75593819D02*
X189826856Y-75593819D01*
X189826856Y-75593819D02*
X189731618Y-75546200D01*
X189731618Y-75546200D02*
X189683999Y-75498580D01*
X189683999Y-75498580D02*
X189636380Y-75403342D01*
X189636380Y-75403342D02*
X189636380Y-75308104D01*
X189636380Y-75308104D02*
X189683999Y-75212866D01*
X189683999Y-75212866D02*
X189731618Y-75165247D01*
X189731618Y-75165247D02*
X189826856Y-75117628D01*
X189826856Y-75117628D02*
X190017332Y-75070009D01*
X190017332Y-75070009D02*
X190112570Y-75022390D01*
X190112570Y-75022390D02*
X190160189Y-74974771D01*
X190160189Y-74974771D02*
X190207808Y-74879533D01*
X190207808Y-74879533D02*
X190207808Y-74784295D01*
X190207808Y-74784295D02*
X190160189Y-74689057D01*
X190160189Y-74689057D02*
X190112570Y-74641438D01*
X190112570Y-74641438D02*
X190017332Y-74593819D01*
X190017332Y-74593819D02*
X189779237Y-74593819D01*
X189779237Y-74593819D02*
X189636380Y-74641438D01*
X189255427Y-75546200D02*
X189112570Y-75593819D01*
X189112570Y-75593819D02*
X188874475Y-75593819D01*
X188874475Y-75593819D02*
X188779237Y-75546200D01*
X188779237Y-75546200D02*
X188731618Y-75498580D01*
X188731618Y-75498580D02*
X188683999Y-75403342D01*
X188683999Y-75403342D02*
X188683999Y-75308104D01*
X188683999Y-75308104D02*
X188731618Y-75212866D01*
X188731618Y-75212866D02*
X188779237Y-75165247D01*
X188779237Y-75165247D02*
X188874475Y-75117628D01*
X188874475Y-75117628D02*
X189064951Y-75070009D01*
X189064951Y-75070009D02*
X189160189Y-75022390D01*
X189160189Y-75022390D02*
X189207808Y-74974771D01*
X189207808Y-74974771D02*
X189255427Y-74879533D01*
X189255427Y-74879533D02*
X189255427Y-74784295D01*
X189255427Y-74784295D02*
X189207808Y-74689057D01*
X189207808Y-74689057D02*
X189160189Y-74641438D01*
X189160189Y-74641438D02*
X189064951Y-74593819D01*
X189064951Y-74593819D02*
X188826856Y-74593819D01*
X188826856Y-74593819D02*
X188683999Y-74641438D01*
X188255427Y-75593819D02*
X188255427Y-74593819D01*
X187826856Y-75546200D02*
X187683999Y-75593819D01*
X187683999Y-75593819D02*
X187445904Y-75593819D01*
X187445904Y-75593819D02*
X187350666Y-75546200D01*
X187350666Y-75546200D02*
X187303047Y-75498580D01*
X187303047Y-75498580D02*
X187255428Y-75403342D01*
X187255428Y-75403342D02*
X187255428Y-75308104D01*
X187255428Y-75308104D02*
X187303047Y-75212866D01*
X187303047Y-75212866D02*
X187350666Y-75165247D01*
X187350666Y-75165247D02*
X187445904Y-75117628D01*
X187445904Y-75117628D02*
X187636380Y-75070009D01*
X187636380Y-75070009D02*
X187731618Y-75022390D01*
X187731618Y-75022390D02*
X187779237Y-74974771D01*
X187779237Y-74974771D02*
X187826856Y-74879533D01*
X187826856Y-74879533D02*
X187826856Y-74784295D01*
X187826856Y-74784295D02*
X187779237Y-74689057D01*
X187779237Y-74689057D02*
X187731618Y-74641438D01*
X187731618Y-74641438D02*
X187636380Y-74593819D01*
X187636380Y-74593819D02*
X187398285Y-74593819D01*
X187398285Y-74593819D02*
X187255428Y-74641438D01*
X193181523Y-87092866D02*
X192419619Y-87092866D01*
X191752952Y-86473819D02*
X191562476Y-86473819D01*
X191562476Y-86473819D02*
X191467238Y-86521438D01*
X191467238Y-86521438D02*
X191372000Y-86616676D01*
X191372000Y-86616676D02*
X191324381Y-86807152D01*
X191324381Y-86807152D02*
X191324381Y-87140485D01*
X191324381Y-87140485D02*
X191372000Y-87330961D01*
X191372000Y-87330961D02*
X191467238Y-87426200D01*
X191467238Y-87426200D02*
X191562476Y-87473819D01*
X191562476Y-87473819D02*
X191752952Y-87473819D01*
X191752952Y-87473819D02*
X191848190Y-87426200D01*
X191848190Y-87426200D02*
X191943428Y-87330961D01*
X191943428Y-87330961D02*
X191991047Y-87140485D01*
X191991047Y-87140485D02*
X191991047Y-86807152D01*
X191991047Y-86807152D02*
X191943428Y-86616676D01*
X191943428Y-86616676D02*
X191848190Y-86521438D01*
X191848190Y-86521438D02*
X191752952Y-86473819D01*
X190895809Y-86473819D02*
X190895809Y-87283342D01*
X190895809Y-87283342D02*
X190848190Y-87378580D01*
X190848190Y-87378580D02*
X190800571Y-87426200D01*
X190800571Y-87426200D02*
X190705333Y-87473819D01*
X190705333Y-87473819D02*
X190514857Y-87473819D01*
X190514857Y-87473819D02*
X190419619Y-87426200D01*
X190419619Y-87426200D02*
X190372000Y-87378580D01*
X190372000Y-87378580D02*
X190324381Y-87283342D01*
X190324381Y-87283342D02*
X190324381Y-86473819D01*
X189991047Y-86473819D02*
X189419619Y-86473819D01*
X189705333Y-87473819D02*
X189705333Y-86473819D01*
X192945904Y-130652866D02*
X192184000Y-130652866D01*
X192564952Y-131033819D02*
X192564952Y-130271914D01*
X191279238Y-130367152D02*
X191279238Y-131033819D01*
X191517333Y-129986200D02*
X191755428Y-130700485D01*
X191755428Y-130700485D02*
X191136381Y-130700485D01*
X190612571Y-130462390D02*
X190707809Y-130414771D01*
X190707809Y-130414771D02*
X190755428Y-130367152D01*
X190755428Y-130367152D02*
X190803047Y-130271914D01*
X190803047Y-130271914D02*
X190803047Y-130224295D01*
X190803047Y-130224295D02*
X190755428Y-130129057D01*
X190755428Y-130129057D02*
X190707809Y-130081438D01*
X190707809Y-130081438D02*
X190612571Y-130033819D01*
X190612571Y-130033819D02*
X190422095Y-130033819D01*
X190422095Y-130033819D02*
X190326857Y-130081438D01*
X190326857Y-130081438D02*
X190279238Y-130129057D01*
X190279238Y-130129057D02*
X190231619Y-130224295D01*
X190231619Y-130224295D02*
X190231619Y-130271914D01*
X190231619Y-130271914D02*
X190279238Y-130367152D01*
X190279238Y-130367152D02*
X190326857Y-130414771D01*
X190326857Y-130414771D02*
X190422095Y-130462390D01*
X190422095Y-130462390D02*
X190612571Y-130462390D01*
X190612571Y-130462390D02*
X190707809Y-130510009D01*
X190707809Y-130510009D02*
X190755428Y-130557628D01*
X190755428Y-130557628D02*
X190803047Y-130652866D01*
X190803047Y-130652866D02*
X190803047Y-130843342D01*
X190803047Y-130843342D02*
X190755428Y-130938580D01*
X190755428Y-130938580D02*
X190707809Y-130986200D01*
X190707809Y-130986200D02*
X190612571Y-131033819D01*
X190612571Y-131033819D02*
X190422095Y-131033819D01*
X190422095Y-131033819D02*
X190326857Y-130986200D01*
X190326857Y-130986200D02*
X190279238Y-130938580D01*
X190279238Y-130938580D02*
X190231619Y-130843342D01*
X190231619Y-130843342D02*
X190231619Y-130652866D01*
X190231619Y-130652866D02*
X190279238Y-130557628D01*
X190279238Y-130557628D02*
X190326857Y-130510009D01*
X190326857Y-130510009D02*
X190422095Y-130462390D01*
X189945904Y-130033819D02*
X189612571Y-131033819D01*
X189612571Y-131033819D02*
X189279238Y-130033819D01*
X188945904Y-131033819D02*
X188945904Y-130033819D01*
X188945904Y-130033819D02*
X188707809Y-130033819D01*
X188707809Y-130033819D02*
X188564952Y-130081438D01*
X188564952Y-130081438D02*
X188469714Y-130176676D01*
X188469714Y-130176676D02*
X188422095Y-130271914D01*
X188422095Y-130271914D02*
X188374476Y-130462390D01*
X188374476Y-130462390D02*
X188374476Y-130605247D01*
X188374476Y-130605247D02*
X188422095Y-130795723D01*
X188422095Y-130795723D02*
X188469714Y-130890961D01*
X188469714Y-130890961D02*
X188564952Y-130986200D01*
X188564952Y-130986200D02*
X188707809Y-131033819D01*
X188707809Y-131033819D02*
X188945904Y-131033819D01*
X187374476Y-130938580D02*
X187422095Y-130986200D01*
X187422095Y-130986200D02*
X187564952Y-131033819D01*
X187564952Y-131033819D02*
X187660190Y-131033819D01*
X187660190Y-131033819D02*
X187803047Y-130986200D01*
X187803047Y-130986200D02*
X187898285Y-130890961D01*
X187898285Y-130890961D02*
X187945904Y-130795723D01*
X187945904Y-130795723D02*
X187993523Y-130605247D01*
X187993523Y-130605247D02*
X187993523Y-130462390D01*
X187993523Y-130462390D02*
X187945904Y-130271914D01*
X187945904Y-130271914D02*
X187898285Y-130176676D01*
X187898285Y-130176676D02*
X187803047Y-130081438D01*
X187803047Y-130081438D02*
X187660190Y-130033819D01*
X187660190Y-130033819D02*
X187564952Y-130033819D01*
X187564952Y-130033819D02*
X187422095Y-130081438D01*
X187422095Y-130081438D02*
X187374476Y-130129057D01*
X193133904Y-91148104D02*
X192657714Y-91148104D01*
X193229142Y-91433819D02*
X192895809Y-90433819D01*
X192895809Y-90433819D02*
X192562476Y-91433819D01*
X191705333Y-90481438D02*
X191800571Y-90433819D01*
X191800571Y-90433819D02*
X191943428Y-90433819D01*
X191943428Y-90433819D02*
X192086285Y-90481438D01*
X192086285Y-90481438D02*
X192181523Y-90576676D01*
X192181523Y-90576676D02*
X192229142Y-90671914D01*
X192229142Y-90671914D02*
X192276761Y-90862390D01*
X192276761Y-90862390D02*
X192276761Y-91005247D01*
X192276761Y-91005247D02*
X192229142Y-91195723D01*
X192229142Y-91195723D02*
X192181523Y-91290961D01*
X192181523Y-91290961D02*
X192086285Y-91386200D01*
X192086285Y-91386200D02*
X191943428Y-91433819D01*
X191943428Y-91433819D02*
X191848190Y-91433819D01*
X191848190Y-91433819D02*
X191705333Y-91386200D01*
X191705333Y-91386200D02*
X191657714Y-91338580D01*
X191657714Y-91338580D02*
X191657714Y-91005247D01*
X191657714Y-91005247D02*
X191848190Y-91005247D01*
X191229142Y-91433819D02*
X191229142Y-90433819D01*
X191229142Y-90433819D02*
X190657714Y-91433819D01*
X190657714Y-91433819D02*
X190657714Y-90433819D01*
X190181523Y-91433819D02*
X190181523Y-90433819D01*
X190181523Y-90433819D02*
X189943428Y-90433819D01*
X189943428Y-90433819D02*
X189800571Y-90481438D01*
X189800571Y-90481438D02*
X189705333Y-90576676D01*
X189705333Y-90576676D02*
X189657714Y-90671914D01*
X189657714Y-90671914D02*
X189610095Y-90862390D01*
X189610095Y-90862390D02*
X189610095Y-91005247D01*
X189610095Y-91005247D02*
X189657714Y-91195723D01*
X189657714Y-91195723D02*
X189705333Y-91290961D01*
X189705333Y-91290961D02*
X189800571Y-91386200D01*
X189800571Y-91386200D02*
X189943428Y-91433819D01*
X189943428Y-91433819D02*
X190181523Y-91433819D01*
X192945904Y-118772866D02*
X192184000Y-118772866D01*
X192564952Y-119153819D02*
X192564952Y-118391914D01*
X191184000Y-119153819D02*
X191755428Y-119153819D01*
X191469714Y-119153819D02*
X191469714Y-118153819D01*
X191469714Y-118153819D02*
X191564952Y-118296676D01*
X191564952Y-118296676D02*
X191660190Y-118391914D01*
X191660190Y-118391914D02*
X191755428Y-118439533D01*
X190326857Y-118153819D02*
X190517333Y-118153819D01*
X190517333Y-118153819D02*
X190612571Y-118201438D01*
X190612571Y-118201438D02*
X190660190Y-118249057D01*
X190660190Y-118249057D02*
X190755428Y-118391914D01*
X190755428Y-118391914D02*
X190803047Y-118582390D01*
X190803047Y-118582390D02*
X190803047Y-118963342D01*
X190803047Y-118963342D02*
X190755428Y-119058580D01*
X190755428Y-119058580D02*
X190707809Y-119106200D01*
X190707809Y-119106200D02*
X190612571Y-119153819D01*
X190612571Y-119153819D02*
X190422095Y-119153819D01*
X190422095Y-119153819D02*
X190326857Y-119106200D01*
X190326857Y-119106200D02*
X190279238Y-119058580D01*
X190279238Y-119058580D02*
X190231619Y-118963342D01*
X190231619Y-118963342D02*
X190231619Y-118725247D01*
X190231619Y-118725247D02*
X190279238Y-118630009D01*
X190279238Y-118630009D02*
X190326857Y-118582390D01*
X190326857Y-118582390D02*
X190422095Y-118534771D01*
X190422095Y-118534771D02*
X190612571Y-118534771D01*
X190612571Y-118534771D02*
X190707809Y-118582390D01*
X190707809Y-118582390D02*
X190755428Y-118630009D01*
X190755428Y-118630009D02*
X190803047Y-118725247D01*
X189945904Y-118153819D02*
X189612571Y-119153819D01*
X189612571Y-119153819D02*
X189279238Y-118153819D01*
X188945904Y-119153819D02*
X188945904Y-118153819D01*
X188945904Y-118153819D02*
X188707809Y-118153819D01*
X188707809Y-118153819D02*
X188564952Y-118201438D01*
X188564952Y-118201438D02*
X188469714Y-118296676D01*
X188469714Y-118296676D02*
X188422095Y-118391914D01*
X188422095Y-118391914D02*
X188374476Y-118582390D01*
X188374476Y-118582390D02*
X188374476Y-118725247D01*
X188374476Y-118725247D02*
X188422095Y-118915723D01*
X188422095Y-118915723D02*
X188469714Y-119010961D01*
X188469714Y-119010961D02*
X188564952Y-119106200D01*
X188564952Y-119106200D02*
X188707809Y-119153819D01*
X188707809Y-119153819D02*
X188945904Y-119153819D01*
X187374476Y-119058580D02*
X187422095Y-119106200D01*
X187422095Y-119106200D02*
X187564952Y-119153819D01*
X187564952Y-119153819D02*
X187660190Y-119153819D01*
X187660190Y-119153819D02*
X187803047Y-119106200D01*
X187803047Y-119106200D02*
X187898285Y-119010961D01*
X187898285Y-119010961D02*
X187945904Y-118915723D01*
X187945904Y-118915723D02*
X187993523Y-118725247D01*
X187993523Y-118725247D02*
X187993523Y-118582390D01*
X187993523Y-118582390D02*
X187945904Y-118391914D01*
X187945904Y-118391914D02*
X187898285Y-118296676D01*
X187898285Y-118296676D02*
X187803047Y-118201438D01*
X187803047Y-118201438D02*
X187660190Y-118153819D01*
X187660190Y-118153819D02*
X187564952Y-118153819D01*
X187564952Y-118153819D02*
X187422095Y-118201438D01*
X187422095Y-118201438D02*
X187374476Y-118249057D01*
X193088761Y-79172866D02*
X192326857Y-79172866D01*
X192707809Y-79553819D02*
X192707809Y-78791914D01*
X191660190Y-78553819D02*
X191469714Y-78553819D01*
X191469714Y-78553819D02*
X191374476Y-78601438D01*
X191374476Y-78601438D02*
X191279238Y-78696676D01*
X191279238Y-78696676D02*
X191231619Y-78887152D01*
X191231619Y-78887152D02*
X191231619Y-79220485D01*
X191231619Y-79220485D02*
X191279238Y-79410961D01*
X191279238Y-79410961D02*
X191374476Y-79506200D01*
X191374476Y-79506200D02*
X191469714Y-79553819D01*
X191469714Y-79553819D02*
X191660190Y-79553819D01*
X191660190Y-79553819D02*
X191755428Y-79506200D01*
X191755428Y-79506200D02*
X191850666Y-79410961D01*
X191850666Y-79410961D02*
X191898285Y-79220485D01*
X191898285Y-79220485D02*
X191898285Y-78887152D01*
X191898285Y-78887152D02*
X191850666Y-78696676D01*
X191850666Y-78696676D02*
X191755428Y-78601438D01*
X191755428Y-78601438D02*
X191660190Y-78553819D01*
X190803047Y-78553819D02*
X190803047Y-79363342D01*
X190803047Y-79363342D02*
X190755428Y-79458580D01*
X190755428Y-79458580D02*
X190707809Y-79506200D01*
X190707809Y-79506200D02*
X190612571Y-79553819D01*
X190612571Y-79553819D02*
X190422095Y-79553819D01*
X190422095Y-79553819D02*
X190326857Y-79506200D01*
X190326857Y-79506200D02*
X190279238Y-79458580D01*
X190279238Y-79458580D02*
X190231619Y-79363342D01*
X190231619Y-79363342D02*
X190231619Y-78553819D01*
X189898285Y-78553819D02*
X189326857Y-78553819D01*
X189612571Y-79553819D02*
X189612571Y-78553819D01*
X188993523Y-79172866D02*
X188231619Y-79172866D01*
X188612571Y-79553819D02*
X188612571Y-78791914D01*
X187326857Y-78887152D02*
X187326857Y-79553819D01*
X187564952Y-78506200D02*
X187803047Y-79220485D01*
X187803047Y-79220485D02*
X187184000Y-79220485D01*
X193214094Y-110852866D02*
X192452190Y-110852866D01*
X192833142Y-111233819D02*
X192833142Y-110471914D01*
X191975999Y-111233819D02*
X191975999Y-110233819D01*
X191499809Y-111233819D02*
X191499809Y-110233819D01*
X191499809Y-110233819D02*
X190928381Y-111233819D01*
X190928381Y-111233819D02*
X190928381Y-110233819D01*
X190452190Y-110852866D02*
X189690286Y-110852866D01*
X190071238Y-111233819D02*
X190071238Y-110471914D01*
X188785524Y-110567152D02*
X188785524Y-111233819D01*
X189023619Y-110186200D02*
X189261714Y-110900485D01*
X189261714Y-110900485D02*
X188642667Y-110900485D01*
X193088761Y-83132866D02*
X192326857Y-83132866D01*
X192707809Y-83513819D02*
X192707809Y-82751914D01*
X191660190Y-82513819D02*
X191469714Y-82513819D01*
X191469714Y-82513819D02*
X191374476Y-82561438D01*
X191374476Y-82561438D02*
X191279238Y-82656676D01*
X191279238Y-82656676D02*
X191231619Y-82847152D01*
X191231619Y-82847152D02*
X191231619Y-83180485D01*
X191231619Y-83180485D02*
X191279238Y-83370961D01*
X191279238Y-83370961D02*
X191374476Y-83466200D01*
X191374476Y-83466200D02*
X191469714Y-83513819D01*
X191469714Y-83513819D02*
X191660190Y-83513819D01*
X191660190Y-83513819D02*
X191755428Y-83466200D01*
X191755428Y-83466200D02*
X191850666Y-83370961D01*
X191850666Y-83370961D02*
X191898285Y-83180485D01*
X191898285Y-83180485D02*
X191898285Y-82847152D01*
X191898285Y-82847152D02*
X191850666Y-82656676D01*
X191850666Y-82656676D02*
X191755428Y-82561438D01*
X191755428Y-82561438D02*
X191660190Y-82513819D01*
X190803047Y-82513819D02*
X190803047Y-83323342D01*
X190803047Y-83323342D02*
X190755428Y-83418580D01*
X190755428Y-83418580D02*
X190707809Y-83466200D01*
X190707809Y-83466200D02*
X190612571Y-83513819D01*
X190612571Y-83513819D02*
X190422095Y-83513819D01*
X190422095Y-83513819D02*
X190326857Y-83466200D01*
X190326857Y-83466200D02*
X190279238Y-83418580D01*
X190279238Y-83418580D02*
X190231619Y-83323342D01*
X190231619Y-83323342D02*
X190231619Y-82513819D01*
X189898285Y-82513819D02*
X189326857Y-82513819D01*
X189612571Y-83513819D02*
X189612571Y-82513819D01*
X188993523Y-83132866D02*
X188231619Y-83132866D01*
X187803047Y-82609057D02*
X187755428Y-82561438D01*
X187755428Y-82561438D02*
X187660190Y-82513819D01*
X187660190Y-82513819D02*
X187422095Y-82513819D01*
X187422095Y-82513819D02*
X187326857Y-82561438D01*
X187326857Y-82561438D02*
X187279238Y-82609057D01*
X187279238Y-82609057D02*
X187231619Y-82704295D01*
X187231619Y-82704295D02*
X187231619Y-82799533D01*
X187231619Y-82799533D02*
X187279238Y-82942390D01*
X187279238Y-82942390D02*
X187850666Y-83513819D01*
X187850666Y-83513819D02*
X187231619Y-83513819D01*
X193214094Y-106892866D02*
X192452190Y-106892866D01*
X192833142Y-107273819D02*
X192833142Y-106511914D01*
X191975999Y-107273819D02*
X191975999Y-106273819D01*
X191499809Y-107273819D02*
X191499809Y-106273819D01*
X191499809Y-106273819D02*
X190928381Y-107273819D01*
X190928381Y-107273819D02*
X190928381Y-106273819D01*
X190452190Y-106892866D02*
X189690286Y-106892866D01*
X189261714Y-106369057D02*
X189214095Y-106321438D01*
X189214095Y-106321438D02*
X189118857Y-106273819D01*
X189118857Y-106273819D02*
X188880762Y-106273819D01*
X188880762Y-106273819D02*
X188785524Y-106321438D01*
X188785524Y-106321438D02*
X188737905Y-106369057D01*
X188737905Y-106369057D02*
X188690286Y-106464295D01*
X188690286Y-106464295D02*
X188690286Y-106559533D01*
X188690286Y-106559533D02*
X188737905Y-106702390D01*
X188737905Y-106702390D02*
X189309333Y-107273819D01*
X189309333Y-107273819D02*
X188690286Y-107273819D01*
X192360571Y-114241438D02*
X192455809Y-114193819D01*
X192455809Y-114193819D02*
X192598666Y-114193819D01*
X192598666Y-114193819D02*
X192741523Y-114241438D01*
X192741523Y-114241438D02*
X192836761Y-114336676D01*
X192836761Y-114336676D02*
X192884380Y-114431914D01*
X192884380Y-114431914D02*
X192931999Y-114622390D01*
X192931999Y-114622390D02*
X192931999Y-114765247D01*
X192931999Y-114765247D02*
X192884380Y-114955723D01*
X192884380Y-114955723D02*
X192836761Y-115050961D01*
X192836761Y-115050961D02*
X192741523Y-115146200D01*
X192741523Y-115146200D02*
X192598666Y-115193819D01*
X192598666Y-115193819D02*
X192503428Y-115193819D01*
X192503428Y-115193819D02*
X192360571Y-115146200D01*
X192360571Y-115146200D02*
X192312952Y-115098580D01*
X192312952Y-115098580D02*
X192312952Y-114765247D01*
X192312952Y-114765247D02*
X192503428Y-114765247D01*
X191931999Y-114908104D02*
X191455809Y-114908104D01*
X192027237Y-115193819D02*
X191693904Y-114193819D01*
X191693904Y-114193819D02*
X191360571Y-115193819D01*
X191027237Y-115193819D02*
X191027237Y-114193819D01*
X190551047Y-115193819D02*
X190551047Y-114193819D01*
X190551047Y-114193819D02*
X189979619Y-115193819D01*
X189979619Y-115193819D02*
X189979619Y-114193819D01*
X188884380Y-114193819D02*
X188312952Y-114193819D01*
X188598666Y-115193819D02*
X188598666Y-114193819D01*
X187408190Y-115193819D02*
X187741523Y-114717628D01*
X187979618Y-115193819D02*
X187979618Y-114193819D01*
X187979618Y-114193819D02*
X187598666Y-114193819D01*
X187598666Y-114193819D02*
X187503428Y-114241438D01*
X187503428Y-114241438D02*
X187455809Y-114289057D01*
X187455809Y-114289057D02*
X187408190Y-114384295D01*
X187408190Y-114384295D02*
X187408190Y-114527152D01*
X187408190Y-114527152D02*
X187455809Y-114622390D01*
X187455809Y-114622390D02*
X187503428Y-114670009D01*
X187503428Y-114670009D02*
X187598666Y-114717628D01*
X187598666Y-114717628D02*
X187979618Y-114717628D01*
X186979618Y-115193819D02*
X186979618Y-114193819D01*
X186503428Y-115193819D02*
X186503428Y-114193819D01*
X186503428Y-114193819D02*
X186170095Y-114908104D01*
X186170095Y-114908104D02*
X185836762Y-114193819D01*
X185836762Y-114193819D02*
X185836762Y-115193819D01*
X184027238Y-115193819D02*
X184360571Y-114717628D01*
X184598666Y-115193819D02*
X184598666Y-114193819D01*
X184598666Y-114193819D02*
X184217714Y-114193819D01*
X184217714Y-114193819D02*
X184122476Y-114241438D01*
X184122476Y-114241438D02*
X184074857Y-114289057D01*
X184074857Y-114289057D02*
X184027238Y-114384295D01*
X184027238Y-114384295D02*
X184027238Y-114527152D01*
X184027238Y-114527152D02*
X184074857Y-114622390D01*
X184074857Y-114622390D02*
X184122476Y-114670009D01*
X184122476Y-114670009D02*
X184217714Y-114717628D01*
X184217714Y-114717628D02*
X184598666Y-114717628D01*
X183598666Y-114670009D02*
X183265333Y-114670009D01*
X183122476Y-115193819D02*
X183598666Y-115193819D01*
X183598666Y-115193819D02*
X183598666Y-114193819D01*
X183598666Y-114193819D02*
X183122476Y-114193819D01*
X182741523Y-115146200D02*
X182598666Y-115193819D01*
X182598666Y-115193819D02*
X182360571Y-115193819D01*
X182360571Y-115193819D02*
X182265333Y-115146200D01*
X182265333Y-115146200D02*
X182217714Y-115098580D01*
X182217714Y-115098580D02*
X182170095Y-115003342D01*
X182170095Y-115003342D02*
X182170095Y-114908104D01*
X182170095Y-114908104D02*
X182217714Y-114812866D01*
X182217714Y-114812866D02*
X182265333Y-114765247D01*
X182265333Y-114765247D02*
X182360571Y-114717628D01*
X182360571Y-114717628D02*
X182551047Y-114670009D01*
X182551047Y-114670009D02*
X182646285Y-114622390D01*
X182646285Y-114622390D02*
X182693904Y-114574771D01*
X182693904Y-114574771D02*
X182741523Y-114479533D01*
X182741523Y-114479533D02*
X182741523Y-114384295D01*
X182741523Y-114384295D02*
X182693904Y-114289057D01*
X182693904Y-114289057D02*
X182646285Y-114241438D01*
X182646285Y-114241438D02*
X182551047Y-114193819D01*
X182551047Y-114193819D02*
X182312952Y-114193819D01*
X182312952Y-114193819D02*
X182170095Y-114241438D01*
X181741523Y-115193819D02*
X181741523Y-114193819D01*
X181312952Y-115146200D02*
X181170095Y-115193819D01*
X181170095Y-115193819D02*
X180932000Y-115193819D01*
X180932000Y-115193819D02*
X180836762Y-115146200D01*
X180836762Y-115146200D02*
X180789143Y-115098580D01*
X180789143Y-115098580D02*
X180741524Y-115003342D01*
X180741524Y-115003342D02*
X180741524Y-114908104D01*
X180741524Y-114908104D02*
X180789143Y-114812866D01*
X180789143Y-114812866D02*
X180836762Y-114765247D01*
X180836762Y-114765247D02*
X180932000Y-114717628D01*
X180932000Y-114717628D02*
X181122476Y-114670009D01*
X181122476Y-114670009D02*
X181217714Y-114622390D01*
X181217714Y-114622390D02*
X181265333Y-114574771D01*
X181265333Y-114574771D02*
X181312952Y-114479533D01*
X181312952Y-114479533D02*
X181312952Y-114384295D01*
X181312952Y-114384295D02*
X181265333Y-114289057D01*
X181265333Y-114289057D02*
X181217714Y-114241438D01*
X181217714Y-114241438D02*
X181122476Y-114193819D01*
X181122476Y-114193819D02*
X180884381Y-114193819D01*
X180884381Y-114193819D02*
X180741524Y-114241438D01*
X180455809Y-114193819D02*
X179884381Y-114193819D01*
X180170095Y-115193819D02*
X180170095Y-114193819D01*
X179360571Y-114193819D02*
X179170095Y-114193819D01*
X179170095Y-114193819D02*
X179074857Y-114241438D01*
X179074857Y-114241438D02*
X178979619Y-114336676D01*
X178979619Y-114336676D02*
X178932000Y-114527152D01*
X178932000Y-114527152D02*
X178932000Y-114860485D01*
X178932000Y-114860485D02*
X178979619Y-115050961D01*
X178979619Y-115050961D02*
X179074857Y-115146200D01*
X179074857Y-115146200D02*
X179170095Y-115193819D01*
X179170095Y-115193819D02*
X179360571Y-115193819D01*
X179360571Y-115193819D02*
X179455809Y-115146200D01*
X179455809Y-115146200D02*
X179551047Y-115050961D01*
X179551047Y-115050961D02*
X179598666Y-114860485D01*
X179598666Y-114860485D02*
X179598666Y-114527152D01*
X179598666Y-114527152D02*
X179551047Y-114336676D01*
X179551047Y-114336676D02*
X179455809Y-114241438D01*
X179455809Y-114241438D02*
X179360571Y-114193819D01*
X177932000Y-115193819D02*
X178265333Y-114717628D01*
X178503428Y-115193819D02*
X178503428Y-114193819D01*
X178503428Y-114193819D02*
X178122476Y-114193819D01*
X178122476Y-114193819D02*
X178027238Y-114241438D01*
X178027238Y-114241438D02*
X177979619Y-114289057D01*
X177979619Y-114289057D02*
X177932000Y-114384295D01*
X177932000Y-114384295D02*
X177932000Y-114527152D01*
X177932000Y-114527152D02*
X177979619Y-114622390D01*
X177979619Y-114622390D02*
X178027238Y-114670009D01*
X178027238Y-114670009D02*
X178122476Y-114717628D01*
X178122476Y-114717628D02*
X178503428Y-114717628D01*
X199437333Y-72821819D02*
X199770666Y-72345628D01*
X200008761Y-72821819D02*
X200008761Y-71821819D01*
X200008761Y-71821819D02*
X199627809Y-71821819D01*
X199627809Y-71821819D02*
X199532571Y-71869438D01*
X199532571Y-71869438D02*
X199484952Y-71917057D01*
X199484952Y-71917057D02*
X199437333Y-72012295D01*
X199437333Y-72012295D02*
X199437333Y-72155152D01*
X199437333Y-72155152D02*
X199484952Y-72250390D01*
X199484952Y-72250390D02*
X199532571Y-72298009D01*
X199532571Y-72298009D02*
X199627809Y-72345628D01*
X199627809Y-72345628D02*
X200008761Y-72345628D01*
X199008761Y-72298009D02*
X198675428Y-72298009D01*
X198532571Y-72821819D02*
X199008761Y-72821819D01*
X199008761Y-72821819D02*
X199008761Y-71821819D01*
X199008761Y-71821819D02*
X198532571Y-71821819D01*
X197770666Y-72298009D02*
X198103999Y-72298009D01*
X198103999Y-72821819D02*
X198103999Y-71821819D01*
X198103999Y-71821819D02*
X197627809Y-71821819D01*
X197103999Y-71821819D02*
X197103999Y-72059914D01*
X197342094Y-71964676D02*
X197103999Y-72059914D01*
X197103999Y-72059914D02*
X196865904Y-71964676D01*
X197246856Y-72250390D02*
X197103999Y-72059914D01*
X197103999Y-72059914D02*
X196961142Y-72250390D01*
X196342094Y-71821819D02*
X196342094Y-72059914D01*
X196580189Y-71964676D02*
X196342094Y-72059914D01*
X196342094Y-72059914D02*
X196103999Y-71964676D01*
X196484951Y-72250390D02*
X196342094Y-72059914D01*
X196342094Y-72059914D02*
X196199237Y-72250390D01*
X192945904Y-126692866D02*
X192184000Y-126692866D01*
X191184000Y-127073819D02*
X191755428Y-127073819D01*
X191469714Y-127073819D02*
X191469714Y-126073819D01*
X191469714Y-126073819D02*
X191564952Y-126216676D01*
X191564952Y-126216676D02*
X191660190Y-126311914D01*
X191660190Y-126311914D02*
X191755428Y-126359533D01*
X190326857Y-126073819D02*
X190517333Y-126073819D01*
X190517333Y-126073819D02*
X190612571Y-126121438D01*
X190612571Y-126121438D02*
X190660190Y-126169057D01*
X190660190Y-126169057D02*
X190755428Y-126311914D01*
X190755428Y-126311914D02*
X190803047Y-126502390D01*
X190803047Y-126502390D02*
X190803047Y-126883342D01*
X190803047Y-126883342D02*
X190755428Y-126978580D01*
X190755428Y-126978580D02*
X190707809Y-127026200D01*
X190707809Y-127026200D02*
X190612571Y-127073819D01*
X190612571Y-127073819D02*
X190422095Y-127073819D01*
X190422095Y-127073819D02*
X190326857Y-127026200D01*
X190326857Y-127026200D02*
X190279238Y-126978580D01*
X190279238Y-126978580D02*
X190231619Y-126883342D01*
X190231619Y-126883342D02*
X190231619Y-126645247D01*
X190231619Y-126645247D02*
X190279238Y-126550009D01*
X190279238Y-126550009D02*
X190326857Y-126502390D01*
X190326857Y-126502390D02*
X190422095Y-126454771D01*
X190422095Y-126454771D02*
X190612571Y-126454771D01*
X190612571Y-126454771D02*
X190707809Y-126502390D01*
X190707809Y-126502390D02*
X190755428Y-126550009D01*
X190755428Y-126550009D02*
X190803047Y-126645247D01*
X189945904Y-126073819D02*
X189612571Y-127073819D01*
X189612571Y-127073819D02*
X189279238Y-126073819D01*
X188945904Y-127073819D02*
X188945904Y-126073819D01*
X188945904Y-126073819D02*
X188707809Y-126073819D01*
X188707809Y-126073819D02*
X188564952Y-126121438D01*
X188564952Y-126121438D02*
X188469714Y-126216676D01*
X188469714Y-126216676D02*
X188422095Y-126311914D01*
X188422095Y-126311914D02*
X188374476Y-126502390D01*
X188374476Y-126502390D02*
X188374476Y-126645247D01*
X188374476Y-126645247D02*
X188422095Y-126835723D01*
X188422095Y-126835723D02*
X188469714Y-126930961D01*
X188469714Y-126930961D02*
X188564952Y-127026200D01*
X188564952Y-127026200D02*
X188707809Y-127073819D01*
X188707809Y-127073819D02*
X188945904Y-127073819D01*
X187374476Y-126978580D02*
X187422095Y-127026200D01*
X187422095Y-127026200D02*
X187564952Y-127073819D01*
X187564952Y-127073819D02*
X187660190Y-127073819D01*
X187660190Y-127073819D02*
X187803047Y-127026200D01*
X187803047Y-127026200D02*
X187898285Y-126930961D01*
X187898285Y-126930961D02*
X187945904Y-126835723D01*
X187945904Y-126835723D02*
X187993523Y-126645247D01*
X187993523Y-126645247D02*
X187993523Y-126502390D01*
X187993523Y-126502390D02*
X187945904Y-126311914D01*
X187945904Y-126311914D02*
X187898285Y-126216676D01*
X187898285Y-126216676D02*
X187803047Y-126121438D01*
X187803047Y-126121438D02*
X187660190Y-126073819D01*
X187660190Y-126073819D02*
X187564952Y-126073819D01*
X187564952Y-126073819D02*
X187422095Y-126121438D01*
X187422095Y-126121438D02*
X187374476Y-126169057D01*
X193214094Y-98972866D02*
X192452190Y-98972866D01*
X191975999Y-99353819D02*
X191975999Y-98353819D01*
X191499809Y-99353819D02*
X191499809Y-98353819D01*
X191499809Y-98353819D02*
X190928381Y-99353819D01*
X190928381Y-99353819D02*
X190928381Y-98353819D01*
X190452190Y-98972866D02*
X189690286Y-98972866D01*
X189261714Y-98449057D02*
X189214095Y-98401438D01*
X189214095Y-98401438D02*
X189118857Y-98353819D01*
X189118857Y-98353819D02*
X188880762Y-98353819D01*
X188880762Y-98353819D02*
X188785524Y-98401438D01*
X188785524Y-98401438D02*
X188737905Y-98449057D01*
X188737905Y-98449057D02*
X188690286Y-98544295D01*
X188690286Y-98544295D02*
X188690286Y-98639533D01*
X188690286Y-98639533D02*
X188737905Y-98782390D01*
X188737905Y-98782390D02*
X189309333Y-99353819D01*
X189309333Y-99353819D02*
X188690286Y-99353819D01*
%LPC*%
D11*
%TO.C,R37*%
X40070000Y-97250000D03*
X50230000Y-97250000D03*
%TD*%
%TO.C,R55*%
X158900000Y-100750000D03*
X148740000Y-100750000D03*
%TD*%
%TO.C,R52*%
X137150000Y-110590000D03*
X137150000Y-120750000D03*
%TD*%
%TO.C,R51*%
X152320000Y-110250000D03*
X162480000Y-110250000D03*
%TD*%
%TO.C,R50*%
X147650000Y-95750000D03*
X137490000Y-95750000D03*
%TD*%
%TO.C,R49*%
X130570000Y-105500000D03*
X140730000Y-105500000D03*
%TD*%
%TO.C,R48*%
X162150000Y-125580000D03*
X162150000Y-115420000D03*
%TD*%
%TO.C,R46*%
X123650000Y-109920000D03*
X123650000Y-120080000D03*
%TD*%
%TO.C,R44*%
X140650000Y-102000000D03*
X130490000Y-102000000D03*
%TD*%
%TO.C,R43*%
X122230000Y-139250000D03*
X112070000Y-139250000D03*
%TD*%
%TO.C,R42*%
X47650000Y-121420000D03*
X47650000Y-131580000D03*
%TD*%
%TO.C,R41*%
X126070000Y-139250000D03*
X136230000Y-139250000D03*
%TD*%
%TO.C,R40*%
X51551180Y-121422265D03*
X51551180Y-131582265D03*
%TD*%
%TO.C,R13*%
X125980000Y-152750000D03*
X115820000Y-152750000D03*
%TD*%
%TO.C,R12*%
X125980000Y-148500000D03*
X115820000Y-148500000D03*
%TD*%
%TO.C,R11*%
X135560000Y-125250000D03*
X125400000Y-125250000D03*
%TD*%
%TO.C,R10*%
X135570000Y-130750000D03*
X145730000Y-130750000D03*
%TD*%
%TO.C,R9*%
X38570000Y-66000000D03*
X48730000Y-66000000D03*
%TD*%
%TO.C,R8*%
X109400000Y-120080000D03*
X109400000Y-109920000D03*
%TD*%
%TO.C,R7*%
X105650000Y-120400000D03*
X105650000Y-130560000D03*
%TD*%
%TO.C,R6*%
X182150000Y-127330000D03*
X182150000Y-117170000D03*
%TD*%
%TO.C,R5*%
X187900000Y-133910000D03*
X187900000Y-123750000D03*
%TD*%
D12*
%TO.C,IC6*%
X162710000Y-96000000D03*
D13*
X162710000Y-98540000D03*
X162710000Y-101080000D03*
X162710000Y-103620000D03*
X170650000Y-103620000D03*
X170650000Y-101080000D03*
X170650000Y-98540000D03*
X170650000Y-96000000D03*
%TD*%
D12*
%TO.C,IC1*%
X150210000Y-67280000D03*
D13*
X147670000Y-67280000D03*
X145130000Y-67280000D03*
X142590000Y-67280000D03*
X142590000Y-75220000D03*
X145130000Y-75220000D03*
X147670000Y-75220000D03*
X150210000Y-75220000D03*
%TD*%
D14*
%TO.C,J3*%
X80790000Y-102750000D03*
D15*
X83330000Y-102750000D03*
X85870000Y-102750000D03*
X88410000Y-102750000D03*
X90950000Y-102750000D03*
X93490000Y-102750000D03*
X96030000Y-102750000D03*
X98570000Y-102750000D03*
X101110000Y-102750000D03*
X103650000Y-102750000D03*
X106190000Y-102750000D03*
X108730000Y-102750000D03*
X111270000Y-102750000D03*
X113810000Y-102750000D03*
X116350000Y-102750000D03*
X118890000Y-102750000D03*
X121430000Y-102750000D03*
%TD*%
D16*
%TO.C,J1*%
X198500000Y-75139000D03*
D17*
X198500000Y-75139000D03*
D16*
X198500000Y-79099000D03*
D17*
X198500000Y-79099000D03*
D16*
X198500000Y-83059000D03*
D17*
X198500000Y-83059000D03*
D16*
X198500000Y-87019000D03*
D17*
X198500000Y-87019000D03*
D16*
X198500000Y-90979000D03*
D17*
X198500000Y-90979000D03*
D16*
X198500000Y-94939000D03*
D17*
X198500000Y-94939000D03*
D16*
X198500000Y-98899000D03*
D17*
X198500000Y-98899000D03*
D16*
X198500000Y-102859000D03*
D17*
X198500000Y-102859000D03*
D16*
X198500000Y-106819000D03*
D17*
X198500000Y-106819000D03*
D16*
X198500000Y-110779000D03*
D17*
X198500000Y-110779000D03*
D16*
X198500000Y-114739000D03*
D17*
X198500000Y-114739000D03*
D16*
X198500000Y-118699000D03*
D17*
X198500000Y-118699000D03*
D16*
X198500000Y-122659000D03*
D17*
X198500000Y-122659000D03*
D16*
X198500000Y-126619000D03*
D17*
X198500000Y-126619000D03*
D16*
X198500000Y-130579000D03*
D17*
X198500000Y-130579000D03*
%TD*%
D11*
%TO.C,R25*%
X40070000Y-106500000D03*
X50230000Y-106500000D03*
%TD*%
%TO.C,R36*%
X102150000Y-69080000D03*
X102150000Y-58920000D03*
%TD*%
%TO.C,R14*%
X68070000Y-111250000D03*
X78230000Y-111250000D03*
%TD*%
%TO.C,C25*%
X121400000Y-143250000D03*
X126400000Y-143250000D03*
%TD*%
%TO.C,C47*%
X52900000Y-74500000D03*
X52900000Y-69500000D03*
%TD*%
%TO.C,R27*%
X70150000Y-81500000D03*
X80310000Y-81500000D03*
%TD*%
%TO.C,R4*%
X157650000Y-58670000D03*
X157650000Y-68830000D03*
%TD*%
%TO.C,C18*%
X180650000Y-133500000D03*
X180650000Y-138500000D03*
%TD*%
D18*
%TO.C,RV1*%
X40650000Y-72000000D03*
D19*
X40650000Y-74500000D03*
X40650000Y-77000000D03*
X43150000Y-72000000D03*
X43150000Y-74500000D03*
X43150000Y-77000000D03*
%TD*%
D11*
%TO.C,C2*%
X103400000Y-139080000D03*
X103400000Y-141580000D03*
%TD*%
%TO.C,C38*%
X147900000Y-84000000D03*
X147900000Y-79000000D03*
%TD*%
%TO.C,C33*%
X152900000Y-115750000D03*
X157900000Y-115750000D03*
%TD*%
D19*
%TO.C,RV6*%
X43304246Y-121488881D03*
X43304246Y-118988881D03*
X43304246Y-116488881D03*
X40804246Y-121488881D03*
X40804246Y-118988881D03*
D18*
X40804246Y-116488881D03*
%TD*%
D20*
%TO.C,RV8*%
X63150000Y-94500000D03*
D19*
X63150000Y-97000000D03*
X63150000Y-99500000D03*
%TD*%
D11*
%TO.C,C12*%
X143150000Y-84000000D03*
X143150000Y-79000000D03*
%TD*%
%TO.C,C13*%
X95900000Y-155580000D03*
X95900000Y-150580000D03*
%TD*%
%TO.C,R38*%
X99150000Y-83420000D03*
X99150000Y-93580000D03*
%TD*%
D14*
%TO.C,J2*%
X56150000Y-128040000D03*
D15*
X56150000Y-125500000D03*
X56150000Y-122960000D03*
X56150000Y-120420000D03*
X56150000Y-117880000D03*
X56150000Y-115340000D03*
X56150000Y-112800000D03*
X56150000Y-110260000D03*
X56150000Y-107720000D03*
X56150000Y-105180000D03*
X56150000Y-102640000D03*
X56150000Y-100100000D03*
X56150000Y-97560000D03*
X56150000Y-95020000D03*
X56150000Y-92480000D03*
X56150000Y-89940000D03*
X56150000Y-87400000D03*
%TD*%
D11*
%TO.C,R54*%
X128400000Y-109920000D03*
X128400000Y-120080000D03*
%TD*%
%TO.C,R29*%
X111700000Y-82402000D03*
X111700000Y-92562000D03*
%TD*%
%TO.C,C34*%
X175650000Y-99500000D03*
X175650000Y-104500000D03*
%TD*%
%TO.C,R24*%
X101070000Y-155080000D03*
X111230000Y-155080000D03*
%TD*%
%TO.C,C20*%
X176900000Y-121000000D03*
X176900000Y-126000000D03*
%TD*%
%TO.C,R16*%
X67990000Y-122250000D03*
X78150000Y-122250000D03*
%TD*%
%TO.C,C43*%
X94900000Y-88250000D03*
X89900000Y-88250000D03*
%TD*%
%TO.C,C11*%
X147900000Y-57500000D03*
X147900000Y-62500000D03*
%TD*%
%TO.C,R17*%
X78150000Y-126500000D03*
X67990000Y-126500000D03*
%TD*%
%TO.C,C15*%
X110900000Y-68250000D03*
X105900000Y-68250000D03*
%TD*%
D21*
%TO.C,FB4*%
X183110000Y-90680000D03*
X188190000Y-90680000D03*
%TD*%
D11*
%TO.C,C26*%
X129900000Y-135000000D03*
X124900000Y-135000000D03*
%TD*%
%TO.C,R1*%
X174900000Y-75080000D03*
X174900000Y-64920000D03*
%TD*%
D20*
%TO.C,RV3*%
X63150000Y-64472119D03*
D19*
X63150000Y-66972119D03*
X63150000Y-69472119D03*
%TD*%
D11*
%TO.C,C39*%
X98150000Y-69000000D03*
X93150000Y-69000000D03*
%TD*%
D18*
%TO.C,RV4*%
X40900000Y-131500000D03*
D19*
X40900000Y-134000000D03*
X40900000Y-136500000D03*
X43400000Y-131500000D03*
X43400000Y-134000000D03*
X43400000Y-136500000D03*
%TD*%
D11*
%TO.C,C48*%
X129150000Y-67750000D03*
X134150000Y-67750000D03*
%TD*%
D21*
%TO.C,FB1*%
X188190000Y-102500000D03*
X183110000Y-102500000D03*
%TD*%
D11*
%TO.C,C40*%
X98150000Y-64000000D03*
X93150000Y-64000000D03*
%TD*%
%TO.C,C8*%
X98150000Y-59000000D03*
X93150000Y-59000000D03*
%TD*%
%TO.C,C19*%
X169650000Y-121000000D03*
X169650000Y-126000000D03*
%TD*%
%TO.C,R33*%
X120200000Y-82420000D03*
X120200000Y-92580000D03*
%TD*%
%TO.C,R3*%
X179900000Y-73330000D03*
X179900000Y-63170000D03*
%TD*%
%TO.C,R26*%
X90150000Y-134910000D03*
X90150000Y-124750000D03*
%TD*%
D22*
%TO.C,H2*%
X73150000Y-60000000D03*
%TD*%
%TO.C,H1*%
X50650000Y-60000000D03*
%TD*%
D11*
%TO.C,R32*%
X119730000Y-72000000D03*
X109570000Y-72000000D03*
%TD*%
%TO.C,C4*%
X169150000Y-71000000D03*
X165650000Y-71000000D03*
%TD*%
%TO.C,C9*%
X94900000Y-93250000D03*
X89900000Y-93250000D03*
%TD*%
%TO.C,C27*%
X52400000Y-79000000D03*
X47400000Y-79000000D03*
%TD*%
%TO.C,C14*%
X95400000Y-128080000D03*
X95400000Y-133080000D03*
%TD*%
%TO.C,C35*%
X176650000Y-88750000D03*
X176650000Y-93750000D03*
%TD*%
D20*
%TO.C,RV5*%
X63151180Y-124002265D03*
D19*
X63151180Y-126502265D03*
X63151180Y-129002265D03*
%TD*%
D11*
%TO.C,C46*%
X48850000Y-74500000D03*
X48850000Y-69500000D03*
%TD*%
%TO.C,R53*%
X151650000Y-119920000D03*
X151650000Y-130080000D03*
%TD*%
%TO.C,R34*%
X40070000Y-102000000D03*
X50230000Y-102000000D03*
%TD*%
%TO.C,R15*%
X78230000Y-115250000D03*
X68070000Y-115250000D03*
%TD*%
%TO.C,C44*%
X85650000Y-135400000D03*
X85650000Y-140400000D03*
%TD*%
%TO.C,C22*%
X129650000Y-130500000D03*
X124650000Y-130500000D03*
%TD*%
%TO.C,C28*%
X150150000Y-104750000D03*
X155150000Y-104750000D03*
%TD*%
%TO.C,C24*%
X52410000Y-83950000D03*
X47410000Y-83950000D03*
%TD*%
D23*
%TO.C,SW1*%
X166350000Y-87500000D03*
D24*
X166350000Y-85000000D03*
X166350000Y-82500000D03*
X169650000Y-82500000D03*
X169650000Y-85000000D03*
X169650000Y-87500000D03*
%TD*%
D11*
%TO.C,C45*%
X131650000Y-83000000D03*
X131650000Y-78000000D03*
%TD*%
%TO.C,C41*%
X108650000Y-150080000D03*
X108650000Y-145080000D03*
%TD*%
D20*
%TO.C,RV7*%
X63150000Y-79500000D03*
D19*
X63150000Y-82000000D03*
X63150000Y-84500000D03*
%TD*%
D11*
%TO.C,R28*%
X80310000Y-85250000D03*
X70150000Y-85250000D03*
%TD*%
D21*
%TO.C,FB3*%
X183110000Y-81750000D03*
X188190000Y-81750000D03*
%TD*%
D20*
%TO.C,RV2*%
X63150000Y-109000000D03*
D19*
X63150000Y-111500000D03*
X63150000Y-114000000D03*
%TD*%
D11*
%TO.C,C21*%
X111650000Y-125250000D03*
X111650000Y-130250000D03*
%TD*%
%TO.C,C16*%
X103150000Y-88000000D03*
X103150000Y-83000000D03*
%TD*%
%TO.C,C36*%
X177900000Y-79000000D03*
X177900000Y-84000000D03*
%TD*%
%TO.C,R19*%
X80410000Y-149500000D03*
X90570000Y-149500000D03*
%TD*%
D21*
%TO.C,FB2*%
X188190000Y-111000000D03*
X183110000Y-111000000D03*
%TD*%
D11*
%TO.C,R31*%
X85990000Y-73750000D03*
X96150000Y-73750000D03*
%TD*%
D20*
%TO.C,RV10*%
X63150000Y-139000000D03*
D19*
X63150000Y-141500000D03*
X63150000Y-144000000D03*
%TD*%
D11*
%TO.C,C1*%
X176150000Y-58000000D03*
X181150000Y-58000000D03*
%TD*%
%TO.C,R22*%
X78150000Y-130750000D03*
X67990000Y-130750000D03*
%TD*%
%TO.C,C23*%
X104650000Y-134500000D03*
X109650000Y-134500000D03*
%TD*%
D22*
%TO.C,H4*%
X50650000Y-155000000D03*
%TD*%
D11*
%TO.C,R35*%
X115950000Y-82420000D03*
X115950000Y-92580000D03*
%TD*%
%TO.C,C10*%
X169650000Y-60500000D03*
X166150000Y-60500000D03*
%TD*%
%TO.C,C17*%
X173150000Y-133500000D03*
X173150000Y-138500000D03*
%TD*%
%TO.C,R47*%
X118900000Y-120080000D03*
X118900000Y-109920000D03*
%TD*%
%TO.C,R30*%
X70150000Y-77750000D03*
X80310000Y-77750000D03*
%TD*%
%TO.C,C32*%
X170650000Y-108250000D03*
X175650000Y-108250000D03*
%TD*%
%TO.C,R20*%
X100150000Y-135160000D03*
X100150000Y-125000000D03*
%TD*%
D22*
%TO.C,H3*%
X73150000Y-155000000D03*
%TD*%
D11*
%TO.C,C5*%
X185900000Y-63500000D03*
X190900000Y-63500000D03*
%TD*%
%TO.C,R23*%
X76070000Y-144330000D03*
X86230000Y-144330000D03*
%TD*%
%TO.C,R21*%
X40070000Y-111000000D03*
X50230000Y-111000000D03*
%TD*%
%TO.C,R18*%
X90650000Y-154250000D03*
X80490000Y-154250000D03*
%TD*%
%TO.C,R39*%
X107450000Y-92562000D03*
X107450000Y-82402000D03*
%TD*%
%TO.C,C6*%
X80900000Y-135330000D03*
X80900000Y-140330000D03*
%TD*%
%TO.C,R45*%
X114150000Y-120080000D03*
X114150000Y-109920000D03*
%TD*%
D18*
%TO.C,RV9*%
X40650000Y-87000000D03*
D19*
X40650000Y-89500000D03*
X40650000Y-92000000D03*
X43150000Y-87000000D03*
X43150000Y-89500000D03*
X43150000Y-92000000D03*
%TD*%
D11*
%TO.C,R2*%
X157650000Y-81660000D03*
X157650000Y-71500000D03*
%TD*%
%TO.C,C29*%
X141150000Y-124500000D03*
X141150000Y-119500000D03*
%TD*%
%TO.C,C3*%
X103650000Y-150080000D03*
X103650000Y-145080000D03*
%TD*%
%TO.C,C30*%
X145900000Y-124500000D03*
X145900000Y-119500000D03*
%TD*%
%TO.C,C37*%
X142650000Y-57500000D03*
X142650000Y-62500000D03*
%TD*%
%TO.C,C31*%
X145150000Y-101500000D03*
X145150000Y-106500000D03*
%TD*%
%TO.C,C7*%
X110400000Y-78000000D03*
X110400000Y-75500000D03*
%TD*%
%TO.C,C42*%
X94900000Y-83500000D03*
X89900000Y-83500000D03*
%TD*%
%LPD*%
M02*
