%TF.GenerationSoftware,KiCad,Pcbnew,9.0.7*%
%TF.CreationDate,2026-10-08T00:00:33+11:00*%
%TF.ProjectId,Combined_EQ,436f6d62-696e-4656-945f-45512e6b6963,rev?*%
%TF.SameCoordinates,Original*%
%TF.FileFunction,Copper,L4,Bot*%
%TF.FilePolarity,Positive*%
%FSLAX46Y46*%
G04 Gerber Fmt 4.6, Leading zero omitted, Abs format (unit mm)*
G04 Created by KiCad (PCBNEW 9.0.7) date 2026-10-08 00:00:33*
%MOMM*%
%LPD*%
G01*
G04 APERTURE LIST*
G04 Aperture macros list*
%AMRoundRect*
0 Rectangle with rounded corners*
0 $1 Rounding radius*
0 $2 $3 $4 $5 $6 $7 $8 $9 X,Y pos of 4 corners*
0 Add a 4 corners polygon primitive as box body*
4,1,4,$2,$3,$4,$5,$6,$7,$8,$9,$2,$3,0*
0 Add four circle primitives for the rounded corners*
1,1,$1+$1,$2,$3*
1,1,$1+$1,$4,$5*
1,1,$1+$1,$6,$7*
1,1,$1+$1,$8,$9*
0 Add four rect primitives between the rounded corners*
20,1,$1+$1,$2,$3,$4,$5,0*
20,1,$1+$1,$4,$5,$6,$7,0*
20,1,$1+$1,$6,$7,$8,$9,0*
20,1,$1+$1,$8,$9,$2,$3,0*%
G04 Aperture macros list end*
%TA.AperFunction,ComponentPad*%
%ADD10C,1.600000*%
%TD*%
%TA.AperFunction,ComponentPad*%
%ADD11R,1.130000X1.130000*%
%TD*%
%TA.AperFunction,ComponentPad*%
%ADD12C,1.130000*%
%TD*%
%TA.AperFunction,ComponentPad*%
%ADD13R,1.700000X1.700000*%
%TD*%
%TA.AperFunction,ComponentPad*%
%ADD14C,1.700000*%
%TD*%
%TA.AperFunction,ConnectorPad*%
%ADD15RoundRect,0.248920X-3.751080X1.021080X-3.751080X-1.021080X3.751080X-1.021080X3.751080X1.021080X0*%
%TD*%
%TA.AperFunction,ComponentPad*%
%ADD16RoundRect,0.450000X0.450000X0.450000X-0.450000X0.450000X-0.450000X-0.450000X0.450000X-0.450000X0*%
%TD*%
%TA.AperFunction,ComponentPad*%
%ADD17C,1.800000*%
%TD*%
%TA.AperFunction,ComponentPad*%
%ADD18RoundRect,0.250000X0.650000X0.650000X-0.650000X0.650000X-0.650000X-0.650000X0.650000X-0.650000X0*%
%TD*%
%TA.AperFunction,ComponentPad*%
%ADD19C,2.000000*%
%TD*%
%TA.AperFunction,ComponentPad*%
%ADD20RoundRect,0.250000X0.450000X-0.450000X0.450000X0.450000X-0.450000X0.450000X-0.450000X-0.450000X0*%
%TD*%
%TA.AperFunction,ComponentPad*%
%ADD21C,1.400000*%
%TD*%
%TA.AperFunction,ViaPad*%
%ADD22C,1.000000*%
%TD*%
%TA.AperFunction,ViaPad*%
%ADD23C,0.800000*%
%TD*%
%TA.AperFunction,ViaPad*%
%ADD24C,2.000000*%
%TD*%
%TA.AperFunction,Conductor*%
%ADD25C,0.350000*%
%TD*%
%TA.AperFunction,Conductor*%
%ADD26C,0.500000*%
%TD*%
G04 APERTURE END LIST*
D10*
%TO.P,R37,1*%
%TO.N,Net-(R37-Pad1)*%
X40070000Y-97250000D03*
%TO.P,R37,2*%
%TO.N,GND*%
X50230000Y-97250000D03*
%TD*%
%TO.P,R55,1*%
%TO.N,Po*%
X158900000Y-100750000D03*
%TO.P,R55,2*%
%TO.N,P-*%
X148740000Y-100750000D03*
%TD*%
%TO.P,R52,1*%
%TO.N,P-*%
X137150000Y-110590000D03*
%TO.P,R52,2*%
%TO.N,Mo*%
X137150000Y-120750000D03*
%TD*%
%TO.P,R51,1*%
%TO.N,P-*%
X152320000Y-110250000D03*
%TO.P,R51,2*%
%TO.N,No*%
X162480000Y-110250000D03*
%TD*%
%TO.P,R50,1*%
%TO.N,P-*%
X147650000Y-95750000D03*
%TO.P,R50,2*%
%TO.N,Oo*%
X137490000Y-95750000D03*
%TD*%
%TO.P,R49,1*%
%TO.N,Oo*%
X130570000Y-105500000D03*
%TO.P,R49,2*%
%TO.N,O-*%
X140730000Y-105500000D03*
%TD*%
%TO.P,R48,1*%
%TO.N,Net-(R48-Pad1)*%
X162150000Y-125580000D03*
%TO.P,R48,2*%
%TO.N,No*%
X162150000Y-115420000D03*
%TD*%
%TO.P,R46,1*%
%TO.N,Net-(R46-Pad1)*%
X123650000Y-109920000D03*
%TO.P,R46,2*%
%TO.N,Mo*%
X123650000Y-120080000D03*
%TD*%
%TO.P,R44,1*%
%TO.N,O-*%
X140650000Y-102000000D03*
%TO.P,R44,2*%
%TO.N,J-*%
X130490000Y-102000000D03*
%TD*%
%TO.P,R43,1*%
%TO.N,L-*%
X122230000Y-139250000D03*
%TO.P,R43,2*%
%TO.N,Lo*%
X112070000Y-139250000D03*
%TD*%
%TO.P,R42,1*%
%TO.N,/T3*%
X47650000Y-121420000D03*
%TO.P,R42,2*%
%TO.N,Net-(R42-Pad2)*%
X47650000Y-131580000D03*
%TD*%
%TO.P,R41,1*%
%TO.N,L-*%
X126070000Y-139250000D03*
%TO.P,R41,2*%
%TO.N,GND*%
X136230000Y-139250000D03*
%TD*%
%TO.P,R40,1*%
%TO.N,/T2*%
X51551180Y-121422265D03*
%TO.P,R40,2*%
%TO.N,Net-(R40-Pad2)*%
X51551180Y-131582265D03*
%TD*%
%TO.P,R13,1*%
%TO.N,Net-(C25-Pad1)*%
X125980000Y-152750000D03*
%TO.P,R13,2*%
%TO.N,GND*%
X115820000Y-152750000D03*
%TD*%
%TO.P,R12,1*%
%TO.N,Net-(C25-Pad1)*%
X125980000Y-148500000D03*
%TO.P,R12,2*%
%TO.N,J-*%
X115820000Y-148500000D03*
%TD*%
%TO.P,R11,1*%
%TO.N,K-*%
X135560000Y-125250000D03*
%TO.P,R11,2*%
%TO.N,Ko*%
X125400000Y-125250000D03*
%TD*%
%TO.P,R10,1*%
%TO.N,K-*%
X135570000Y-130750000D03*
%TO.P,R10,2*%
%TO.N,GND*%
X145730000Y-130750000D03*
%TD*%
%TO.P,R9,1*%
%TO.N,Net-(C24-Pad2)*%
X38570000Y-66000000D03*
%TO.P,R9,2*%
%TO.N,Net-(R9-Pad2)*%
X48730000Y-66000000D03*
%TD*%
%TO.P,R8,1*%
%TO.N,J-*%
X109400000Y-120080000D03*
%TO.P,R8,2*%
%TO.N,/B13*%
X109400000Y-109920000D03*
%TD*%
%TO.P,R7,1*%
%TO.N,GND*%
X105650000Y-120400000D03*
%TO.P,R7,2*%
%TO.N,J+*%
X105650000Y-130560000D03*
%TD*%
%TO.P,R6,1*%
%TO.N,+16V*%
X182150000Y-127330000D03*
%TO.P,R6,2*%
%TO.N,VCC*%
X182150000Y-117170000D03*
%TD*%
%TO.P,R5,1*%
%TO.N,-16V*%
X187900000Y-133910000D03*
%TO.P,R5,2*%
%TO.N,VEE*%
X187900000Y-123750000D03*
%TD*%
D11*
%TO.P,IC6,1,-VO*%
%TO.N,Net-(IC6--SENSE)*%
X162710000Y-96000000D03*
D12*
%TO.P,IC6,2,-SENSE*%
X162710000Y-98540000D03*
%TO.P,IC6,3,GND*%
%TO.N,GND*%
X162710000Y-101080000D03*
%TO.P,IC6,4,V_IN*%
%TO.N,Po*%
X162710000Y-103620000D03*
%TO.P,IC6,5,V-*%
%TO.N,-16V*%
X170650000Y-103620000D03*
%TO.P,IC6,6,V+*%
%TO.N,+16V*%
X170650000Y-101080000D03*
%TO.P,IC6,7,+SENSE*%
%TO.N,Net-(IC6-+SENSE)*%
X170650000Y-98540000D03*
%TO.P,IC6,8,+VO*%
X170650000Y-96000000D03*
%TD*%
D11*
%TO.P,IC1,1,REF*%
%TO.N,GND*%
X150210000Y-67280000D03*
D12*
%TO.P,IC1,2,-IN*%
%TO.N,Net-(IC1--IN)*%
X147670000Y-67280000D03*
%TO.P,IC1,3,+IN*%
%TO.N,Net-(IC1-+IN)*%
X145130000Y-67280000D03*
%TO.P,IC1,4,V-*%
%TO.N,-16V*%
X142590000Y-67280000D03*
%TO.P,IC1,5,SENSE*%
%TO.N,Net-(IC1-OUTPUT)*%
X142590000Y-75220000D03*
%TO.P,IC1,6,OUTPUT*%
X145130000Y-75220000D03*
%TO.P,IC1,7,V+*%
%TO.N,+16V*%
X147670000Y-75220000D03*
%TO.P,IC1,8,NC*%
%TO.N,unconnected-(IC1-NC-Pad8)*%
X150210000Y-75220000D03*
%TD*%
D13*
%TO.P,J3,1,Pin_1*%
%TO.N,Lo*%
X80790000Y-102750000D03*
D14*
%TO.P,J3,2,Pin_2*%
%TO.N,/B2*%
X83330000Y-102750000D03*
%TO.P,J3,3,Pin_3*%
%TO.N,L+*%
X85870000Y-102750000D03*
%TO.P,J3,4,Pin_4*%
%TO.N,/B4*%
X88410000Y-102750000D03*
%TO.P,J3,5,Pin_5*%
%TO.N,Fo*%
X90950000Y-102750000D03*
%TO.P,J3,6,Pin_6*%
%TO.N,Eo*%
X93490000Y-102750000D03*
%TO.P,J3,7,Pin_7*%
%TO.N,/B7*%
X96030000Y-102750000D03*
%TO.P,J3,8,Pin_8*%
%TO.N,/B8*%
X98570000Y-102750000D03*
%TO.P,J3,9,Pin_9*%
%TO.N,Bo*%
X101110000Y-102750000D03*
%TO.P,J3,10,Pin_10*%
%TO.N,/B10*%
X103650000Y-102750000D03*
%TO.P,J3,11,Pin_11*%
%TO.N,Ao*%
X106190000Y-102750000D03*
%TO.P,J3,12,Pin_12*%
%TO.N,K+*%
X108730000Y-102750000D03*
%TO.P,J3,13,Pin_13*%
%TO.N,/B13*%
X111270000Y-102750000D03*
%TO.P,J3,14,Pin_14*%
%TO.N,Ko*%
X113810000Y-102750000D03*
%TO.P,J3,15,Pin_15*%
%TO.N,GND*%
X116350000Y-102750000D03*
%TO.P,J3,16,Pin_16*%
%TO.N,unconnected-(J3-Pin_16-Pad16)*%
X118890000Y-102750000D03*
%TO.P,J3,17,Pin_17*%
%TO.N,unconnected-(J3-Pin_17-Pad17)*%
X121430000Y-102750000D03*
%TD*%
D15*
%TO.P,J1,1,Pin_1*%
%TO.N,/CHASSIS*%
X198500000Y-75139000D03*
%TO.P,J1,2,Pin_2*%
%TO.N,/+OUT+4*%
X198500000Y-79099000D03*
%TO.P,J1,3,Pin_3*%
%TO.N,unconnected-(J1-Pin_3-Pad3)_1*%
X198500000Y-83059000D03*
%TO.P,J1,4,Pin_4*%
%TO.N,/-OUT*%
X198500000Y-87019000D03*
%TO.P,J1,5,Pin_5*%
%TO.N,GND*%
X198500000Y-90979000D03*
%TO.P,J1,6,Pin_6*%
%TO.N,unconnected-(J1-Pin_6-Pad6)*%
X198500000Y-94939000D03*
%TO.P,J1,7,Pin_7*%
%TO.N,unconnected-(J1-Pin_7-Pad7)*%
X198500000Y-98899000D03*
%TO.P,J1,8,Pin_8*%
%TO.N,/-IN+4*%
X198500000Y-102859000D03*
%TO.P,J1,9,Pin_9*%
%TO.N,unconnected-(J1-Pin_9-Pad9)*%
X198500000Y-106819000D03*
%TO.P,J1,10,Pin_10*%
%TO.N,/+IN+4*%
X198500000Y-110779000D03*
%TO.P,J1,11,Pin_11*%
%TO.N,unconnected-(J1-Pin_11-Pad11)*%
X198500000Y-114739000D03*
%TO.P,J1,12,Pin_12*%
%TO.N,VCC*%
X198500000Y-118699000D03*
%TO.P,J1,13,Pin_13*%
%TO.N,GND*%
X198500000Y-122659000D03*
%TO.P,J1,14,Pin_14*%
%TO.N,VEE*%
X198500000Y-126619000D03*
%TO.P,J1,15,Pin_15*%
%TO.N,unconnected-(J1-Pin_15-Pad15)*%
X198500000Y-130579000D03*
%TD*%
D10*
%TO.P,R25,1*%
%TO.N,Net-(R25-Pad1)*%
X40070000Y-106500000D03*
%TO.P,R25,2*%
%TO.N,GND*%
X50230000Y-106500000D03*
%TD*%
%TO.P,R36,1*%
%TO.N,B-*%
X102150000Y-69080000D03*
%TO.P,R36,2*%
%TO.N,/B10*%
X102150000Y-58920000D03*
%TD*%
%TO.P,R14,1*%
%TO.N,Net-(R14-Pad1)*%
X68070000Y-111250000D03*
%TO.P,R14,2*%
%TO.N,GND*%
X78230000Y-111250000D03*
%TD*%
%TO.P,C25,1*%
%TO.N,Net-(C25-Pad1)*%
X121400000Y-143250000D03*
%TO.P,C25,2*%
%TO.N,/B2*%
X126400000Y-143250000D03*
%TD*%
%TO.P,C47,1*%
%TO.N,/T12*%
X52900000Y-74500000D03*
%TO.P,C47,2*%
%TO.N,GND*%
X52900000Y-69500000D03*
%TD*%
%TO.P,R27,1*%
%TO.N,Net-(R27-Pad1)*%
X70150000Y-81500000D03*
%TO.P,R27,2*%
%TO.N,GND*%
X80310000Y-81500000D03*
%TD*%
%TO.P,R4,1*%
%TO.N,GND*%
X157650000Y-58670000D03*
%TO.P,R4,2*%
%TO.N,Net-(IC1-+IN)*%
X157650000Y-68830000D03*
%TD*%
%TO.P,C18,1*%
%TO.N,-16V*%
X180650000Y-133500000D03*
%TO.P,C18,2*%
%TO.N,GND*%
X180650000Y-138500000D03*
%TD*%
D16*
%TO.P,RV1,1,1*%
%TO.N,/T13*%
X40650000Y-72000000D03*
D17*
%TO.P,RV1,2,2*%
X40650000Y-74500000D03*
%TO.P,RV1,3,3*%
%TO.N,Net-(C24-Pad2)*%
X40650000Y-77000000D03*
%TO.P,RV1,4,4*%
%TO.N,Net-(R9-Pad2)*%
X43150000Y-72000000D03*
%TO.P,RV1,5,5*%
X43150000Y-74500000D03*
%TO.P,RV1,6,6*%
%TO.N,/T12*%
X43150000Y-77000000D03*
%TD*%
D10*
%TO.P,C2,1*%
%TO.N,H+*%
X103400000Y-139080000D03*
%TO.P,C2,2*%
%TO.N,Fo*%
X103400000Y-141580000D03*
%TD*%
%TO.P,C38,1*%
%TO.N,GND*%
X147900000Y-84000000D03*
%TO.P,C38,2*%
%TO.N,+16V*%
X147900000Y-79000000D03*
%TD*%
%TO.P,C33,1*%
%TO.N,N-*%
X152900000Y-115750000D03*
%TO.P,C33,2*%
%TO.N,No*%
X157900000Y-115750000D03*
%TD*%
D17*
%TO.P,RV6,6,6*%
%TO.N,Net-(R25-Pad1)*%
X43304246Y-121488881D03*
%TO.P,RV6,5,5*%
%TO.N,/T4*%
X43304246Y-118988881D03*
%TO.P,RV6,4,4*%
%TO.N,/T5*%
X43304246Y-116488881D03*
%TO.P,RV6,3,3*%
%TO.N,Net-(R21-Pad1)*%
X40804246Y-121488881D03*
%TO.P,RV6,2,2*%
%TO.N,/T7*%
X40804246Y-118988881D03*
D16*
%TO.P,RV6,1,1*%
%TO.N,/T6*%
X40804246Y-116488881D03*
%TD*%
D18*
%TO.P,RV8,1,1*%
%TO.N,Net-(U1--)*%
X63150000Y-94500000D03*
D17*
%TO.P,RV8,2,2*%
%TO.N,Net-(R30-Pad2)*%
X63150000Y-97000000D03*
%TO.P,RV8,3,3*%
%TO.N,Do*%
X63150000Y-99500000D03*
%TD*%
D10*
%TO.P,C12,1*%
%TO.N,GND*%
X143150000Y-84000000D03*
%TO.P,C12,2*%
%TO.N,+16V*%
X143150000Y-79000000D03*
%TD*%
%TO.P,C13,1*%
%TO.N,GND*%
X95900000Y-155580000D03*
%TO.P,C13,2*%
%TO.N,+16V*%
X95900000Y-150580000D03*
%TD*%
%TO.P,R38,1*%
%TO.N,C-*%
X99150000Y-83420000D03*
%TO.P,R38,2*%
%TO.N,/B8*%
X99150000Y-93580000D03*
%TD*%
D13*
%TO.P,J2,1,Pin_1*%
%TO.N,/T1*%
X56150000Y-128040000D03*
D14*
%TO.P,J2,2,Pin_2*%
%TO.N,/T2*%
X56150000Y-125500000D03*
%TO.P,J2,3,Pin_3*%
%TO.N,/T3*%
X56150000Y-122960000D03*
%TO.P,J2,4,Pin_4*%
%TO.N,/T4*%
X56150000Y-120420000D03*
%TO.P,J2,5,Pin_5*%
%TO.N,/T5*%
X56150000Y-117880000D03*
%TO.P,J2,6,Pin_6*%
%TO.N,/T6*%
X56150000Y-115340000D03*
%TO.P,J2,7,Pin_7*%
%TO.N,/T7*%
X56150000Y-112800000D03*
%TO.P,J2,8,Pin_8*%
%TO.N,/T8*%
X56150000Y-110260000D03*
%TO.P,J2,9,Pin_9*%
%TO.N,/T9*%
X56150000Y-107720000D03*
%TO.P,J2,10,Pin_10*%
%TO.N,/T10*%
X56150000Y-105180000D03*
%TO.P,J2,11,Pin_11*%
%TO.N,/T11*%
X56150000Y-102640000D03*
%TO.P,J2,12,Pin_12*%
%TO.N,/T12*%
X56150000Y-100100000D03*
%TO.P,J2,13,Pin_13*%
%TO.N,/T13*%
X56150000Y-97560000D03*
%TO.P,J2,14,Pin_14*%
%TO.N,/T14*%
X56150000Y-95020000D03*
%TO.P,J2,15,Pin_15*%
%TO.N,GND*%
X56150000Y-92480000D03*
%TO.P,J2,16,Pin_16*%
%TO.N,unconnected-(J2-Pin_16-Pad16)*%
X56150000Y-89940000D03*
%TO.P,J2,17,Pin_17*%
%TO.N,unconnected-(J2-Pin_17-Pad17)*%
X56150000Y-87400000D03*
%TD*%
D10*
%TO.P,R54,1*%
%TO.N,P-*%
X128400000Y-109920000D03*
%TO.P,R54,2*%
%TO.N,Ko*%
X128400000Y-120080000D03*
%TD*%
%TO.P,R29,1*%
%TO.N,Net-(U1--)*%
X111700000Y-82402000D03*
%TO.P,R29,2*%
%TO.N,D-*%
X111700000Y-92562000D03*
%TD*%
%TO.P,C34,1*%
%TO.N,+16V*%
X175650000Y-99500000D03*
%TO.P,C34,2*%
%TO.N,GND*%
X175650000Y-104500000D03*
%TD*%
%TO.P,R24,1*%
%TO.N,F-*%
X101070000Y-155080000D03*
%TO.P,R24,2*%
%TO.N,/B7*%
X111230000Y-155080000D03*
%TD*%
%TO.P,C20,1*%
%TO.N,GND*%
X176900000Y-121000000D03*
%TO.P,C20,2*%
%TO.N,+16V*%
X176900000Y-126000000D03*
%TD*%
%TO.P,R16,1*%
%TO.N,Do*%
X67990000Y-122250000D03*
%TO.P,R16,2*%
%TO.N,H-*%
X78150000Y-122250000D03*
%TD*%
%TO.P,C43,1*%
%TO.N,C-*%
X94900000Y-88250000D03*
%TO.P,C43,2*%
%TO.N,Co*%
X89900000Y-88250000D03*
%TD*%
%TO.P,C11,1*%
%TO.N,GND*%
X147900000Y-57500000D03*
%TO.P,C11,2*%
%TO.N,-16V*%
X147900000Y-62500000D03*
%TD*%
%TO.P,R17,1*%
%TO.N,E+*%
X78150000Y-126500000D03*
%TO.P,R17,2*%
%TO.N,Net-(R17-Pad2)*%
X67990000Y-126500000D03*
%TD*%
%TO.P,C15,1*%
%TO.N,GND*%
X110900000Y-68250000D03*
%TO.P,C15,2*%
%TO.N,+16V*%
X105900000Y-68250000D03*
%TD*%
D19*
%TO.P,FB4,1*%
%TO.N,Net-(C35-Pad1)*%
X183110000Y-90680000D03*
%TO.P,FB4,2*%
%TO.N,/-OUT*%
X188190000Y-90680000D03*
%TD*%
D10*
%TO.P,C26,1*%
%TO.N,/B2*%
X129900000Y-135000000D03*
%TO.P,C26,2*%
%TO.N,L+*%
X124900000Y-135000000D03*
%TD*%
%TO.P,R1,1*%
%TO.N,/-IN*%
X174900000Y-75080000D03*
%TO.P,R1,2*%
%TO.N,Net-(C1-Pad1)*%
X174900000Y-64920000D03*
%TD*%
D18*
%TO.P,RV3,1,1*%
%TO.N,Net-(R46-Pad1)*%
X63150000Y-64472119D03*
D17*
%TO.P,RV3,2,2*%
%TO.N,M-*%
X63150000Y-66972119D03*
%TO.P,RV3,3,3*%
%TO.N,Net-(R45-Pad2)*%
X63150000Y-69472119D03*
%TD*%
D10*
%TO.P,C39,1*%
%TO.N,B-*%
X98150000Y-69000000D03*
%TO.P,C39,2*%
%TO.N,Bo*%
X93150000Y-69000000D03*
%TD*%
D16*
%TO.P,RV4,1,1*%
%TO.N,Net-(R42-Pad2)*%
X40900000Y-131500000D03*
D17*
%TO.P,RV4,2,2*%
X40900000Y-134000000D03*
%TO.P,RV4,3,3*%
%TO.N,GND*%
X40900000Y-136500000D03*
%TO.P,RV4,4,4*%
%TO.N,Net-(R40-Pad2)*%
X43400000Y-131500000D03*
%TO.P,RV4,5,5*%
X43400000Y-134000000D03*
%TO.P,RV4,6,6*%
%TO.N,/T1*%
X43400000Y-136500000D03*
%TD*%
D10*
%TO.P,C48,1*%
%TO.N,GND*%
X129150000Y-67750000D03*
%TO.P,C48,2*%
%TO.N,-16V*%
X134150000Y-67750000D03*
%TD*%
D19*
%TO.P,FB1,1*%
%TO.N,/-IN+4*%
X188190000Y-102500000D03*
%TO.P,FB1,2*%
%TO.N,/-IN*%
X183110000Y-102500000D03*
%TD*%
D10*
%TO.P,C40,1*%
%TO.N,B-*%
X98150000Y-64000000D03*
%TO.P,C40,2*%
%TO.N,Bo*%
X93150000Y-64000000D03*
%TD*%
%TO.P,C8,1*%
%TO.N,B-*%
X98150000Y-59000000D03*
%TO.P,C8,2*%
%TO.N,Bo*%
X93150000Y-59000000D03*
%TD*%
%TO.P,C19,1*%
%TO.N,GND*%
X169650000Y-121000000D03*
%TO.P,C19,2*%
%TO.N,+16V*%
X169650000Y-126000000D03*
%TD*%
%TO.P,R33,1*%
%TO.N,D+*%
X120200000Y-82420000D03*
%TO.P,R33,2*%
%TO.N,GND*%
X120200000Y-92580000D03*
%TD*%
%TO.P,R3,1*%
%TO.N,/+IN*%
X179900000Y-73330000D03*
%TO.P,R3,2*%
%TO.N,Net-(C10-Pad1)*%
X179900000Y-63170000D03*
%TD*%
%TO.P,R26,1*%
%TO.N,G-*%
X90150000Y-134910000D03*
%TO.P,R26,2*%
%TO.N,/B4*%
X90150000Y-124750000D03*
%TD*%
%TO.P,R32,1*%
%TO.N,Ao*%
X119730000Y-72000000D03*
%TO.P,R32,2*%
%TO.N,A-*%
X109570000Y-72000000D03*
%TD*%
%TO.P,C4,1*%
%TO.N,Net-(C1-Pad1)*%
X169150000Y-71000000D03*
%TO.P,C4,2*%
%TO.N,Net-(IC1--IN)*%
X165650000Y-71000000D03*
%TD*%
%TO.P,C9,1*%
%TO.N,C-*%
X94900000Y-93250000D03*
%TO.P,C9,2*%
%TO.N,Co*%
X89900000Y-93250000D03*
%TD*%
%TO.P,C27,1*%
%TO.N,/T14*%
X52400000Y-79000000D03*
%TO.P,C27,2*%
%TO.N,Net-(C24-Pad2)*%
X47400000Y-79000000D03*
%TD*%
%TO.P,C14,1*%
%TO.N,GND*%
X95400000Y-128080000D03*
%TO.P,C14,2*%
%TO.N,-16V*%
X95400000Y-133080000D03*
%TD*%
%TO.P,C35,1*%
%TO.N,Net-(C35-Pad1)*%
X176650000Y-88750000D03*
%TO.P,C35,2*%
%TO.N,GND*%
X176650000Y-93750000D03*
%TD*%
D18*
%TO.P,RV5,1,1*%
%TO.N,Do*%
X63151180Y-124002265D03*
D17*
%TO.P,RV5,2,2*%
%TO.N,Net-(R17-Pad2)*%
X63151180Y-126502265D03*
%TO.P,RV5,3,3*%
%TO.N,Ho*%
X63151180Y-129002265D03*
%TD*%
D10*
%TO.P,C46,1*%
%TO.N,/T12*%
X48850000Y-74500000D03*
%TO.P,C46,2*%
%TO.N,GND*%
X48850000Y-69500000D03*
%TD*%
%TO.P,R53,1*%
%TO.N,P-*%
X151650000Y-119920000D03*
%TO.P,R53,2*%
%TO.N,Lo*%
X151650000Y-130080000D03*
%TD*%
%TO.P,R34,1*%
%TO.N,Net-(R34-Pad1)*%
X40070000Y-102000000D03*
%TO.P,R34,2*%
%TO.N,GND*%
X50230000Y-102000000D03*
%TD*%
%TO.P,R15,1*%
%TO.N,E-*%
X78230000Y-115250000D03*
%TO.P,R15,2*%
%TO.N,Net-(R15-Pad2)*%
X68070000Y-115250000D03*
%TD*%
%TO.P,C44,1*%
%TO.N,G-*%
X85650000Y-135400000D03*
%TO.P,C44,2*%
%TO.N,Go*%
X85650000Y-140400000D03*
%TD*%
%TO.P,C22,1*%
%TO.N,GND*%
X129650000Y-130500000D03*
%TO.P,C22,2*%
%TO.N,-16V*%
X124650000Y-130500000D03*
%TD*%
%TO.P,C28,1*%
%TO.N,P-*%
X150150000Y-104750000D03*
%TO.P,C28,2*%
%TO.N,Po*%
X155150000Y-104750000D03*
%TD*%
%TO.P,C24,1*%
%TO.N,/T14*%
X52410000Y-83950000D03*
%TO.P,C24,2*%
%TO.N,Net-(C24-Pad2)*%
X47410000Y-83950000D03*
%TD*%
D20*
%TO.P,SW1,1,A*%
%TO.N,Net-(IC6--SENSE)*%
X166350000Y-87500000D03*
D21*
%TO.P,SW1,2,B*%
%TO.N,Net-(C35-Pad1)*%
X166350000Y-85000000D03*
%TO.P,SW1,3,C*%
%TO.N,/-IN*%
X166350000Y-82500000D03*
%TO.P,SW1,4,A*%
%TO.N,/+IN*%
X169650000Y-82500000D03*
%TO.P,SW1,5,B*%
%TO.N,Net-(C36-Pad2)*%
X169650000Y-85000000D03*
%TO.P,SW1,6,C*%
%TO.N,Net-(IC6-+SENSE)*%
X169650000Y-87500000D03*
%TD*%
D10*
%TO.P,C45,1*%
%TO.N,GND*%
X131650000Y-83000000D03*
%TO.P,C45,2*%
%TO.N,+16V*%
X131650000Y-78000000D03*
%TD*%
%TO.P,C41,1*%
%TO.N,F-*%
X108650000Y-150080000D03*
%TO.P,C41,2*%
%TO.N,Fo*%
X108650000Y-145080000D03*
%TD*%
D18*
%TO.P,RV7,1,1*%
%TO.N,A+*%
X63150000Y-79500000D03*
D17*
%TO.P,RV7,2,2*%
%TO.N,Net-(R27-Pad1)*%
X63150000Y-82000000D03*
%TO.P,RV7,3,3*%
%TO.N,Net-(R28-Pad2)*%
X63150000Y-84500000D03*
%TD*%
D10*
%TO.P,R28,1*%
%TO.N,A-*%
X80310000Y-85250000D03*
%TO.P,R28,2*%
%TO.N,Net-(R28-Pad2)*%
X70150000Y-85250000D03*
%TD*%
D19*
%TO.P,FB3,1*%
%TO.N,Net-(C36-Pad2)*%
X183110000Y-81750000D03*
%TO.P,FB3,2*%
%TO.N,/+OUT+4*%
X188190000Y-81750000D03*
%TD*%
D18*
%TO.P,RV2,1,1*%
%TO.N,E+*%
X63150000Y-109000000D03*
D17*
%TO.P,RV2,2,2*%
%TO.N,Net-(R14-Pad1)*%
X63150000Y-111500000D03*
%TO.P,RV2,3,3*%
%TO.N,Net-(R15-Pad2)*%
X63150000Y-114000000D03*
%TD*%
D10*
%TO.P,C21,1*%
%TO.N,GND*%
X111650000Y-125250000D03*
%TO.P,C21,2*%
%TO.N,+16V*%
X111650000Y-130250000D03*
%TD*%
%TO.P,C16,1*%
%TO.N,GND*%
X103150000Y-88000000D03*
%TO.P,C16,2*%
%TO.N,-16V*%
X103150000Y-83000000D03*
%TD*%
%TO.P,C36,1*%
%TO.N,GND*%
X177900000Y-79000000D03*
%TO.P,C36,2*%
%TO.N,Net-(C36-Pad2)*%
X177900000Y-84000000D03*
%TD*%
%TO.P,R19,1*%
%TO.N,Eo*%
X80410000Y-149500000D03*
%TO.P,R19,2*%
%TO.N,E-*%
X90570000Y-149500000D03*
%TD*%
D19*
%TO.P,FB2,1*%
%TO.N,/+IN+4*%
X188190000Y-111000000D03*
%TO.P,FB2,2*%
%TO.N,/+IN*%
X183110000Y-111000000D03*
%TD*%
D10*
%TO.P,R31,1*%
%TO.N,A+*%
X85990000Y-73750000D03*
%TO.P,R31,2*%
%TO.N,Bo*%
X96150000Y-73750000D03*
%TD*%
D18*
%TO.P,RV10,1,1*%
%TO.N,Net-(R48-Pad1)*%
X63150000Y-139000000D03*
D17*
%TO.P,RV10,2,2*%
%TO.N,N-*%
X63150000Y-141500000D03*
%TO.P,RV10,3,3*%
%TO.N,Net-(R47-Pad2)*%
X63150000Y-144000000D03*
%TD*%
D10*
%TO.P,C1,1*%
%TO.N,Net-(C1-Pad1)*%
X176150000Y-58000000D03*
%TO.P,C1,2*%
%TO.N,/CHASSIS*%
X181150000Y-58000000D03*
%TD*%
%TO.P,R22,1*%
%TO.N,H-*%
X78150000Y-130750000D03*
%TO.P,R22,2*%
%TO.N,Ho*%
X67990000Y-130750000D03*
%TD*%
%TO.P,C23,1*%
%TO.N,Ho*%
X104650000Y-134500000D03*
%TO.P,C23,2*%
%TO.N,J+*%
X109650000Y-134500000D03*
%TD*%
%TO.P,R35,1*%
%TO.N,Co*%
X115950000Y-82420000D03*
%TO.P,R35,2*%
%TO.N,A-*%
X115950000Y-92580000D03*
%TD*%
%TO.P,C10,1*%
%TO.N,Net-(C10-Pad1)*%
X169650000Y-60500000D03*
%TO.P,C10,2*%
%TO.N,Net-(IC1-+IN)*%
X166150000Y-60500000D03*
%TD*%
%TO.P,C17,1*%
%TO.N,-16V*%
X173150000Y-133500000D03*
%TO.P,C17,2*%
%TO.N,GND*%
X173150000Y-138500000D03*
%TD*%
%TO.P,R47,1*%
%TO.N,Lo*%
X118900000Y-120080000D03*
%TO.P,R47,2*%
%TO.N,Net-(R47-Pad2)*%
X118900000Y-109920000D03*
%TD*%
%TO.P,R30,1*%
%TO.N,A+*%
X70150000Y-77750000D03*
%TO.P,R30,2*%
%TO.N,Net-(R30-Pad2)*%
X80310000Y-77750000D03*
%TD*%
%TO.P,C32,1*%
%TO.N,-16V*%
X170650000Y-108250000D03*
%TO.P,C32,2*%
%TO.N,GND*%
X175650000Y-108250000D03*
%TD*%
%TO.P,R20,1*%
%TO.N,H+*%
X100150000Y-135160000D03*
%TO.P,R20,2*%
%TO.N,GND*%
X100150000Y-125000000D03*
%TD*%
%TO.P,C5,1*%
%TO.N,Net-(C10-Pad1)*%
X185900000Y-63500000D03*
%TO.P,C5,2*%
%TO.N,/CHASSIS*%
X190900000Y-63500000D03*
%TD*%
%TO.P,R23,1*%
%TO.N,Go*%
X76070000Y-144330000D03*
%TO.P,R23,2*%
%TO.N,E-*%
X86230000Y-144330000D03*
%TD*%
%TO.P,R21,1*%
%TO.N,Net-(R21-Pad1)*%
X40070000Y-111000000D03*
%TO.P,R21,2*%
%TO.N,GND*%
X50230000Y-111000000D03*
%TD*%
%TO.P,R18,1*%
%TO.N,E+*%
X90650000Y-154250000D03*
%TO.P,R18,2*%
%TO.N,Fo*%
X80490000Y-154250000D03*
%TD*%
%TO.P,R39,1*%
%TO.N,D-*%
X107450000Y-92562000D03*
%TO.P,R39,2*%
%TO.N,Do*%
X107450000Y-82402000D03*
%TD*%
%TO.P,C6,1*%
%TO.N,G-*%
X80900000Y-135330000D03*
%TO.P,C6,2*%
%TO.N,Go*%
X80900000Y-140330000D03*
%TD*%
%TO.P,R45,1*%
%TO.N,Ko*%
X114150000Y-120080000D03*
%TO.P,R45,2*%
%TO.N,Net-(R45-Pad2)*%
X114150000Y-109920000D03*
%TD*%
D16*
%TO.P,RV9,1,1*%
%TO.N,/T11*%
X40650000Y-87000000D03*
D17*
%TO.P,RV9,2,2*%
%TO.N,/T10*%
X40650000Y-89500000D03*
%TO.P,RV9,3,3*%
%TO.N,Net-(R34-Pad1)*%
X40650000Y-92000000D03*
%TO.P,RV9,4,4*%
%TO.N,/T9*%
X43150000Y-87000000D03*
%TO.P,RV9,5,5*%
%TO.N,/T8*%
X43150000Y-89500000D03*
%TO.P,RV9,6,6*%
%TO.N,Net-(R37-Pad1)*%
X43150000Y-92000000D03*
%TD*%
D10*
%TO.P,R2,1*%
%TO.N,GND*%
X157650000Y-81660000D03*
%TO.P,R2,2*%
%TO.N,Net-(IC1--IN)*%
X157650000Y-71500000D03*
%TD*%
%TO.P,C29,1*%
%TO.N,M-*%
X141150000Y-124500000D03*
%TO.P,C29,2*%
%TO.N,Mo*%
X141150000Y-119500000D03*
%TD*%
%TO.P,C3,1*%
%TO.N,F-*%
X103650000Y-150080000D03*
%TO.P,C3,2*%
%TO.N,Fo*%
X103650000Y-145080000D03*
%TD*%
%TO.P,C30,1*%
%TO.N,GND*%
X145900000Y-124500000D03*
%TO.P,C30,2*%
%TO.N,+16V*%
X145900000Y-119500000D03*
%TD*%
%TO.P,C37,1*%
%TO.N,GND*%
X142650000Y-57500000D03*
%TO.P,C37,2*%
%TO.N,-16V*%
X142650000Y-62500000D03*
%TD*%
%TO.P,C31,1*%
%TO.N,GND*%
X145150000Y-101500000D03*
%TO.P,C31,2*%
%TO.N,-16V*%
X145150000Y-106500000D03*
%TD*%
%TO.P,C7,1*%
%TO.N,D+*%
X110400000Y-78000000D03*
%TO.P,C7,2*%
%TO.N,Bo*%
X110400000Y-75500000D03*
%TD*%
%TO.P,C42,1*%
%TO.N,C-*%
X94900000Y-83500000D03*
%TO.P,C42,2*%
%TO.N,Co*%
X89900000Y-83500000D03*
%TD*%
D22*
%TO.N,-16V*%
X132275000Y-94125000D03*
X132150000Y-70500000D03*
%TO.N,+16V*%
X126400000Y-74500000D03*
X115788139Y-125354043D03*
%TO.N,-16V*%
X117825000Y-130750000D03*
%TO.N,+16V*%
X95650000Y-143000000D03*
D23*
%TO.N,Net-(R46-Pad1)*%
X123650000Y-100750000D03*
X68900000Y-99250000D03*
D22*
%TO.N,GND*%
X100400000Y-81750000D03*
X101400000Y-71250000D03*
D23*
%TO.N,K+*%
X114650000Y-107250000D03*
X117150000Y-124250000D03*
D22*
%TO.N,GND*%
X145150000Y-111925000D03*
D23*
%TO.N,L+*%
X86784669Y-129562870D03*
%TO.N,Ho*%
X80150000Y-142000000D03*
%TO.N,E+*%
X93880000Y-146750000D03*
D22*
%TO.N,GND*%
X93900000Y-137000000D03*
D23*
%TO.N,N-*%
X148150000Y-135500000D03*
%TO.N,/T14*%
X52549000Y-91500000D03*
%TO.N,Net-(R25-Pad1)*%
X44400000Y-109250000D03*
%TO.N,J-*%
X111070000Y-120080000D03*
%TO.N,M-*%
X63425000Y-120249000D03*
%TO.N,Net-(U1--)*%
X109650000Y-86250000D03*
%TO.N,Do*%
X106900000Y-86250000D03*
%TO.N,Net-(U1--)*%
X85900000Y-85250000D03*
%TO.N,/T12*%
X53400000Y-98750000D03*
%TO.N,/T13*%
X48150000Y-94500000D03*
%TO.N,/T9*%
X51650000Y-87750000D03*
%TO.N,/T11*%
X36650000Y-100000000D03*
%TO.N,/T10*%
X38150000Y-104250000D03*
%TO.N,/T8*%
X45150000Y-108000000D03*
X53400000Y-109750000D03*
%TO.N,J-*%
X114563000Y-135663000D03*
X114400000Y-144500000D03*
%TO.N,Lo*%
X150150000Y-133250000D03*
X119150000Y-133750000D03*
%TO.N,/B7*%
X97150000Y-105250000D03*
%TO.N,Lo*%
X82400000Y-119250000D03*
%TO.N,Net-(R47-Pad2)*%
X61400000Y-120750000D03*
%TO.N,E+*%
X65900000Y-117000000D03*
%TO.N,E-*%
X83400000Y-125750000D03*
%TO.N,Fo*%
X88400000Y-106750000D03*
X89525000Y-142025000D03*
%TO.N,E-*%
X91900000Y-146750000D03*
%TO.N,H-*%
X97900000Y-137500000D03*
X97650000Y-131250000D03*
%TO.N,E+*%
X92675000Y-127500000D03*
%TO.N,Eo*%
X89900000Y-143750000D03*
%TO.N,/B2*%
X84400000Y-121025000D03*
X124650000Y-123250000D03*
X127650000Y-134500000D03*
%TO.N,P-*%
X147650000Y-112000000D03*
%TO.N,Fo*%
X100150000Y-146750000D03*
X88650000Y-152250000D03*
D22*
%TO.N,GND*%
X96650000Y-147250000D03*
D23*
%TO.N,Ho*%
X75150000Y-138500000D03*
X100400000Y-138500000D03*
%TO.N,Net-(R45-Pad2)*%
X67400000Y-108373787D03*
%TO.N,/T13*%
X46150000Y-71250000D03*
X41650000Y-69500000D03*
%TO.N,Do*%
X86900000Y-86250000D03*
%TO.N,Net-(R30-Pad2)*%
X72408650Y-87758650D03*
X77150000Y-77750000D03*
%TO.N,A-*%
X104814195Y-92070531D03*
%TO.N,Ao*%
X106150000Y-76225000D03*
%TO.N,A-*%
X104990000Y-75573078D03*
%TO.N,Bo*%
X99163750Y-74986250D03*
%TO.N,Co*%
X98900000Y-80250000D03*
%TO.N,/-IN*%
X174150000Y-97000000D03*
D24*
%TO.N,GND*%
X192650000Y-122750000D03*
X192650000Y-91000000D03*
%TD*%
D25*
%TO.N,/T8*%
X44900000Y-91250000D02*
X43150000Y-89500000D01*
X44900000Y-93500000D02*
X44900000Y-91250000D01*
X44400000Y-94000000D02*
X44900000Y-93500000D01*
X44400000Y-107250000D02*
X44400000Y-94000000D01*
X45150000Y-108000000D02*
X44400000Y-107250000D01*
%TO.N,/T11*%
X36650000Y-91000000D02*
X40650000Y-87000000D01*
X36650000Y-91250000D02*
X36650000Y-91000000D01*
%TO.N,/T10*%
X38150000Y-104250000D02*
X38150000Y-92000000D01*
X38150000Y-92000000D02*
X40650000Y-89500000D01*
%TO.N,Net-(R25-Pad1)*%
X45150000Y-110000000D02*
X44400000Y-109250000D01*
X43304246Y-121488881D02*
X45150000Y-119643127D01*
X45150000Y-119643127D02*
X45150000Y-110000000D01*
%TO.N,Net-(R21-Pad1)*%
X38150000Y-112920000D02*
X38150000Y-118834635D01*
X38150000Y-118834635D02*
X40804246Y-121488881D01*
X40070000Y-111000000D02*
X38150000Y-112920000D01*
%TO.N,Net-(R48-Pad1)*%
X159320000Y-125580000D02*
X162150000Y-125580000D01*
X150650000Y-134250000D02*
X159320000Y-125580000D01*
X144400000Y-134250000D02*
X150650000Y-134250000D01*
X133650000Y-141500000D02*
X137150000Y-141500000D01*
X128650000Y-152250000D02*
X128650000Y-146500000D01*
X128650000Y-146500000D02*
X133650000Y-141500000D01*
X123400000Y-157500000D02*
X128650000Y-152250000D01*
X137150000Y-141500000D02*
X144400000Y-134250000D01*
X79400000Y-157500000D02*
X123400000Y-157500000D01*
X77900000Y-156000000D02*
X79400000Y-157500000D01*
X77900000Y-153250000D02*
X77900000Y-156000000D01*
X71150000Y-150000000D02*
X74650000Y-150000000D01*
X63150000Y-139250000D02*
X67150000Y-143250000D01*
X67150000Y-143250000D02*
X67150000Y-146000000D01*
X67150000Y-146000000D02*
X71150000Y-150000000D01*
X63150000Y-139000000D02*
X63150000Y-139250000D01*
X74650000Y-150000000D02*
X77900000Y-153250000D01*
%TO.N,N-*%
X63400000Y-141500000D02*
X63150000Y-141500000D01*
X66337500Y-144437500D02*
X63400000Y-141500000D01*
X70900000Y-151000000D02*
X66337500Y-146437500D01*
X74400000Y-151000000D02*
X70900000Y-151000000D01*
X77150000Y-153750000D02*
X74400000Y-151000000D01*
X66337500Y-146437500D02*
X66337500Y-144437500D01*
X77150000Y-156250000D02*
X77150000Y-153750000D01*
X79150000Y-158250000D02*
X77150000Y-156250000D01*
X124060663Y-158250000D02*
X79150000Y-158250000D01*
X129628620Y-152682043D02*
X124060663Y-158250000D01*
X137815986Y-142500000D02*
X134400000Y-142500000D01*
X129628620Y-147271380D02*
X129628620Y-152682043D01*
X148150000Y-135500000D02*
X147400000Y-136250000D01*
X144065986Y-136250000D02*
X137815986Y-142500000D01*
X134400000Y-142500000D02*
X129628620Y-147271380D01*
X147400000Y-136250000D02*
X144065986Y-136250000D01*
D26*
%TO.N,-16V*%
X169900000Y-107500000D02*
X170650000Y-108250000D01*
X146400000Y-107500000D02*
X169900000Y-107500000D01*
X145400000Y-106500000D02*
X146400000Y-107500000D01*
X145150000Y-106500000D02*
X145400000Y-106500000D01*
X125900000Y-100500000D02*
X132275000Y-94125000D01*
X125900000Y-111500000D02*
X125900000Y-100500000D01*
X121150000Y-116250000D02*
X125900000Y-111500000D01*
X121150000Y-127000000D02*
X121150000Y-116250000D01*
X124650000Y-130500000D02*
X121150000Y-127000000D01*
%TO.N,+16V*%
X148570000Y-79000000D02*
X147900000Y-79000000D01*
X170650000Y-101080000D02*
X148570000Y-79000000D01*
%TO.N,-16V*%
X173150000Y-110750000D02*
X170650000Y-108250000D01*
X173150000Y-133500000D02*
X173150000Y-110750000D01*
D25*
%TO.N,K+*%
X116150000Y-108250000D02*
X115150000Y-107250000D01*
X116150000Y-123250000D02*
X116150000Y-108250000D01*
X117150000Y-124250000D02*
X116150000Y-123250000D01*
X115150000Y-107250000D02*
X114650000Y-107250000D01*
%TO.N,Fo*%
X88400000Y-140750000D02*
X88400000Y-106750000D01*
X89525000Y-141875000D02*
X88400000Y-140750000D01*
X89525000Y-142025000D02*
X89525000Y-141875000D01*
%TO.N,Ko*%
X112400000Y-118330000D02*
X114150000Y-120080000D01*
X112400000Y-104160000D02*
X112400000Y-118330000D01*
X113810000Y-102750000D02*
X112400000Y-104160000D01*
%TO.N,Net-(R45-Pad2)*%
X66400000Y-72722119D02*
X63150000Y-69472119D01*
X67400000Y-108373787D02*
X66400000Y-107373787D01*
X66400000Y-107373787D02*
X66400000Y-72722119D01*
%TO.N,/B7*%
X111230000Y-143580000D02*
X111230000Y-155080000D01*
X107650000Y-139750000D02*
X111150000Y-143250000D01*
X107650000Y-111250000D02*
X107650000Y-139750000D01*
X101650000Y-105250000D02*
X107650000Y-111250000D01*
X111150000Y-143250000D02*
X111150000Y-143500000D01*
X97150000Y-105250000D02*
X101650000Y-105250000D01*
X111150000Y-143500000D02*
X111230000Y-143580000D01*
%TO.N,/B4*%
X88410000Y-104760000D02*
X88410000Y-102750000D01*
X90150000Y-106500000D02*
X88410000Y-104760000D01*
X90150000Y-124750000D02*
X90150000Y-106500000D01*
%TO.N,Net-(R46-Pad1)*%
X123650000Y-100750000D02*
X123650000Y-109920000D01*
%TO.N,Bo*%
X101150000Y-102710000D02*
X101110000Y-102750000D01*
X101476000Y-81304306D02*
X101476000Y-97424000D01*
X101476000Y-97424000D02*
X101150000Y-97750000D01*
X101150000Y-79750000D02*
X101150000Y-80978306D01*
X101150000Y-80978306D02*
X101476000Y-81304306D01*
X99163750Y-77763750D02*
X101150000Y-79750000D01*
X99163750Y-74986250D02*
X99163750Y-77763750D01*
X101150000Y-97750000D02*
X101150000Y-102710000D01*
%TO.N,/B8*%
X99150000Y-97000000D02*
X99150000Y-93580000D01*
X98570000Y-97580000D02*
X99150000Y-97000000D01*
X98570000Y-102750000D02*
X98570000Y-97580000D01*
%TO.N,Net-(R46-Pad1)*%
X67650000Y-98000000D02*
X68900000Y-99250000D01*
X67650000Y-74500000D02*
X67650000Y-98000000D01*
%TO.N,Net-(R30-Pad2)*%
X76150000Y-78750000D02*
X77150000Y-77750000D01*
X76150000Y-84017299D02*
X76150000Y-78750000D01*
X72408650Y-87758650D02*
X76150000Y-84017299D01*
%TO.N,Net-(R46-Pad1)*%
X67650000Y-68972119D02*
X67650000Y-74500000D01*
X63150000Y-64472119D02*
X67650000Y-68972119D01*
%TO.N,A-*%
X105270889Y-91613837D02*
X104814195Y-92070531D01*
X105270889Y-76120889D02*
X105270889Y-91613837D01*
X104990000Y-75840000D02*
X105270889Y-76120889D01*
X104990000Y-75573078D02*
X104990000Y-75840000D01*
%TO.N,P-*%
X139560000Y-113000000D02*
X137150000Y-110590000D01*
X146650000Y-113000000D02*
X139560000Y-113000000D01*
X147650000Y-112000000D02*
X146650000Y-113000000D01*
%TO.N,E+*%
X92698517Y-127951483D02*
X92698517Y-145568517D01*
X92675000Y-127500000D02*
X92675000Y-127927966D01*
X92675000Y-127927966D02*
X92698517Y-127951483D01*
X92698517Y-145568517D02*
X93880000Y-146750000D01*
%TO.N,L+*%
X85870000Y-128720000D02*
X86650000Y-129500000D01*
X85870000Y-102750000D02*
X85870000Y-128720000D01*
%TO.N,M-*%
X61650000Y-119000000D02*
X61650000Y-68472119D01*
X62899000Y-120249000D02*
X61650000Y-119000000D01*
X63425000Y-120249000D02*
X62899000Y-120249000D01*
X61650000Y-68472119D02*
X63150000Y-66972119D01*
%TO.N,Net-(R47-Pad2)*%
X61400000Y-120750000D02*
X61400000Y-142250000D01*
X61400000Y-142250000D02*
X63150000Y-144000000D01*
%TO.N,E+*%
X65900000Y-111750000D02*
X63150000Y-109000000D01*
X65900000Y-117000000D02*
X65900000Y-111750000D01*
%TO.N,H-*%
X80650000Y-128250000D02*
X78150000Y-130750000D01*
X78150000Y-122250000D02*
X80650000Y-124750000D01*
X80650000Y-124750000D02*
X80650000Y-128250000D01*
%TO.N,Lo*%
X82150000Y-119250000D02*
X82400000Y-119250000D01*
X80799258Y-117899258D02*
X82150000Y-119250000D01*
X80799258Y-102759258D02*
X80799258Y-117899258D01*
X80790000Y-102750000D02*
X80799258Y-102759258D01*
%TO.N,/B2*%
X83400000Y-102820000D02*
X83330000Y-102750000D01*
X83400000Y-120025000D02*
X83400000Y-102820000D01*
X84400000Y-121025000D02*
X83400000Y-120025000D01*
%TO.N,Ho*%
X78650000Y-142000000D02*
X75150000Y-138500000D01*
X80150000Y-142000000D02*
X78650000Y-142000000D01*
%TO.N,E-*%
X88650000Y-146750000D02*
X86230000Y-144330000D01*
X91900000Y-146750000D02*
X88650000Y-146750000D01*
%TO.N,Eo*%
X91900000Y-141750000D02*
X91900000Y-126750000D01*
X89900000Y-143750000D02*
X91900000Y-141750000D01*
X91900000Y-126750000D02*
X92900000Y-125750000D01*
%TO.N,Fo*%
X100150000Y-150500000D02*
X98400000Y-152250000D01*
X98400000Y-152250000D02*
X88650000Y-152250000D01*
X100150000Y-146750000D02*
X100150000Y-150500000D01*
%TO.N,/T14*%
X52549000Y-84089000D02*
X52410000Y-83950000D01*
X52549000Y-91500000D02*
X52549000Y-84089000D01*
%TO.N,J-*%
X113900000Y-123750000D02*
X111070000Y-120920000D01*
X113900000Y-135000000D02*
X113900000Y-123750000D01*
X114563000Y-135663000D02*
X113900000Y-135000000D01*
X111070000Y-120920000D02*
X111070000Y-120080000D01*
X113900000Y-136326000D02*
X113900000Y-144000000D01*
X114563000Y-135663000D02*
X113900000Y-136326000D01*
X113900000Y-144000000D02*
X114400000Y-144500000D01*
%TO.N,/B2*%
X127650000Y-124250000D02*
X127650000Y-134500000D01*
X126650000Y-123250000D02*
X127650000Y-124250000D01*
X124650000Y-123250000D02*
X126650000Y-123250000D01*
%TO.N,/T12*%
X54150000Y-75750000D02*
X52900000Y-74500000D01*
X53324000Y-98674000D02*
X53324000Y-85576000D01*
X54150000Y-84750000D02*
X54150000Y-75750000D01*
X53400000Y-98750000D02*
X53324000Y-98674000D01*
X53324000Y-85576000D02*
X54150000Y-84750000D01*
%TO.N,/T9*%
X51650000Y-103220000D02*
X56150000Y-107720000D01*
X51650000Y-87750000D02*
X51650000Y-103220000D01*
%TO.N,/T11*%
X36650000Y-100000000D02*
X36650000Y-91250000D01*
%TO.N,Lo*%
X118900000Y-133500000D02*
X118900000Y-120080000D01*
X119150000Y-133750000D02*
X118900000Y-133500000D01*
%TO.N,E-*%
X83400000Y-141500000D02*
X86230000Y-144330000D01*
X83400000Y-125750000D02*
X83400000Y-141500000D01*
%TO.N,H-*%
X97900000Y-131500000D02*
X97650000Y-131250000D01*
X97900000Y-137500000D02*
X97900000Y-131500000D01*
%TO.N,Eo*%
X93490000Y-125160000D02*
X92900000Y-125750000D01*
X93490000Y-102750000D02*
X93490000Y-125160000D01*
%TO.N,P-*%
X148150000Y-112500000D02*
X147650000Y-112000000D01*
X151650000Y-112500000D02*
X148150000Y-112500000D01*
X151650000Y-112500000D02*
X151650000Y-110920000D01*
X151650000Y-119920000D02*
X151650000Y-112500000D01*
X151650000Y-110920000D02*
X152320000Y-110250000D01*
%TO.N,Ho*%
X100650000Y-138500000D02*
X104650000Y-134500000D01*
X100400000Y-138500000D02*
X100650000Y-138500000D01*
%TO.N,/B13*%
X109400000Y-107750000D02*
X111270000Y-105880000D01*
X111270000Y-105880000D02*
X111270000Y-102750000D01*
X109400000Y-109920000D02*
X109400000Y-107750000D01*
%TO.N,/T13*%
X46150000Y-92500000D02*
X48150000Y-94500000D01*
X46150000Y-71250000D02*
X46150000Y-92500000D01*
%TO.N,Ao*%
X105969362Y-76405638D02*
X105969362Y-102529362D01*
X106150000Y-76225000D02*
X105969362Y-76405638D01*
X105969362Y-102529362D02*
X106190000Y-102750000D01*
%TO.N,/B10*%
X104575538Y-90574462D02*
X103650000Y-91500000D01*
X103650000Y-91500000D02*
X103650000Y-102750000D01*
X104575538Y-80925538D02*
X104575538Y-90574462D01*
X104150000Y-60920000D02*
X104150000Y-80500000D01*
X104150000Y-80500000D02*
X104575538Y-80925538D01*
X102150000Y-58920000D02*
X104150000Y-60920000D01*
%TO.N,/-IN*%
X168019944Y-84169944D02*
X166350000Y-82500000D01*
X168019944Y-90869944D02*
X168019944Y-84169944D01*
X174150000Y-97000000D02*
X168019944Y-90869944D01*
%TO.N,/+IN*%
X179150000Y-107000000D02*
X183110000Y-110960000D01*
X173400000Y-94250000D02*
X179150000Y-100000000D01*
X183110000Y-110960000D02*
X183110000Y-111000000D01*
X173400000Y-86250000D02*
X173400000Y-94250000D01*
X169650000Y-82500000D02*
X173400000Y-86250000D01*
X179150000Y-100000000D02*
X179150000Y-107000000D01*
%TO.N,Net-(C1-Pad1)*%
X176150000Y-58250000D02*
X174900000Y-59500000D01*
X174900000Y-59500000D02*
X174900000Y-64920000D01*
X176150000Y-58000000D02*
X176150000Y-58250000D01*
%TO.N,GND*%
X198500000Y-90979000D02*
X195171000Y-90979000D01*
%TD*%
M02*
