%TF.GenerationSoftware,KiCad,Pcbnew,9.0.7*%
%TF.CreationDate,2026-10-08T00:00:33+11:00*%
%TF.ProjectId,Combined_EQ,436f6d62-696e-4656-945f-45512e6b6963,rev?*%
%TF.SameCoordinates,Original*%
%TF.FileFunction,Soldermask,Top*%
%TF.FilePolarity,Negative*%
%FSLAX46Y46*%
G04 Gerber Fmt 4.6, Leading zero omitted, Abs format (unit mm)*
G04 Created by KiCad (PCBNEW 9.0.7) date 2026-10-08 00:00:33*
%MOMM*%
%LPD*%
G01*
G04 APERTURE LIST*
G04 Aperture macros list*
%AMRoundRect*
0 Rectangle with rounded corners*
0 $1 Rounding radius*
0 $2 $3 $4 $5 $6 $7 $8 $9 X,Y pos of 4 corners*
0 Add a 4 corners polygon primitive as box body*
4,1,4,$2,$3,$4,$5,$6,$7,$8,$9,$2,$3,0*
0 Add four circle primitives for the rounded corners*
1,1,$1+$1,$2,$3*
1,1,$1+$1,$4,$5*
1,1,$1+$1,$6,$7*
1,1,$1+$1,$8,$9*
0 Add four rect primitives between the rounded corners*
20,1,$1+$1,$2,$3,$4,$5,0*
20,1,$1+$1,$4,$5,$6,$7,0*
20,1,$1+$1,$6,$7,$8,$9,0*
20,1,$1+$1,$8,$9,$2,$3,0*%
G04 Aperture macros list end*
%ADD10C,1.600000*%
%ADD11R,1.130000X1.130000*%
%ADD12C,1.130000*%
%ADD13R,1.700000X1.700000*%
%ADD14C,1.700000*%
%ADD15RoundRect,0.248920X3.751080X-1.021080X3.751080X1.021080X-3.751080X1.021080X-3.751080X-1.021080X0*%
%ADD16RoundRect,0.248920X-3.751080X1.021080X-3.751080X-1.021080X3.751080X-1.021080X3.751080X1.021080X0*%
%ADD17R,1.525000X0.650000*%
%ADD18RoundRect,0.450000X0.450000X0.450000X-0.450000X0.450000X-0.450000X-0.450000X0.450000X-0.450000X0*%
%ADD19C,1.800000*%
%ADD20RoundRect,0.250000X0.650000X0.650000X-0.650000X0.650000X-0.650000X-0.650000X0.650000X-0.650000X0*%
%ADD21R,0.650000X1.525000*%
%ADD22R,1.528000X0.650000*%
%ADD23C,2.000000*%
%ADD24C,3.200000*%
%ADD25RoundRect,0.250000X0.450000X-0.450000X0.450000X0.450000X-0.450000X0.450000X-0.450000X-0.450000X0*%
%ADD26C,1.400000*%
G04 APERTURE END LIST*
D10*
%TO.C,R37*%
X40070000Y-97250000D03*
X50230000Y-97250000D03*
%TD*%
%TO.C,R55*%
X158900000Y-100750000D03*
X148740000Y-100750000D03*
%TD*%
%TO.C,R52*%
X137150000Y-110590000D03*
X137150000Y-120750000D03*
%TD*%
%TO.C,R51*%
X152320000Y-110250000D03*
X162480000Y-110250000D03*
%TD*%
%TO.C,R50*%
X147650000Y-95750000D03*
X137490000Y-95750000D03*
%TD*%
%TO.C,R49*%
X130570000Y-105500000D03*
X140730000Y-105500000D03*
%TD*%
%TO.C,R48*%
X162150000Y-125580000D03*
X162150000Y-115420000D03*
%TD*%
%TO.C,R46*%
X123650000Y-109920000D03*
X123650000Y-120080000D03*
%TD*%
%TO.C,R44*%
X140650000Y-102000000D03*
X130490000Y-102000000D03*
%TD*%
%TO.C,R43*%
X122230000Y-139250000D03*
X112070000Y-139250000D03*
%TD*%
%TO.C,R42*%
X47650000Y-121420000D03*
X47650000Y-131580000D03*
%TD*%
%TO.C,R41*%
X126070000Y-139250000D03*
X136230000Y-139250000D03*
%TD*%
%TO.C,R40*%
X51551180Y-121422265D03*
X51551180Y-131582265D03*
%TD*%
%TO.C,R13*%
X125980000Y-152750000D03*
X115820000Y-152750000D03*
%TD*%
%TO.C,R12*%
X125980000Y-148500000D03*
X115820000Y-148500000D03*
%TD*%
%TO.C,R11*%
X135560000Y-125250000D03*
X125400000Y-125250000D03*
%TD*%
%TO.C,R10*%
X135570000Y-130750000D03*
X145730000Y-130750000D03*
%TD*%
%TO.C,R9*%
X38570000Y-66000000D03*
X48730000Y-66000000D03*
%TD*%
%TO.C,R8*%
X109400000Y-120080000D03*
X109400000Y-109920000D03*
%TD*%
%TO.C,R7*%
X105650000Y-120400000D03*
X105650000Y-130560000D03*
%TD*%
%TO.C,R6*%
X182150000Y-127330000D03*
X182150000Y-117170000D03*
%TD*%
%TO.C,R5*%
X187900000Y-133910000D03*
X187900000Y-123750000D03*
%TD*%
D11*
%TO.C,IC6*%
X162710000Y-96000000D03*
D12*
X162710000Y-98540000D03*
X162710000Y-101080000D03*
X162710000Y-103620000D03*
X170650000Y-103620000D03*
X170650000Y-101080000D03*
X170650000Y-98540000D03*
X170650000Y-96000000D03*
%TD*%
D11*
%TO.C,IC1*%
X150210000Y-67280000D03*
D12*
X147670000Y-67280000D03*
X145130000Y-67280000D03*
X142590000Y-67280000D03*
X142590000Y-75220000D03*
X145130000Y-75220000D03*
X147670000Y-75220000D03*
X150210000Y-75220000D03*
%TD*%
D13*
%TO.C,J3*%
X80790000Y-102750000D03*
D14*
X83330000Y-102750000D03*
X85870000Y-102750000D03*
X88410000Y-102750000D03*
X90950000Y-102750000D03*
X93490000Y-102750000D03*
X96030000Y-102750000D03*
X98570000Y-102750000D03*
X101110000Y-102750000D03*
X103650000Y-102750000D03*
X106190000Y-102750000D03*
X108730000Y-102750000D03*
X111270000Y-102750000D03*
X113810000Y-102750000D03*
X116350000Y-102750000D03*
X118890000Y-102750000D03*
X121430000Y-102750000D03*
%TD*%
D15*
%TO.C,J1*%
X198500000Y-75139000D03*
D16*
X198500000Y-75139000D03*
D15*
X198500000Y-79099000D03*
D16*
X198500000Y-79099000D03*
D15*
X198500000Y-83059000D03*
D16*
X198500000Y-83059000D03*
D15*
X198500000Y-87019000D03*
D16*
X198500000Y-87019000D03*
D15*
X198500000Y-90979000D03*
D16*
X198500000Y-90979000D03*
D15*
X198500000Y-94939000D03*
D16*
X198500000Y-94939000D03*
D15*
X198500000Y-98899000D03*
D16*
X198500000Y-98899000D03*
D15*
X198500000Y-102859000D03*
D16*
X198500000Y-102859000D03*
D15*
X198500000Y-106819000D03*
D16*
X198500000Y-106819000D03*
D15*
X198500000Y-110779000D03*
D16*
X198500000Y-110779000D03*
D15*
X198500000Y-114739000D03*
D16*
X198500000Y-114739000D03*
D15*
X198500000Y-118699000D03*
D16*
X198500000Y-118699000D03*
D15*
X198500000Y-122659000D03*
D16*
X198500000Y-122659000D03*
D15*
X198500000Y-126619000D03*
D16*
X198500000Y-126619000D03*
D15*
X198500000Y-130579000D03*
D16*
X198500000Y-130579000D03*
%TD*%
D10*
%TO.C,R25*%
X40070000Y-106500000D03*
X50230000Y-106500000D03*
%TD*%
%TO.C,R36*%
X102150000Y-69080000D03*
X102150000Y-58920000D03*
%TD*%
D17*
%TO.C,IC4*%
X115726000Y-126880000D03*
X115726000Y-128150000D03*
X115726000Y-129420000D03*
X115726000Y-130690000D03*
X115726000Y-131960000D03*
X115726000Y-133230000D03*
X115726000Y-134500000D03*
X121150000Y-134500000D03*
X121150000Y-133230000D03*
X121150000Y-131960000D03*
X121150000Y-130690000D03*
X121150000Y-129420000D03*
X121150000Y-128150000D03*
X121150000Y-126880000D03*
%TD*%
D10*
%TO.C,R14*%
X68070000Y-111250000D03*
X78230000Y-111250000D03*
%TD*%
%TO.C,C25*%
X121400000Y-143250000D03*
X126400000Y-143250000D03*
%TD*%
%TO.C,C47*%
X52900000Y-74500000D03*
X52900000Y-69500000D03*
%TD*%
%TO.C,R27*%
X70150000Y-81500000D03*
X80310000Y-81500000D03*
%TD*%
%TO.C,R4*%
X157650000Y-58670000D03*
X157650000Y-68830000D03*
%TD*%
%TO.C,C18*%
X180650000Y-133500000D03*
X180650000Y-138500000D03*
%TD*%
D18*
%TO.C,RV1*%
X40650000Y-72000000D03*
D19*
X40650000Y-74500000D03*
X40650000Y-77000000D03*
X43150000Y-72000000D03*
X43150000Y-74500000D03*
X43150000Y-77000000D03*
%TD*%
D10*
%TO.C,C2*%
X103400000Y-139080000D03*
X103400000Y-141580000D03*
%TD*%
%TO.C,C38*%
X147900000Y-84000000D03*
X147900000Y-79000000D03*
%TD*%
%TO.C,C33*%
X152900000Y-115750000D03*
X157900000Y-115750000D03*
%TD*%
D19*
%TO.C,RV6*%
X43304246Y-121488881D03*
X43304246Y-118988881D03*
X43304246Y-116488881D03*
X40804246Y-121488881D03*
X40804246Y-118988881D03*
D18*
X40804246Y-116488881D03*
%TD*%
D20*
%TO.C,RV8*%
X63150000Y-94500000D03*
D19*
X63150000Y-97000000D03*
X63150000Y-99500000D03*
%TD*%
D10*
%TO.C,C12*%
X143150000Y-84000000D03*
X143150000Y-79000000D03*
%TD*%
%TO.C,C13*%
X95900000Y-155580000D03*
X95900000Y-150580000D03*
%TD*%
%TO.C,R38*%
X99150000Y-83420000D03*
X99150000Y-93580000D03*
%TD*%
D13*
%TO.C,J2*%
X56150000Y-128040000D03*
D14*
X56150000Y-125500000D03*
X56150000Y-122960000D03*
X56150000Y-120420000D03*
X56150000Y-117880000D03*
X56150000Y-115340000D03*
X56150000Y-112800000D03*
X56150000Y-110260000D03*
X56150000Y-107720000D03*
X56150000Y-105180000D03*
X56150000Y-102640000D03*
X56150000Y-100100000D03*
X56150000Y-97560000D03*
X56150000Y-95020000D03*
X56150000Y-92480000D03*
X56150000Y-89940000D03*
X56150000Y-87400000D03*
%TD*%
D10*
%TO.C,R54*%
X128400000Y-109920000D03*
X128400000Y-120080000D03*
%TD*%
%TO.C,R29*%
X111700000Y-82402000D03*
X111700000Y-92562000D03*
%TD*%
%TO.C,C34*%
X175650000Y-99500000D03*
X175650000Y-104500000D03*
%TD*%
%TO.C,R24*%
X101070000Y-155080000D03*
X111230000Y-155080000D03*
%TD*%
%TO.C,C20*%
X176900000Y-121000000D03*
X176900000Y-126000000D03*
%TD*%
%TO.C,R16*%
X67990000Y-122250000D03*
X78150000Y-122250000D03*
%TD*%
D21*
%TO.C,IC2*%
X91340000Y-144980000D03*
X92610000Y-144980000D03*
X93880000Y-144980000D03*
X95150000Y-144980000D03*
X96420000Y-144980000D03*
X97690000Y-144980000D03*
X98960000Y-144980000D03*
X98960000Y-139556000D03*
X97690000Y-139556000D03*
X96420000Y-139556000D03*
X95150000Y-139556000D03*
X93880000Y-139556000D03*
X92610000Y-139556000D03*
X91340000Y-139556000D03*
%TD*%
D10*
%TO.C,C43*%
X94900000Y-88250000D03*
X89900000Y-88250000D03*
%TD*%
D22*
%TO.C,U1*%
X134361000Y-75405000D03*
X134361000Y-74135000D03*
X134361000Y-72865000D03*
X134361000Y-71595000D03*
X128939000Y-71595000D03*
X128939000Y-72865000D03*
X128939000Y-74135000D03*
X128939000Y-75405000D03*
%TD*%
D10*
%TO.C,C11*%
X147900000Y-57500000D03*
X147900000Y-62500000D03*
%TD*%
%TO.C,R17*%
X78150000Y-126500000D03*
X67990000Y-126500000D03*
%TD*%
%TO.C,C15*%
X110900000Y-68250000D03*
X105900000Y-68250000D03*
%TD*%
D23*
%TO.C,FB4*%
X183110000Y-90680000D03*
X188190000Y-90680000D03*
%TD*%
D10*
%TO.C,C26*%
X129900000Y-135000000D03*
X124900000Y-135000000D03*
%TD*%
%TO.C,R1*%
X174900000Y-75080000D03*
X174900000Y-64920000D03*
%TD*%
D20*
%TO.C,RV3*%
X63150000Y-64472119D03*
D19*
X63150000Y-66972119D03*
X63150000Y-69472119D03*
%TD*%
D10*
%TO.C,C39*%
X98150000Y-69000000D03*
X93150000Y-69000000D03*
%TD*%
D18*
%TO.C,RV4*%
X40900000Y-131500000D03*
D19*
X40900000Y-134000000D03*
X40900000Y-136500000D03*
X43400000Y-131500000D03*
X43400000Y-134000000D03*
X43400000Y-136500000D03*
%TD*%
D10*
%TO.C,C48*%
X129150000Y-67750000D03*
X134150000Y-67750000D03*
%TD*%
D23*
%TO.C,FB1*%
X188190000Y-102500000D03*
X183110000Y-102500000D03*
%TD*%
D10*
%TO.C,C40*%
X98150000Y-64000000D03*
X93150000Y-64000000D03*
%TD*%
%TO.C,C8*%
X98150000Y-59000000D03*
X93150000Y-59000000D03*
%TD*%
%TO.C,C19*%
X169650000Y-121000000D03*
X169650000Y-126000000D03*
%TD*%
%TO.C,R33*%
X120200000Y-82420000D03*
X120200000Y-92580000D03*
%TD*%
%TO.C,R3*%
X179900000Y-73330000D03*
X179900000Y-63170000D03*
%TD*%
%TO.C,R26*%
X90150000Y-134910000D03*
X90150000Y-124750000D03*
%TD*%
D24*
%TO.C,H2*%
X73150000Y-60000000D03*
%TD*%
%TO.C,H1*%
X50650000Y-60000000D03*
%TD*%
D10*
%TO.C,R32*%
X119730000Y-72000000D03*
X109570000Y-72000000D03*
%TD*%
%TO.C,C4*%
X169150000Y-71000000D03*
X165650000Y-71000000D03*
%TD*%
%TO.C,C9*%
X94900000Y-93250000D03*
X89900000Y-93250000D03*
%TD*%
%TO.C,C27*%
X52400000Y-79000000D03*
X47400000Y-79000000D03*
%TD*%
%TO.C,C14*%
X95400000Y-128080000D03*
X95400000Y-133080000D03*
%TD*%
%TO.C,C35*%
X176650000Y-88750000D03*
X176650000Y-93750000D03*
%TD*%
D20*
%TO.C,RV5*%
X63151180Y-124002265D03*
D19*
X63151180Y-126502265D03*
X63151180Y-129002265D03*
%TD*%
D10*
%TO.C,C46*%
X48850000Y-74500000D03*
X48850000Y-69500000D03*
%TD*%
%TO.C,R53*%
X151650000Y-119920000D03*
X151650000Y-130080000D03*
%TD*%
%TO.C,R34*%
X40070000Y-102000000D03*
X50230000Y-102000000D03*
%TD*%
%TO.C,R15*%
X78230000Y-115250000D03*
X68070000Y-115250000D03*
%TD*%
%TO.C,C44*%
X85650000Y-135400000D03*
X85650000Y-140400000D03*
%TD*%
%TO.C,C22*%
X129650000Y-130500000D03*
X124650000Y-130500000D03*
%TD*%
%TO.C,C28*%
X150150000Y-104750000D03*
X155150000Y-104750000D03*
%TD*%
%TO.C,C24*%
X52410000Y-83950000D03*
X47410000Y-83950000D03*
%TD*%
D25*
%TO.C,SW1*%
X166350000Y-87500000D03*
D26*
X166350000Y-85000000D03*
X166350000Y-82500000D03*
X169650000Y-82500000D03*
X169650000Y-85000000D03*
X169650000Y-87500000D03*
%TD*%
D10*
%TO.C,C45*%
X131650000Y-83000000D03*
X131650000Y-78000000D03*
%TD*%
%TO.C,C41*%
X108650000Y-150080000D03*
X108650000Y-145080000D03*
%TD*%
D20*
%TO.C,RV7*%
X63150000Y-79500000D03*
D19*
X63150000Y-82000000D03*
X63150000Y-84500000D03*
%TD*%
D10*
%TO.C,R28*%
X80310000Y-85250000D03*
X70150000Y-85250000D03*
%TD*%
D23*
%TO.C,FB3*%
X183110000Y-81750000D03*
X188190000Y-81750000D03*
%TD*%
D20*
%TO.C,RV2*%
X63150000Y-109000000D03*
D19*
X63150000Y-111500000D03*
X63150000Y-114000000D03*
%TD*%
D10*
%TO.C,C21*%
X111650000Y-125250000D03*
X111650000Y-130250000D03*
%TD*%
%TO.C,C16*%
X103150000Y-88000000D03*
X103150000Y-83000000D03*
%TD*%
%TO.C,C36*%
X177900000Y-79000000D03*
X177900000Y-84000000D03*
%TD*%
%TO.C,R19*%
X80410000Y-149500000D03*
X90570000Y-149500000D03*
%TD*%
D23*
%TO.C,FB2*%
X188190000Y-111000000D03*
X183110000Y-111000000D03*
%TD*%
D10*
%TO.C,R31*%
X85990000Y-73750000D03*
X96150000Y-73750000D03*
%TD*%
D20*
%TO.C,RV10*%
X63150000Y-139000000D03*
D19*
X63150000Y-141500000D03*
X63150000Y-144000000D03*
%TD*%
D10*
%TO.C,C1*%
X176150000Y-58000000D03*
X181150000Y-58000000D03*
%TD*%
%TO.C,R22*%
X78150000Y-130750000D03*
X67990000Y-130750000D03*
%TD*%
%TO.C,C23*%
X104650000Y-134500000D03*
X109650000Y-134500000D03*
%TD*%
D24*
%TO.C,H4*%
X50650000Y-155000000D03*
%TD*%
D10*
%TO.C,R35*%
X115950000Y-82420000D03*
X115950000Y-92580000D03*
%TD*%
%TO.C,C10*%
X169650000Y-60500000D03*
X166150000Y-60500000D03*
%TD*%
%TO.C,C17*%
X173150000Y-133500000D03*
X173150000Y-138500000D03*
%TD*%
%TO.C,R47*%
X118900000Y-120080000D03*
X118900000Y-109920000D03*
%TD*%
%TO.C,R30*%
X70150000Y-77750000D03*
X80310000Y-77750000D03*
%TD*%
%TO.C,C32*%
X170650000Y-108250000D03*
X175650000Y-108250000D03*
%TD*%
%TO.C,R20*%
X100150000Y-135160000D03*
X100150000Y-125000000D03*
%TD*%
D24*
%TO.C,H3*%
X73150000Y-155000000D03*
%TD*%
D10*
%TO.C,C5*%
X185900000Y-63500000D03*
X190900000Y-63500000D03*
%TD*%
%TO.C,R23*%
X76070000Y-144330000D03*
X86230000Y-144330000D03*
%TD*%
%TO.C,R21*%
X40070000Y-111000000D03*
X50230000Y-111000000D03*
%TD*%
D21*
%TO.C,IC3*%
X106260000Y-73350000D03*
X104990000Y-73350000D03*
X103720000Y-73350000D03*
X102450000Y-73350000D03*
X101180000Y-73350000D03*
X99910000Y-73350000D03*
X98640000Y-73350000D03*
X98640000Y-78774000D03*
X99910000Y-78774000D03*
X101180000Y-78774000D03*
X102450000Y-78774000D03*
X103720000Y-78774000D03*
X104990000Y-78774000D03*
X106260000Y-78774000D03*
%TD*%
%TO.C,IC8*%
X141280000Y-115250000D03*
X142550000Y-115250000D03*
X143820000Y-115250000D03*
X145090000Y-115250000D03*
X146360000Y-115250000D03*
X147630000Y-115250000D03*
X148900000Y-115250000D03*
X148900000Y-109826000D03*
X147630000Y-109826000D03*
X146360000Y-109826000D03*
X145090000Y-109826000D03*
X143820000Y-109826000D03*
X142550000Y-109826000D03*
X141280000Y-109826000D03*
%TD*%
D10*
%TO.C,R18*%
X90650000Y-154250000D03*
X80490000Y-154250000D03*
%TD*%
%TO.C,R39*%
X107450000Y-92562000D03*
X107450000Y-82402000D03*
%TD*%
%TO.C,C6*%
X80900000Y-135330000D03*
X80900000Y-140330000D03*
%TD*%
%TO.C,R45*%
X114150000Y-120080000D03*
X114150000Y-109920000D03*
%TD*%
D18*
%TO.C,RV9*%
X40650000Y-87000000D03*
D19*
X40650000Y-89500000D03*
X40650000Y-92000000D03*
X43150000Y-87000000D03*
X43150000Y-89500000D03*
X43150000Y-92000000D03*
%TD*%
D10*
%TO.C,R2*%
X157650000Y-81660000D03*
X157650000Y-71500000D03*
%TD*%
%TO.C,C29*%
X141150000Y-124500000D03*
X141150000Y-119500000D03*
%TD*%
%TO.C,C3*%
X103650000Y-150080000D03*
X103650000Y-145080000D03*
%TD*%
%TO.C,C30*%
X145900000Y-124500000D03*
X145900000Y-119500000D03*
%TD*%
%TO.C,C37*%
X142650000Y-57500000D03*
X142650000Y-62500000D03*
%TD*%
%TO.C,C31*%
X145150000Y-101500000D03*
X145150000Y-106500000D03*
%TD*%
%TO.C,C7*%
X110400000Y-78000000D03*
X110400000Y-75500000D03*
%TD*%
%TO.C,C42*%
X94900000Y-83500000D03*
X89900000Y-83500000D03*
%TD*%
M02*
