M48
; DRILL file {KiCad 9.0.7} date 2026-10-08T00:31:04+1100
; FORMAT={-:-/ absolute / metric / decimal}
; #@! TF.CreationDate,2026-10-08T00:31:04+11:00
; #@! TF.GenerationSoftware,Kicad,Pcbnew,9.0.7
; #@! TF.FileFunction,Plated,1,4,PTH
FMAT,2
METRIC
; #@! TA.AperFunction,Plated,PTH,ViaDrill
T1C0.400
; #@! TA.AperFunction,Plated,PTH,ComponentDrill
T2C0.730
; #@! TA.AperFunction,Plated,PTH,ComponentDrill
T3C0.800
; #@! TA.AperFunction,Plated,PTH,ComponentDrill
T4C0.900
; #@! TA.AperFunction,Plated,PTH,ComponentDrill
T5C1.000
%
G90
G05
T1
X36.65Y-100.0
X38.15Y-104.25
X41.65Y-69.5
X44.4Y-109.25
X45.15Y-108.0
X46.15Y-71.25
X48.15Y-94.5
X51.65Y-87.75
X52.549Y-91.5
X53.4Y-98.75
X53.4Y-109.75
X61.4Y-120.75
X63.425Y-120.249
X65.9Y-117.0
X67.4Y-108.374
X68.9Y-99.25
X72.409Y-87.759
X75.15Y-138.5
X77.15Y-77.75
X80.15Y-142.0
X82.4Y-119.25
X83.4Y-125.75
X84.4Y-121.025
X85.9Y-85.25
X86.785Y-129.563
X86.9Y-86.25
X88.4Y-106.75
X88.65Y-152.25
X89.525Y-142.025
X89.9Y-143.75
X91.9Y-146.75
X92.675Y-127.5
X93.88Y-146.75
X93.9Y-137.0
X95.65Y-143.0
X96.65Y-147.25
X97.15Y-105.25
X97.65Y-131.25
X97.9Y-137.5
X98.9Y-80.25
X99.164Y-74.986
X100.15Y-146.75
X100.4Y-81.75
X100.4Y-138.5
X101.4Y-71.25
X104.814Y-92.071
X104.99Y-75.573
X106.15Y-76.225
X106.9Y-86.25
X109.65Y-86.25
X111.07Y-120.08
X114.4Y-144.5
X114.563Y-135.663
X114.65Y-107.25
X115.788Y-125.354
X117.15Y-124.25
X117.825Y-130.75
X119.15Y-133.75
X123.65Y-100.75
X124.65Y-123.25
X126.4Y-74.5
X127.65Y-134.5
X132.15Y-70.5
X132.275Y-94.125
X145.15Y-111.925
X147.65Y-112.0
X148.15Y-135.5
X150.15Y-133.25
X174.15Y-97.0
X192.65Y-91.0
X192.65Y-122.75
T2
X142.59Y-67.28
X142.59Y-75.22
X145.13Y-67.28
X145.13Y-75.22
X147.67Y-67.28
X147.67Y-75.22
X150.21Y-67.28
X150.21Y-75.22
X162.71Y-96.0
X162.71Y-98.54
X162.71Y-101.08
X162.71Y-103.62
X170.65Y-96.0
X170.65Y-98.54
X170.65Y-101.08
X170.65Y-103.62
T3
X38.57Y-66.0
X40.07Y-97.25
X40.07Y-102.0
X40.07Y-106.5
X40.07Y-111.0
X47.4Y-79.0
X47.41Y-83.95
X47.65Y-121.42
X47.65Y-131.58
X48.73Y-66.0
X48.85Y-69.5
X48.85Y-74.5
X50.23Y-97.25
X50.23Y-102.0
X50.23Y-106.5
X50.23Y-111.0
X51.551Y-121.422
X51.551Y-131.582
X52.4Y-79.0
X52.41Y-83.95
X52.9Y-69.5
X52.9Y-74.5
X67.99Y-122.25
X67.99Y-126.5
X67.99Y-130.75
X68.07Y-111.25
X68.07Y-115.25
X70.15Y-77.75
X70.15Y-81.5
X70.15Y-85.25
X76.07Y-144.33
X78.15Y-122.25
X78.15Y-126.5
X78.15Y-130.75
X78.23Y-111.25
X78.23Y-115.25
X80.31Y-77.75
X80.31Y-81.5
X80.31Y-85.25
X80.41Y-149.5
X80.49Y-154.25
X80.9Y-135.33
X80.9Y-140.33
X85.65Y-135.4
X85.65Y-140.4
X85.99Y-73.75
X86.23Y-144.33
X89.9Y-83.5
X89.9Y-88.25
X89.9Y-93.25
X90.15Y-124.75
X90.15Y-134.91
X90.57Y-149.5
X90.65Y-154.25
X93.15Y-59.0
X93.15Y-64.0
X93.15Y-69.0
X94.9Y-83.5
X94.9Y-88.25
X94.9Y-93.25
X95.4Y-128.08
X95.4Y-133.08
X95.9Y-150.58
X95.9Y-155.58
X96.15Y-73.75
X98.15Y-59.0
X98.15Y-64.0
X98.15Y-69.0
X99.15Y-83.42
X99.15Y-93.58
X100.15Y-125.0
X100.15Y-135.16
X101.07Y-155.08
X102.15Y-58.92
X102.15Y-69.08
X103.15Y-83.0
X103.15Y-88.0
X103.4Y-139.08
X103.4Y-141.58
X103.65Y-145.08
X103.65Y-150.08
X104.65Y-134.5
X105.65Y-120.4
X105.65Y-130.56
X105.9Y-68.25
X107.45Y-82.402
X107.45Y-92.562
X108.65Y-145.08
X108.65Y-150.08
X109.4Y-109.92
X109.4Y-120.08
X109.57Y-72.0
X109.65Y-134.5
X110.4Y-75.5
X110.4Y-78.0
X110.9Y-68.25
X111.23Y-155.08
X111.65Y-125.25
X111.65Y-130.25
X111.7Y-82.402
X111.7Y-92.562
X112.07Y-139.25
X114.15Y-109.92
X114.15Y-120.08
X115.82Y-148.5
X115.82Y-152.75
X115.95Y-82.42
X115.95Y-92.58
X118.9Y-109.92
X118.9Y-120.08
X119.73Y-72.0
X120.2Y-82.42
X120.2Y-92.58
X121.4Y-143.25
X122.23Y-139.25
X123.65Y-109.92
X123.65Y-120.08
X124.65Y-130.5
X124.9Y-135.0
X125.4Y-125.25
X125.98Y-148.5
X125.98Y-152.75
X126.07Y-139.25
X126.4Y-143.25
X128.4Y-109.92
X128.4Y-120.08
X129.15Y-67.75
X129.65Y-130.5
X129.9Y-135.0
X130.49Y-102.0
X130.57Y-105.5
X131.65Y-78.0
X131.65Y-83.0
X134.15Y-67.75
X135.56Y-125.25
X135.57Y-130.75
X136.23Y-139.25
X137.15Y-110.59
X137.15Y-120.75
X137.49Y-95.75
X140.65Y-102.0
X140.73Y-105.5
X141.15Y-119.5
X141.15Y-124.5
X142.65Y-57.5
X142.65Y-62.5
X143.15Y-79.0
X143.15Y-84.0
X145.15Y-101.5
X145.15Y-106.5
X145.73Y-130.75
X145.9Y-119.5
X145.9Y-124.5
X147.65Y-95.75
X147.9Y-57.5
X147.9Y-62.5
X147.9Y-79.0
X147.9Y-84.0
X148.74Y-100.75
X150.15Y-104.75
X151.65Y-119.92
X151.65Y-130.08
X152.32Y-110.25
X152.9Y-115.75
X155.15Y-104.75
X157.65Y-58.67
X157.65Y-68.83
X157.65Y-71.5
X157.65Y-81.66
X157.9Y-115.75
X158.9Y-100.75
X162.15Y-115.42
X162.15Y-125.58
X162.48Y-110.25
X165.65Y-71.0
X166.15Y-60.5
X169.15Y-71.0
X169.65Y-60.5
X169.65Y-121.0
X169.65Y-126.0
X170.65Y-108.25
X173.15Y-133.5
X173.15Y-138.5
X174.9Y-64.92
X174.9Y-75.08
X175.65Y-99.5
X175.65Y-104.5
X175.65Y-108.25
X176.15Y-58.0
X176.65Y-88.75
X176.65Y-93.75
X176.9Y-121.0
X176.9Y-126.0
X177.9Y-79.0
X177.9Y-84.0
X179.9Y-63.17
X179.9Y-73.33
X180.65Y-133.5
X180.65Y-138.5
X181.15Y-58.0
X182.15Y-117.17
X182.15Y-127.33
X183.11Y-81.75
X183.11Y-90.68
X183.11Y-102.5
X183.11Y-111.0
X185.9Y-63.5
X187.9Y-123.75
X187.9Y-133.91
X188.19Y-81.75
X188.19Y-90.68
X188.19Y-102.5
X188.19Y-111.0
X190.9Y-63.5
T4
X166.35Y-82.5
X166.35Y-85.0
X166.35Y-87.5
X169.65Y-82.5
X169.65Y-85.0
X169.65Y-87.5
T5
X40.65Y-72.0
X40.65Y-74.5
X40.65Y-77.0
X40.65Y-87.0
X40.65Y-89.5
X40.65Y-92.0
X40.804Y-116.489
X40.804Y-118.989
X40.804Y-121.489
X40.9Y-131.5
X40.9Y-134.0
X40.9Y-136.5
X43.15Y-72.0
X43.15Y-74.5
X43.15Y-77.0
X43.15Y-87.0
X43.15Y-89.5
X43.15Y-92.0
X43.304Y-116.489
X43.304Y-118.989
X43.304Y-121.489
X43.4Y-131.5
X43.4Y-134.0
X43.4Y-136.5
X56.15Y-87.4
X56.15Y-89.94
X56.15Y-92.48
X56.15Y-95.02
X56.15Y-97.56
X56.15Y-100.1
X56.15Y-102.64
X56.15Y-105.18
X56.15Y-107.72
X56.15Y-110.26
X56.15Y-112.8
X56.15Y-115.34
X56.15Y-117.88
X56.15Y-120.42
X56.15Y-122.96
X56.15Y-125.5
X56.15Y-128.04
X63.4Y-64.472
X63.4Y-66.972
X63.4Y-69.472
X63.4Y-79.5
X63.4Y-82.0
X63.4Y-84.5
X63.4Y-94.5
X63.4Y-97.0
X63.4Y-99.5
X63.4Y-109.0
X63.4Y-111.5
X63.4Y-114.0
X63.4Y-124.0
X63.4Y-126.5
X63.4Y-129.0
X63.4Y-139.0
X63.4Y-141.5
X63.4Y-144.0
X80.79Y-102.75
X83.33Y-102.75
X85.87Y-102.75
X88.41Y-102.75
X90.95Y-102.75
X93.49Y-102.75
X96.03Y-102.75
X98.57Y-102.75
X101.11Y-102.75
X103.65Y-102.75
X106.19Y-102.75
X108.73Y-102.75
X111.27Y-102.75
X113.81Y-102.75
X116.35Y-102.75
X118.89Y-102.75
X121.43Y-102.75
M30
