%TF.GenerationSoftware,KiCad,Pcbnew,9.0.7*%
%TF.CreationDate,2026-10-08T00:31:04+11:00*%
%TF.ProjectId,Combined_EQ,436f6d62-696e-4656-945f-45512e6b6963,rev?*%
%TF.SameCoordinates,Original*%
%TF.FileFunction,Drillmap*%
%TF.FilePolarity,Positive*%
%FSLAX45Y45*%
G04 Gerber Fmt 4.5, Leading zero omitted, Abs format (unit mm)*
G04 Created by KiCad (PCBNEW 9.0.7) date 2026-10-08 00:31:04*
%MOMM*%
%LPD*%
G01*
G04 APERTURE LIST*
%ADD10C,0.050000*%
%ADD11C,0.100000*%
%ADD12C,0.200000*%
%ADD13C,0.320000*%
G04 APERTURE END LIST*
D10*
X5815000Y-16000000D02*
X3565000Y-16000000D01*
X5815000Y-5500000D02*
X3565000Y-5500000D01*
D11*
X5815000Y-16000000D02*
X5815000Y-5500000D01*
D10*
X19500000Y-7150000D02*
X19500000Y-5500000D01*
X19500000Y-13400000D02*
X19500000Y-16000000D01*
X20200000Y-13400000D02*
X20300000Y-13300000D01*
X20200000Y-7150000D02*
X20300000Y-7250000D01*
X19500000Y-16000000D02*
X5815000Y-16000000D01*
X19500000Y-5500000D02*
X5815000Y-5500000D01*
X19500000Y-7150000D02*
X20200000Y-7150000D01*
X19500000Y-13400000D02*
X20200000Y-13400000D01*
X20300000Y-13300000D02*
X20300000Y-7250000D01*
X3565000Y-5500000D02*
X3565000Y-16000000D01*
D11*
X3565000Y-6930000D02*
X3565000Y-7970000D01*
X3580425Y-11378888D02*
X3580425Y-12418888D01*
X3590000Y-12880000D02*
X3590000Y-13920000D01*
X3565000Y-8430000D02*
X3565000Y-9470000D01*
D12*
D13*
X4905000Y-5840000D02*
X5225000Y-6160000D01*
X5225000Y-5840000D02*
X4905000Y-6160000D01*
X4905000Y-15340000D02*
X5225000Y-15660000D01*
X5225000Y-15340000D02*
X4905000Y-15660000D01*
X7155000Y-5840000D02*
X7475000Y-6160000D01*
X7475000Y-5840000D02*
X7155000Y-6160000D01*
X7155000Y-15340000D02*
X7475000Y-15660000D01*
X7475000Y-15340000D02*
X7155000Y-15660000D01*
D12*
X3820777Y-16316484D02*
X3820777Y-16116484D01*
X3820777Y-16116484D02*
X3868396Y-16116484D01*
X3868396Y-16116484D02*
X3896967Y-16126008D01*
X3896967Y-16126008D02*
X3916015Y-16145055D01*
X3916015Y-16145055D02*
X3925539Y-16164103D01*
X3925539Y-16164103D02*
X3935062Y-16202198D01*
X3935062Y-16202198D02*
X3935062Y-16230769D01*
X3935062Y-16230769D02*
X3925539Y-16268865D01*
X3925539Y-16268865D02*
X3916015Y-16287912D01*
X3916015Y-16287912D02*
X3896967Y-16306960D01*
X3896967Y-16306960D02*
X3868396Y-16316484D01*
X3868396Y-16316484D02*
X3820777Y-16316484D01*
X4020777Y-16316484D02*
X4020777Y-16183150D01*
X4020777Y-16221246D02*
X4030301Y-16202198D01*
X4030301Y-16202198D02*
X4039824Y-16192674D01*
X4039824Y-16192674D02*
X4058872Y-16183150D01*
X4058872Y-16183150D02*
X4077920Y-16183150D01*
X4144586Y-16316484D02*
X4144586Y-16183150D01*
X4144586Y-16116484D02*
X4135062Y-16126008D01*
X4135062Y-16126008D02*
X4144586Y-16135531D01*
X4144586Y-16135531D02*
X4154110Y-16126008D01*
X4154110Y-16126008D02*
X4144586Y-16116484D01*
X4144586Y-16116484D02*
X4144586Y-16135531D01*
X4268396Y-16316484D02*
X4249348Y-16306960D01*
X4249348Y-16306960D02*
X4239824Y-16287912D01*
X4239824Y-16287912D02*
X4239824Y-16116484D01*
X4373158Y-16316484D02*
X4354110Y-16306960D01*
X4354110Y-16306960D02*
X4344586Y-16287912D01*
X4344586Y-16287912D02*
X4344586Y-16116484D01*
X4601729Y-16316484D02*
X4601729Y-16116484D01*
X4601729Y-16116484D02*
X4668396Y-16259341D01*
X4668396Y-16259341D02*
X4735063Y-16116484D01*
X4735063Y-16116484D02*
X4735063Y-16316484D01*
X4916015Y-16316484D02*
X4916015Y-16211722D01*
X4916015Y-16211722D02*
X4906491Y-16192674D01*
X4906491Y-16192674D02*
X4887444Y-16183150D01*
X4887444Y-16183150D02*
X4849348Y-16183150D01*
X4849348Y-16183150D02*
X4830301Y-16192674D01*
X4916015Y-16306960D02*
X4896967Y-16316484D01*
X4896967Y-16316484D02*
X4849348Y-16316484D01*
X4849348Y-16316484D02*
X4830301Y-16306960D01*
X4830301Y-16306960D02*
X4820777Y-16287912D01*
X4820777Y-16287912D02*
X4820777Y-16268865D01*
X4820777Y-16268865D02*
X4830301Y-16249817D01*
X4830301Y-16249817D02*
X4849348Y-16240293D01*
X4849348Y-16240293D02*
X4896967Y-16240293D01*
X4896967Y-16240293D02*
X4916015Y-16230769D01*
X5011253Y-16183150D02*
X5011253Y-16383150D01*
X5011253Y-16192674D02*
X5030301Y-16183150D01*
X5030301Y-16183150D02*
X5068396Y-16183150D01*
X5068396Y-16183150D02*
X5087444Y-16192674D01*
X5087444Y-16192674D02*
X5096967Y-16202198D01*
X5096967Y-16202198D02*
X5106491Y-16221246D01*
X5106491Y-16221246D02*
X5106491Y-16278388D01*
X5106491Y-16278388D02*
X5096967Y-16297436D01*
X5096967Y-16297436D02*
X5087444Y-16306960D01*
X5087444Y-16306960D02*
X5068396Y-16316484D01*
X5068396Y-16316484D02*
X5030301Y-16316484D01*
X5030301Y-16316484D02*
X5011253Y-16306960D01*
X5192205Y-16297436D02*
X5201729Y-16306960D01*
X5201729Y-16306960D02*
X5192205Y-16316484D01*
X5192205Y-16316484D02*
X5182682Y-16306960D01*
X5182682Y-16306960D02*
X5192205Y-16297436D01*
X5192205Y-16297436D02*
X5192205Y-16316484D01*
X5192205Y-16192674D02*
X5201729Y-16202198D01*
X5201729Y-16202198D02*
X5192205Y-16211722D01*
X5192205Y-16211722D02*
X5182682Y-16202198D01*
X5182682Y-16202198D02*
X5192205Y-16192674D01*
X5192205Y-16192674D02*
X5192205Y-16211722D01*
X3360000Y-16545000D02*
X3560000Y-16745000D01*
X3560000Y-16545000D02*
X3360000Y-16745000D01*
X3801729Y-16536484D02*
X3925539Y-16536484D01*
X3925539Y-16536484D02*
X3858872Y-16612674D01*
X3858872Y-16612674D02*
X3887443Y-16612674D01*
X3887443Y-16612674D02*
X3906491Y-16622198D01*
X3906491Y-16622198D02*
X3916015Y-16631722D01*
X3916015Y-16631722D02*
X3925539Y-16650769D01*
X3925539Y-16650769D02*
X3925539Y-16698388D01*
X3925539Y-16698388D02*
X3916015Y-16717436D01*
X3916015Y-16717436D02*
X3906491Y-16726960D01*
X3906491Y-16726960D02*
X3887443Y-16736484D01*
X3887443Y-16736484D02*
X3830301Y-16736484D01*
X3830301Y-16736484D02*
X3811253Y-16726960D01*
X3811253Y-16726960D02*
X3801729Y-16717436D01*
X4011253Y-16717436D02*
X4020777Y-16726960D01*
X4020777Y-16726960D02*
X4011253Y-16736484D01*
X4011253Y-16736484D02*
X4001729Y-16726960D01*
X4001729Y-16726960D02*
X4011253Y-16717436D01*
X4011253Y-16717436D02*
X4011253Y-16736484D01*
X4096967Y-16555531D02*
X4106491Y-16546008D01*
X4106491Y-16546008D02*
X4125539Y-16536484D01*
X4125539Y-16536484D02*
X4173158Y-16536484D01*
X4173158Y-16536484D02*
X4192205Y-16546008D01*
X4192205Y-16546008D02*
X4201729Y-16555531D01*
X4201729Y-16555531D02*
X4211253Y-16574579D01*
X4211253Y-16574579D02*
X4211253Y-16593627D01*
X4211253Y-16593627D02*
X4201729Y-16622198D01*
X4201729Y-16622198D02*
X4087443Y-16736484D01*
X4087443Y-16736484D02*
X4211253Y-16736484D01*
X4335063Y-16536484D02*
X4354110Y-16536484D01*
X4354110Y-16536484D02*
X4373158Y-16546008D01*
X4373158Y-16546008D02*
X4382682Y-16555531D01*
X4382682Y-16555531D02*
X4392205Y-16574579D01*
X4392205Y-16574579D02*
X4401729Y-16612674D01*
X4401729Y-16612674D02*
X4401729Y-16660293D01*
X4401729Y-16660293D02*
X4392205Y-16698388D01*
X4392205Y-16698388D02*
X4382682Y-16717436D01*
X4382682Y-16717436D02*
X4373158Y-16726960D01*
X4373158Y-16726960D02*
X4354110Y-16736484D01*
X4354110Y-16736484D02*
X4335063Y-16736484D01*
X4335063Y-16736484D02*
X4316015Y-16726960D01*
X4316015Y-16726960D02*
X4306491Y-16717436D01*
X4306491Y-16717436D02*
X4296967Y-16698388D01*
X4296967Y-16698388D02*
X4287444Y-16660293D01*
X4287444Y-16660293D02*
X4287444Y-16612674D01*
X4287444Y-16612674D02*
X4296967Y-16574579D01*
X4296967Y-16574579D02*
X4306491Y-16555531D01*
X4306491Y-16555531D02*
X4316015Y-16546008D01*
X4316015Y-16546008D02*
X4335063Y-16536484D01*
X4525539Y-16536484D02*
X4544586Y-16536484D01*
X4544586Y-16536484D02*
X4563634Y-16546008D01*
X4563634Y-16546008D02*
X4573158Y-16555531D01*
X4573158Y-16555531D02*
X4582682Y-16574579D01*
X4582682Y-16574579D02*
X4592205Y-16612674D01*
X4592205Y-16612674D02*
X4592205Y-16660293D01*
X4592205Y-16660293D02*
X4582682Y-16698388D01*
X4582682Y-16698388D02*
X4573158Y-16717436D01*
X4573158Y-16717436D02*
X4563634Y-16726960D01*
X4563634Y-16726960D02*
X4544586Y-16736484D01*
X4544586Y-16736484D02*
X4525539Y-16736484D01*
X4525539Y-16736484D02*
X4506491Y-16726960D01*
X4506491Y-16726960D02*
X4496967Y-16717436D01*
X4496967Y-16717436D02*
X4487444Y-16698388D01*
X4487444Y-16698388D02*
X4477920Y-16660293D01*
X4477920Y-16660293D02*
X4477920Y-16612674D01*
X4477920Y-16612674D02*
X4487444Y-16574579D01*
X4487444Y-16574579D02*
X4496967Y-16555531D01*
X4496967Y-16555531D02*
X4506491Y-16546008D01*
X4506491Y-16546008D02*
X4525539Y-16536484D01*
X4677920Y-16736484D02*
X4677920Y-16603150D01*
X4677920Y-16622198D02*
X4687444Y-16612674D01*
X4687444Y-16612674D02*
X4706491Y-16603150D01*
X4706491Y-16603150D02*
X4735063Y-16603150D01*
X4735063Y-16603150D02*
X4754110Y-16612674D01*
X4754110Y-16612674D02*
X4763634Y-16631722D01*
X4763634Y-16631722D02*
X4763634Y-16736484D01*
X4763634Y-16631722D02*
X4773158Y-16612674D01*
X4773158Y-16612674D02*
X4792205Y-16603150D01*
X4792205Y-16603150D02*
X4820777Y-16603150D01*
X4820777Y-16603150D02*
X4839825Y-16612674D01*
X4839825Y-16612674D02*
X4849348Y-16631722D01*
X4849348Y-16631722D02*
X4849348Y-16736484D01*
X4944586Y-16736484D02*
X4944586Y-16603150D01*
X4944586Y-16622198D02*
X4954110Y-16612674D01*
X4954110Y-16612674D02*
X4973158Y-16603150D01*
X4973158Y-16603150D02*
X5001729Y-16603150D01*
X5001729Y-16603150D02*
X5020777Y-16612674D01*
X5020777Y-16612674D02*
X5030301Y-16631722D01*
X5030301Y-16631722D02*
X5030301Y-16736484D01*
X5030301Y-16631722D02*
X5039825Y-16612674D01*
X5039825Y-16612674D02*
X5058872Y-16603150D01*
X5058872Y-16603150D02*
X5087444Y-16603150D01*
X5087444Y-16603150D02*
X5106491Y-16612674D01*
X5106491Y-16612674D02*
X5116015Y-16631722D01*
X5116015Y-16631722D02*
X5116015Y-16736484D01*
X5506491Y-16526960D02*
X5335063Y-16784103D01*
X5763634Y-16536484D02*
X5782682Y-16536484D01*
X5782682Y-16536484D02*
X5801729Y-16546008D01*
X5801729Y-16546008D02*
X5811253Y-16555531D01*
X5811253Y-16555531D02*
X5820777Y-16574579D01*
X5820777Y-16574579D02*
X5830301Y-16612674D01*
X5830301Y-16612674D02*
X5830301Y-16660293D01*
X5830301Y-16660293D02*
X5820777Y-16698388D01*
X5820777Y-16698388D02*
X5811253Y-16717436D01*
X5811253Y-16717436D02*
X5801729Y-16726960D01*
X5801729Y-16726960D02*
X5782682Y-16736484D01*
X5782682Y-16736484D02*
X5763634Y-16736484D01*
X5763634Y-16736484D02*
X5744586Y-16726960D01*
X5744586Y-16726960D02*
X5735063Y-16717436D01*
X5735063Y-16717436D02*
X5725539Y-16698388D01*
X5725539Y-16698388D02*
X5716015Y-16660293D01*
X5716015Y-16660293D02*
X5716015Y-16612674D01*
X5716015Y-16612674D02*
X5725539Y-16574579D01*
X5725539Y-16574579D02*
X5735063Y-16555531D01*
X5735063Y-16555531D02*
X5744586Y-16546008D01*
X5744586Y-16546008D02*
X5763634Y-16536484D01*
X5916015Y-16717436D02*
X5925539Y-16726960D01*
X5925539Y-16726960D02*
X5916015Y-16736484D01*
X5916015Y-16736484D02*
X5906491Y-16726960D01*
X5906491Y-16726960D02*
X5916015Y-16717436D01*
X5916015Y-16717436D02*
X5916015Y-16736484D01*
X6116015Y-16736484D02*
X6001729Y-16736484D01*
X6058872Y-16736484D02*
X6058872Y-16536484D01*
X6058872Y-16536484D02*
X6039825Y-16565055D01*
X6039825Y-16565055D02*
X6020777Y-16584103D01*
X6020777Y-16584103D02*
X6001729Y-16593627D01*
X6192206Y-16555531D02*
X6201729Y-16546008D01*
X6201729Y-16546008D02*
X6220777Y-16536484D01*
X6220777Y-16536484D02*
X6268396Y-16536484D01*
X6268396Y-16536484D02*
X6287444Y-16546008D01*
X6287444Y-16546008D02*
X6296967Y-16555531D01*
X6296967Y-16555531D02*
X6306491Y-16574579D01*
X6306491Y-16574579D02*
X6306491Y-16593627D01*
X6306491Y-16593627D02*
X6296967Y-16622198D01*
X6296967Y-16622198D02*
X6182682Y-16736484D01*
X6182682Y-16736484D02*
X6306491Y-16736484D01*
X6477920Y-16536484D02*
X6439825Y-16536484D01*
X6439825Y-16536484D02*
X6420777Y-16546008D01*
X6420777Y-16546008D02*
X6411253Y-16555531D01*
X6411253Y-16555531D02*
X6392206Y-16584103D01*
X6392206Y-16584103D02*
X6382682Y-16622198D01*
X6382682Y-16622198D02*
X6382682Y-16698388D01*
X6382682Y-16698388D02*
X6392206Y-16717436D01*
X6392206Y-16717436D02*
X6401729Y-16726960D01*
X6401729Y-16726960D02*
X6420777Y-16736484D01*
X6420777Y-16736484D02*
X6458872Y-16736484D01*
X6458872Y-16736484D02*
X6477920Y-16726960D01*
X6477920Y-16726960D02*
X6487444Y-16717436D01*
X6487444Y-16717436D02*
X6496967Y-16698388D01*
X6496967Y-16698388D02*
X6496967Y-16650769D01*
X6496967Y-16650769D02*
X6487444Y-16631722D01*
X6487444Y-16631722D02*
X6477920Y-16622198D01*
X6477920Y-16622198D02*
X6458872Y-16612674D01*
X6458872Y-16612674D02*
X6420777Y-16612674D01*
X6420777Y-16612674D02*
X6401729Y-16622198D01*
X6401729Y-16622198D02*
X6392206Y-16631722D01*
X6392206Y-16631722D02*
X6382682Y-16650769D01*
X6620777Y-16536484D02*
X6639825Y-16536484D01*
X6639825Y-16536484D02*
X6658872Y-16546008D01*
X6658872Y-16546008D02*
X6668396Y-16555531D01*
X6668396Y-16555531D02*
X6677920Y-16574579D01*
X6677920Y-16574579D02*
X6687444Y-16612674D01*
X6687444Y-16612674D02*
X6687444Y-16660293D01*
X6687444Y-16660293D02*
X6677920Y-16698388D01*
X6677920Y-16698388D02*
X6668396Y-16717436D01*
X6668396Y-16717436D02*
X6658872Y-16726960D01*
X6658872Y-16726960D02*
X6639825Y-16736484D01*
X6639825Y-16736484D02*
X6620777Y-16736484D01*
X6620777Y-16736484D02*
X6601729Y-16726960D01*
X6601729Y-16726960D02*
X6592206Y-16717436D01*
X6592206Y-16717436D02*
X6582682Y-16698388D01*
X6582682Y-16698388D02*
X6573158Y-16660293D01*
X6573158Y-16660293D02*
X6573158Y-16612674D01*
X6573158Y-16612674D02*
X6582682Y-16574579D01*
X6582682Y-16574579D02*
X6592206Y-16555531D01*
X6592206Y-16555531D02*
X6601729Y-16546008D01*
X6601729Y-16546008D02*
X6620777Y-16536484D01*
X6763634Y-16536484D02*
X6763634Y-16574579D01*
X6839825Y-16536484D02*
X6839825Y-16574579D01*
X7135063Y-16812674D02*
X7125539Y-16803150D01*
X7125539Y-16803150D02*
X7106491Y-16774579D01*
X7106491Y-16774579D02*
X7096968Y-16755531D01*
X7096968Y-16755531D02*
X7087444Y-16726960D01*
X7087444Y-16726960D02*
X7077920Y-16679341D01*
X7077920Y-16679341D02*
X7077920Y-16641246D01*
X7077920Y-16641246D02*
X7087444Y-16593627D01*
X7087444Y-16593627D02*
X7096968Y-16565055D01*
X7096968Y-16565055D02*
X7106491Y-16546008D01*
X7106491Y-16546008D02*
X7125539Y-16517436D01*
X7125539Y-16517436D02*
X7135063Y-16507912D01*
X7296968Y-16603150D02*
X7296968Y-16736484D01*
X7249348Y-16526960D02*
X7201729Y-16669817D01*
X7201729Y-16669817D02*
X7325539Y-16669817D01*
X7554110Y-16736484D02*
X7554110Y-16536484D01*
X7639825Y-16736484D02*
X7639825Y-16631722D01*
X7639825Y-16631722D02*
X7630301Y-16612674D01*
X7630301Y-16612674D02*
X7611253Y-16603150D01*
X7611253Y-16603150D02*
X7582682Y-16603150D01*
X7582682Y-16603150D02*
X7563634Y-16612674D01*
X7563634Y-16612674D02*
X7554110Y-16622198D01*
X7763634Y-16736484D02*
X7744587Y-16726960D01*
X7744587Y-16726960D02*
X7735063Y-16717436D01*
X7735063Y-16717436D02*
X7725539Y-16698388D01*
X7725539Y-16698388D02*
X7725539Y-16641246D01*
X7725539Y-16641246D02*
X7735063Y-16622198D01*
X7735063Y-16622198D02*
X7744587Y-16612674D01*
X7744587Y-16612674D02*
X7763634Y-16603150D01*
X7763634Y-16603150D02*
X7792206Y-16603150D01*
X7792206Y-16603150D02*
X7811253Y-16612674D01*
X7811253Y-16612674D02*
X7820777Y-16622198D01*
X7820777Y-16622198D02*
X7830301Y-16641246D01*
X7830301Y-16641246D02*
X7830301Y-16698388D01*
X7830301Y-16698388D02*
X7820777Y-16717436D01*
X7820777Y-16717436D02*
X7811253Y-16726960D01*
X7811253Y-16726960D02*
X7792206Y-16736484D01*
X7792206Y-16736484D02*
X7763634Y-16736484D01*
X7944587Y-16736484D02*
X7925539Y-16726960D01*
X7925539Y-16726960D02*
X7916015Y-16707912D01*
X7916015Y-16707912D02*
X7916015Y-16536484D01*
X8096968Y-16726960D02*
X8077920Y-16736484D01*
X8077920Y-16736484D02*
X8039825Y-16736484D01*
X8039825Y-16736484D02*
X8020777Y-16726960D01*
X8020777Y-16726960D02*
X8011253Y-16707912D01*
X8011253Y-16707912D02*
X8011253Y-16631722D01*
X8011253Y-16631722D02*
X8020777Y-16612674D01*
X8020777Y-16612674D02*
X8039825Y-16603150D01*
X8039825Y-16603150D02*
X8077920Y-16603150D01*
X8077920Y-16603150D02*
X8096968Y-16612674D01*
X8096968Y-16612674D02*
X8106491Y-16631722D01*
X8106491Y-16631722D02*
X8106491Y-16650769D01*
X8106491Y-16650769D02*
X8011253Y-16669817D01*
X8182682Y-16726960D02*
X8201730Y-16736484D01*
X8201730Y-16736484D02*
X8239825Y-16736484D01*
X8239825Y-16736484D02*
X8258872Y-16726960D01*
X8258872Y-16726960D02*
X8268396Y-16707912D01*
X8268396Y-16707912D02*
X8268396Y-16698388D01*
X8268396Y-16698388D02*
X8258872Y-16679341D01*
X8258872Y-16679341D02*
X8239825Y-16669817D01*
X8239825Y-16669817D02*
X8211253Y-16669817D01*
X8211253Y-16669817D02*
X8192206Y-16660293D01*
X8192206Y-16660293D02*
X8182682Y-16641246D01*
X8182682Y-16641246D02*
X8182682Y-16631722D01*
X8182682Y-16631722D02*
X8192206Y-16612674D01*
X8192206Y-16612674D02*
X8211253Y-16603150D01*
X8211253Y-16603150D02*
X8239825Y-16603150D01*
X8239825Y-16603150D02*
X8258872Y-16612674D01*
X8335063Y-16812674D02*
X8344587Y-16803150D01*
X8344587Y-16803150D02*
X8363634Y-16774579D01*
X8363634Y-16774579D02*
X8373158Y-16755531D01*
X8373158Y-16755531D02*
X8382682Y-16726960D01*
X8382682Y-16726960D02*
X8392206Y-16679341D01*
X8392206Y-16679341D02*
X8392206Y-16641246D01*
X8392206Y-16641246D02*
X8382682Y-16593627D01*
X8382682Y-16593627D02*
X8373158Y-16565055D01*
X8373158Y-16565055D02*
X8363634Y-16546008D01*
X8363634Y-16546008D02*
X8344587Y-16517436D01*
X8344587Y-16517436D02*
X8335063Y-16507912D01*
X8696968Y-16812674D02*
X8687444Y-16803150D01*
X8687444Y-16803150D02*
X8668396Y-16774579D01*
X8668396Y-16774579D02*
X8658873Y-16755531D01*
X8658873Y-16755531D02*
X8649349Y-16726960D01*
X8649349Y-16726960D02*
X8639825Y-16679341D01*
X8639825Y-16679341D02*
X8639825Y-16641246D01*
X8639825Y-16641246D02*
X8649349Y-16593627D01*
X8649349Y-16593627D02*
X8658873Y-16565055D01*
X8658873Y-16565055D02*
X8668396Y-16546008D01*
X8668396Y-16546008D02*
X8687444Y-16517436D01*
X8687444Y-16517436D02*
X8696968Y-16507912D01*
X8773158Y-16603150D02*
X8773158Y-16736484D01*
X8773158Y-16622198D02*
X8782682Y-16612674D01*
X8782682Y-16612674D02*
X8801730Y-16603150D01*
X8801730Y-16603150D02*
X8830301Y-16603150D01*
X8830301Y-16603150D02*
X8849349Y-16612674D01*
X8849349Y-16612674D02*
X8858873Y-16631722D01*
X8858873Y-16631722D02*
X8858873Y-16736484D01*
X8982682Y-16736484D02*
X8963634Y-16726960D01*
X8963634Y-16726960D02*
X8954111Y-16717436D01*
X8954111Y-16717436D02*
X8944587Y-16698388D01*
X8944587Y-16698388D02*
X8944587Y-16641246D01*
X8944587Y-16641246D02*
X8954111Y-16622198D01*
X8954111Y-16622198D02*
X8963634Y-16612674D01*
X8963634Y-16612674D02*
X8982682Y-16603150D01*
X8982682Y-16603150D02*
X9011254Y-16603150D01*
X9011254Y-16603150D02*
X9030301Y-16612674D01*
X9030301Y-16612674D02*
X9039825Y-16622198D01*
X9039825Y-16622198D02*
X9049349Y-16641246D01*
X9049349Y-16641246D02*
X9049349Y-16698388D01*
X9049349Y-16698388D02*
X9039825Y-16717436D01*
X9039825Y-16717436D02*
X9030301Y-16726960D01*
X9030301Y-16726960D02*
X9011254Y-16736484D01*
X9011254Y-16736484D02*
X8982682Y-16736484D01*
X9106492Y-16603150D02*
X9182682Y-16603150D01*
X9135063Y-16536484D02*
X9135063Y-16707912D01*
X9135063Y-16707912D02*
X9144587Y-16726960D01*
X9144587Y-16726960D02*
X9163634Y-16736484D01*
X9163634Y-16736484D02*
X9182682Y-16736484D01*
X9401730Y-16603150D02*
X9401730Y-16803150D01*
X9401730Y-16612674D02*
X9420777Y-16603150D01*
X9420777Y-16603150D02*
X9458873Y-16603150D01*
X9458873Y-16603150D02*
X9477920Y-16612674D01*
X9477920Y-16612674D02*
X9487444Y-16622198D01*
X9487444Y-16622198D02*
X9496968Y-16641246D01*
X9496968Y-16641246D02*
X9496968Y-16698388D01*
X9496968Y-16698388D02*
X9487444Y-16717436D01*
X9487444Y-16717436D02*
X9477920Y-16726960D01*
X9477920Y-16726960D02*
X9458873Y-16736484D01*
X9458873Y-16736484D02*
X9420777Y-16736484D01*
X9420777Y-16736484D02*
X9401730Y-16726960D01*
X9611254Y-16736484D02*
X9592206Y-16726960D01*
X9592206Y-16726960D02*
X9582682Y-16707912D01*
X9582682Y-16707912D02*
X9582682Y-16536484D01*
X9773158Y-16736484D02*
X9773158Y-16631722D01*
X9773158Y-16631722D02*
X9763635Y-16612674D01*
X9763635Y-16612674D02*
X9744587Y-16603150D01*
X9744587Y-16603150D02*
X9706492Y-16603150D01*
X9706492Y-16603150D02*
X9687444Y-16612674D01*
X9773158Y-16726960D02*
X9754111Y-16736484D01*
X9754111Y-16736484D02*
X9706492Y-16736484D01*
X9706492Y-16736484D02*
X9687444Y-16726960D01*
X9687444Y-16726960D02*
X9677920Y-16707912D01*
X9677920Y-16707912D02*
X9677920Y-16688865D01*
X9677920Y-16688865D02*
X9687444Y-16669817D01*
X9687444Y-16669817D02*
X9706492Y-16660293D01*
X9706492Y-16660293D02*
X9754111Y-16660293D01*
X9754111Y-16660293D02*
X9773158Y-16650769D01*
X9839825Y-16603150D02*
X9916015Y-16603150D01*
X9868396Y-16536484D02*
X9868396Y-16707912D01*
X9868396Y-16707912D02*
X9877920Y-16726960D01*
X9877920Y-16726960D02*
X9896968Y-16736484D01*
X9896968Y-16736484D02*
X9916015Y-16736484D01*
X10058873Y-16726960D02*
X10039825Y-16736484D01*
X10039825Y-16736484D02*
X10001730Y-16736484D01*
X10001730Y-16736484D02*
X9982682Y-16726960D01*
X9982682Y-16726960D02*
X9973158Y-16707912D01*
X9973158Y-16707912D02*
X9973158Y-16631722D01*
X9973158Y-16631722D02*
X9982682Y-16612674D01*
X9982682Y-16612674D02*
X10001730Y-16603150D01*
X10001730Y-16603150D02*
X10039825Y-16603150D01*
X10039825Y-16603150D02*
X10058873Y-16612674D01*
X10058873Y-16612674D02*
X10068396Y-16631722D01*
X10068396Y-16631722D02*
X10068396Y-16650769D01*
X10068396Y-16650769D02*
X9973158Y-16669817D01*
X10239825Y-16736484D02*
X10239825Y-16536484D01*
X10239825Y-16726960D02*
X10220777Y-16736484D01*
X10220777Y-16736484D02*
X10182682Y-16736484D01*
X10182682Y-16736484D02*
X10163635Y-16726960D01*
X10163635Y-16726960D02*
X10154111Y-16717436D01*
X10154111Y-16717436D02*
X10144587Y-16698388D01*
X10144587Y-16698388D02*
X10144587Y-16641246D01*
X10144587Y-16641246D02*
X10154111Y-16622198D01*
X10154111Y-16622198D02*
X10163635Y-16612674D01*
X10163635Y-16612674D02*
X10182682Y-16603150D01*
X10182682Y-16603150D02*
X10220777Y-16603150D01*
X10220777Y-16603150D02*
X10239825Y-16612674D01*
X10316016Y-16812674D02*
X10325539Y-16803150D01*
X10325539Y-16803150D02*
X10344587Y-16774579D01*
X10344587Y-16774579D02*
X10354111Y-16755531D01*
X10354111Y-16755531D02*
X10363635Y-16726960D01*
X10363635Y-16726960D02*
X10373158Y-16679341D01*
X10373158Y-16679341D02*
X10373158Y-16641246D01*
X10373158Y-16641246D02*
X10363635Y-16593627D01*
X10363635Y-16593627D02*
X10354111Y-16565055D01*
X10354111Y-16565055D02*
X10344587Y-16546008D01*
X10344587Y-16546008D02*
X10325539Y-16517436D01*
X10325539Y-16517436D02*
X10316016Y-16507912D01*
M02*
