%TF.GenerationSoftware,KiCad,Pcbnew,9.0.7*%
%TF.CreationDate,2026-10-08T00:30:54+11:00*%
%TF.ProjectId,Combined_EQ,436f6d62-696e-4656-945f-45512e6b6963,rev?*%
%TF.SameCoordinates,Original*%
%TF.FileFunction,Copper,L1,Top*%
%TF.FilePolarity,Positive*%
%FSLAX46Y46*%
G04 Gerber Fmt 4.6, Leading zero omitted, Abs format (unit mm)*
G04 Created by KiCad (PCBNEW 9.0.7) date 2026-10-08 00:30:54*
%MOMM*%
%LPD*%
G01*
G04 APERTURE LIST*
G04 Aperture macros list*
%AMRoundRect*
0 Rectangle with rounded corners*
0 $1 Rounding radius*
0 $2 $3 $4 $5 $6 $7 $8 $9 X,Y pos of 4 corners*
0 Add a 4 corners polygon primitive as box body*
4,1,4,$2,$3,$4,$5,$6,$7,$8,$9,$2,$3,0*
0 Add four circle primitives for the rounded corners*
1,1,$1+$1,$2,$3*
1,1,$1+$1,$4,$5*
1,1,$1+$1,$6,$7*
1,1,$1+$1,$8,$9*
0 Add four rect primitives between the rounded corners*
20,1,$1+$1,$2,$3,$4,$5,0*
20,1,$1+$1,$4,$5,$6,$7,0*
20,1,$1+$1,$6,$7,$8,$9,0*
20,1,$1+$1,$8,$9,$2,$3,0*%
G04 Aperture macros list end*
%TA.AperFunction,EtchedComponent*%
%ADD10C,0.000000*%
%TD*%
%TA.AperFunction,ComponentPad*%
%ADD11C,1.600000*%
%TD*%
%TA.AperFunction,ComponentPad*%
%ADD12R,1.130000X1.130000*%
%TD*%
%TA.AperFunction,ComponentPad*%
%ADD13C,1.130000*%
%TD*%
%TA.AperFunction,ComponentPad*%
%ADD14R,1.700000X1.700000*%
%TD*%
%TA.AperFunction,ComponentPad*%
%ADD15C,1.700000*%
%TD*%
%TA.AperFunction,ConnectorPad*%
%ADD16RoundRect,0.248920X3.751080X-1.021080X3.751080X1.021080X-3.751080X1.021080X-3.751080X-1.021080X0*%
%TD*%
%TA.AperFunction,SMDPad,CuDef*%
%ADD17R,1.525000X0.650000*%
%TD*%
%TA.AperFunction,ComponentPad*%
%ADD18RoundRect,0.450000X0.450000X0.450000X-0.450000X0.450000X-0.450000X-0.450000X0.450000X-0.450000X0*%
%TD*%
%TA.AperFunction,ComponentPad*%
%ADD19C,1.800000*%
%TD*%
%TA.AperFunction,ComponentPad*%
%ADD20RoundRect,0.250000X0.650000X0.650000X-0.650000X0.650000X-0.650000X-0.650000X0.650000X-0.650000X0*%
%TD*%
%TA.AperFunction,SMDPad,CuDef*%
%ADD21R,0.650000X1.525000*%
%TD*%
%TA.AperFunction,SMDPad,CuDef*%
%ADD22R,1.528000X0.650000*%
%TD*%
%TA.AperFunction,ComponentPad*%
%ADD23C,2.000000*%
%TD*%
%TA.AperFunction,ComponentPad*%
%ADD24RoundRect,0.250000X0.450000X-0.450000X0.450000X0.450000X-0.450000X0.450000X-0.450000X-0.450000X0*%
%TD*%
%TA.AperFunction,ComponentPad*%
%ADD25C,1.400000*%
%TD*%
%TA.AperFunction,ViaPad*%
%ADD26C,1.000000*%
%TD*%
%TA.AperFunction,ViaPad*%
%ADD27C,0.800000*%
%TD*%
%TA.AperFunction,ViaPad*%
%ADD28C,2.000000*%
%TD*%
%TA.AperFunction,Conductor*%
%ADD29C,0.350000*%
%TD*%
%TA.AperFunction,Conductor*%
%ADD30C,0.500000*%
%TD*%
%TA.AperFunction,Conductor*%
%ADD31C,2.000000*%
%TD*%
G04 APERTURE END LIST*
D10*
%TA.AperFunction,EtchedComponent*%
%TO.C,G\u002A\u002A\u002A*%
G36*
X154416453Y-147783185D02*
G01*
X154616333Y-147945038D01*
X154616333Y-150499999D01*
X154616333Y-153054960D01*
X154416453Y-153216813D01*
X154129401Y-153360045D01*
X153841842Y-153336093D01*
X153596484Y-153170848D01*
X153388666Y-152963029D01*
X153388666Y-150499999D01*
X153388666Y-148036969D01*
X153596484Y-147829151D01*
X153868304Y-147654590D01*
X154156612Y-147646260D01*
X154416453Y-147783185D01*
G37*
%TD.AperFunction*%
%TA.AperFunction,EtchedComponent*%
G36*
X164958156Y-144954572D02*
G01*
X165203514Y-145119817D01*
X165411333Y-145327636D01*
X165411333Y-150499999D01*
X165411333Y-155672363D01*
X165203514Y-155880181D01*
X164931694Y-156054742D01*
X164643387Y-156063072D01*
X164383546Y-155926146D01*
X164183666Y-155764294D01*
X164183666Y-150499999D01*
X164183666Y-145235705D01*
X164383546Y-145073852D01*
X164670597Y-144930620D01*
X164958156Y-144954572D01*
G37*
%TD.AperFunction*%
%TA.AperFunction,EtchedComponent*%
G36*
X172662823Y-145293239D02*
G01*
X172908181Y-145458484D01*
X173115999Y-145666302D01*
X173115999Y-150499999D01*
X173115999Y-155333696D01*
X172908181Y-155541514D01*
X172636361Y-155716075D01*
X172348053Y-155724405D01*
X172088212Y-155587480D01*
X171888333Y-155425627D01*
X171888333Y-150499999D01*
X171888333Y-145574371D01*
X172088212Y-145412519D01*
X172375264Y-145269287D01*
X172662823Y-145293239D01*
G37*
%TD.AperFunction*%
%TA.AperFunction,EtchedComponent*%
G36*
X149615831Y-149716491D02*
G01*
X149794181Y-149861151D01*
X149928462Y-150036381D01*
X149989941Y-150252177D01*
X150001999Y-150499999D01*
X149948171Y-150876421D01*
X149801192Y-151151292D01*
X149582823Y-151306365D01*
X149314821Y-151323394D01*
X149112999Y-151245494D01*
X148953533Y-151133684D01*
X148864478Y-150993374D01*
X148826300Y-150774994D01*
X148819259Y-150499999D01*
X148830188Y-150178093D01*
X148876391Y-149976104D01*
X148977985Y-149845297D01*
X149128600Y-149750674D01*
X149391728Y-149661535D01*
X149615831Y-149716491D01*
G37*
%TD.AperFunction*%
%TA.AperFunction,EtchedComponent*%
G36*
X148231585Y-149500891D02*
G01*
X148308666Y-149568666D01*
X148392722Y-149677315D01*
X148443529Y-149824246D01*
X148468598Y-150050492D01*
X148475442Y-150397087D01*
X148475306Y-150478833D01*
X148459506Y-150917022D01*
X148417354Y-151222868D01*
X148362573Y-151364504D01*
X148144122Y-151540828D01*
X147869952Y-151620454D01*
X147661558Y-151595938D01*
X147444700Y-151464734D01*
X147303966Y-151246801D01*
X147228669Y-150915980D01*
X147207999Y-150485882D01*
X147215189Y-150134704D01*
X147243890Y-149903897D01*
X147304798Y-149744845D01*
X147398499Y-149620071D01*
X147667229Y-149420706D01*
X147954350Y-149380447D01*
X148231585Y-149500891D01*
G37*
%TD.AperFunction*%
%TA.AperFunction,EtchedComponent*%
G36*
X143415294Y-148675241D02*
G01*
X143637241Y-148833289D01*
X143703737Y-148912930D01*
X143751967Y-149006519D01*
X143784850Y-149140685D01*
X143805307Y-149342052D01*
X143816257Y-149637248D01*
X143820621Y-150052899D01*
X143821333Y-150511864D01*
X143820476Y-151046679D01*
X143815837Y-151438539D01*
X143804317Y-151713820D01*
X143782813Y-151898898D01*
X143748224Y-152020150D01*
X143697449Y-152103952D01*
X143627388Y-152176682D01*
X143625376Y-152178574D01*
X143370392Y-152336714D01*
X143107789Y-152329370D01*
X142859084Y-152187187D01*
X142635999Y-152011709D01*
X142635999Y-150499999D01*
X142635999Y-148988289D01*
X142859084Y-148812811D01*
X143148477Y-148660128D01*
X143415294Y-148675241D01*
G37*
%TD.AperFunction*%
%TA.AperFunction,EtchedComponent*%
G36*
X171341537Y-149558545D02*
G01*
X171401499Y-149620071D01*
X171500925Y-149754969D01*
X171558810Y-149916406D01*
X171585662Y-150152550D01*
X171591999Y-150493302D01*
X171582687Y-150862985D01*
X171548755Y-151111021D01*
X171481214Y-151284379D01*
X171424708Y-151367172D01*
X171186705Y-151578104D01*
X170925639Y-151623783D01*
X170689197Y-151544028D01*
X170524342Y-151446962D01*
X170418310Y-151336734D01*
X170358133Y-151175715D01*
X170330846Y-150926273D01*
X170323482Y-150550779D01*
X170323296Y-150482131D01*
X170327474Y-150115128D01*
X170347196Y-149875575D01*
X170390900Y-149721737D01*
X170467022Y-149611880D01*
X170507297Y-149571964D01*
X170787761Y-149399675D01*
X171070038Y-149395427D01*
X171341537Y-149558545D01*
G37*
%TD.AperFunction*%
%TA.AperFunction,EtchedComponent*%
G36*
X160525497Y-145590692D02*
G01*
X160754666Y-145770956D01*
X160754666Y-150499999D01*
X160754666Y-155229042D01*
X160531581Y-155404521D01*
X160334189Y-155526928D01*
X160165902Y-155579940D01*
X160161999Y-155579999D01*
X159996192Y-155529958D01*
X159798295Y-155409105D01*
X159792417Y-155404521D01*
X159569333Y-155229042D01*
X159569333Y-150506976D01*
X159569619Y-149489819D01*
X159570749Y-148628616D01*
X159573131Y-147909987D01*
X159577175Y-147320555D01*
X159583287Y-146846939D01*
X159591877Y-146475761D01*
X159603352Y-146193642D01*
X159618121Y-145987203D01*
X159636592Y-145843065D01*
X159659173Y-145747849D01*
X159686273Y-145688176D01*
X159717499Y-145651385D01*
X160005504Y-145481007D01*
X160297705Y-145474007D01*
X160525497Y-145590692D01*
G37*
%TD.AperFunction*%
%TA.AperFunction,EtchedComponent*%
G36*
X178799208Y-149342790D02*
G01*
X179054453Y-149476519D01*
X179145332Y-149562001D01*
X179203555Y-149665527D01*
X179236324Y-149823982D01*
X179250843Y-150074251D01*
X179254315Y-150453222D01*
X179254333Y-150499999D01*
X179251574Y-150893990D01*
X179238495Y-151155562D01*
X179207892Y-151321601D01*
X179152562Y-151428992D01*
X179065301Y-151514622D01*
X179054453Y-151523480D01*
X178767861Y-151667899D01*
X178481771Y-151659436D01*
X178235006Y-151500880D01*
X178202144Y-151462248D01*
X178116004Y-151327291D01*
X178063082Y-151161529D01*
X178035888Y-150922230D01*
X178026933Y-150566664D01*
X178026666Y-150461006D01*
X178030634Y-150085504D01*
X178048073Y-149838485D01*
X178087286Y-149679181D01*
X178156575Y-149566822D01*
X178222623Y-149498758D01*
X178498841Y-149341280D01*
X178799208Y-149342790D01*
G37*
%TD.AperFunction*%
%TA.AperFunction,EtchedComponent*%
G36*
X163584041Y-149440286D02*
G01*
X163679514Y-149522484D01*
X163779080Y-149636505D01*
X163840635Y-149763625D01*
X163873172Y-149946132D01*
X163885680Y-150226316D01*
X163887333Y-150499999D01*
X163883430Y-150872663D01*
X163865727Y-151118349D01*
X163825235Y-151279347D01*
X163752962Y-151397945D01*
X163679514Y-151477514D01*
X163473167Y-151621901D01*
X163260004Y-151685210D01*
X163252333Y-151685333D01*
X163041225Y-151626633D01*
X162832432Y-151484666D01*
X162825151Y-151477514D01*
X162724682Y-151362133D01*
X162662971Y-151233231D01*
X162630740Y-151047853D01*
X162618713Y-150763041D01*
X162617333Y-150515266D01*
X162623529Y-150131095D01*
X162647355Y-149872212D01*
X162696667Y-149694855D01*
X162779321Y-149555262D01*
X162792811Y-149537751D01*
X163029385Y-149353490D01*
X163305535Y-149320788D01*
X163584041Y-149440286D01*
G37*
%TD.AperFunction*%
%TA.AperFunction,EtchedComponent*%
G36*
X141887894Y-146810383D02*
G01*
X142124701Y-146959964D01*
X142168032Y-147011631D01*
X142203435Y-147075466D01*
X142231710Y-147167879D01*
X142253657Y-147305277D01*
X142270076Y-147504069D01*
X142281768Y-147780662D01*
X142289532Y-148151466D01*
X142294169Y-148632888D01*
X142296479Y-149241336D01*
X142297263Y-149993219D01*
X142297333Y-150499999D01*
X142297067Y-151342331D01*
X142295738Y-152031739D01*
X142292544Y-152584629D01*
X142286686Y-153017411D01*
X142277363Y-153346493D01*
X142263776Y-153588283D01*
X142245123Y-153759189D01*
X142220606Y-153875620D01*
X142189423Y-153953983D01*
X142150775Y-154010687D01*
X142124701Y-154040034D01*
X141876387Y-154193227D01*
X141579268Y-154209640D01*
X141300171Y-154093532D01*
X141111999Y-153961731D01*
X141111999Y-150499999D01*
X141111999Y-147038268D01*
X141300171Y-146906467D01*
X141591677Y-146788299D01*
X141887894Y-146810383D01*
G37*
%TD.AperFunction*%
%TA.AperFunction,EtchedComponent*%
G36*
X146669595Y-148809904D02*
G01*
X146853806Y-149018280D01*
X146857662Y-149026531D01*
X146897138Y-149202345D01*
X146927461Y-149521900D01*
X146946968Y-149959768D01*
X146953997Y-150490522D01*
X146953999Y-150499999D01*
X146947192Y-151032084D01*
X146927879Y-151471706D01*
X146897723Y-151793439D01*
X146858386Y-151971855D01*
X146857662Y-151973468D01*
X146677223Y-152184863D01*
X146411308Y-152291117D01*
X146123553Y-152267340D01*
X146114575Y-152264109D01*
X145965887Y-152197991D01*
X145856430Y-152109169D01*
X145780253Y-151972964D01*
X145731410Y-151764695D01*
X145703950Y-151459683D01*
X145691927Y-151033247D01*
X145689385Y-150499999D01*
X145692326Y-149937012D01*
X145705115Y-149518633D01*
X145733700Y-149220183D01*
X145784030Y-149016982D01*
X145862053Y-148884349D01*
X145973718Y-148797605D01*
X146114575Y-148735890D01*
X146401973Y-148707478D01*
X146669595Y-148809904D01*
G37*
%TD.AperFunction*%
%TA.AperFunction,EtchedComponent*%
G36*
X161896949Y-147698245D02*
G01*
X162130914Y-147839637D01*
X162271717Y-148061127D01*
X162299685Y-148232987D01*
X162321093Y-148561654D01*
X162335609Y-149034716D01*
X162342903Y-149639762D01*
X162342641Y-150364378D01*
X162340713Y-150642858D01*
X162320999Y-152970118D01*
X162083445Y-153174392D01*
X161876561Y-153326144D01*
X161701265Y-153363638D01*
X161479584Y-153301730D01*
X161458701Y-153293408D01*
X161269976Y-153161610D01*
X161183534Y-153050341D01*
X161156403Y-152915133D01*
X161133977Y-152637733D01*
X161116256Y-152245214D01*
X161103243Y-151764647D01*
X161094941Y-151223106D01*
X161091350Y-150647664D01*
X161092474Y-150065392D01*
X161098314Y-149503364D01*
X161108872Y-148988652D01*
X161124150Y-148548329D01*
X161144151Y-148209467D01*
X161168877Y-147999139D01*
X161183147Y-147950380D01*
X161373066Y-147748530D01*
X161627667Y-147666180D01*
X161896949Y-147698245D01*
G37*
%TD.AperFunction*%
%TA.AperFunction,EtchedComponent*%
G36*
X140325398Y-148965755D02*
G01*
X140421951Y-149011758D01*
X140610357Y-149141120D01*
X140720239Y-149274845D01*
X140720739Y-149276126D01*
X140740680Y-149409691D01*
X140757150Y-149675404D01*
X140768552Y-150036086D01*
X140773287Y-150454563D01*
X140773333Y-150499999D01*
X140769384Y-150922360D01*
X140758602Y-151290801D01*
X140742586Y-151568146D01*
X140722932Y-151717218D01*
X140720739Y-151723873D01*
X140611748Y-151858377D01*
X140428610Y-151984797D01*
X140252768Y-152074003D01*
X140148365Y-152095924D01*
X140032560Y-152053062D01*
X139928334Y-151999916D01*
X139763839Y-151888980D01*
X139648080Y-151731209D01*
X139573332Y-151498568D01*
X139531869Y-151163022D01*
X139515968Y-150696538D01*
X139515011Y-150499999D01*
X139523795Y-149982041D01*
X139555523Y-149604702D01*
X139618259Y-149339921D01*
X139720064Y-149159641D01*
X139869004Y-149035800D01*
X139947856Y-148993722D01*
X140143419Y-148929371D01*
X140325398Y-148965755D01*
G37*
%TD.AperFunction*%
%TA.AperFunction,EtchedComponent*%
G36*
X177442354Y-148880181D02*
G01*
X177547877Y-148961499D01*
X177601068Y-149043559D01*
X177639202Y-149171099D01*
X177664617Y-149370021D01*
X177679648Y-149666230D01*
X177686633Y-150085628D01*
X177687999Y-150514710D01*
X177686247Y-151038999D01*
X177679225Y-151420285D01*
X177664284Y-151684880D01*
X177638779Y-151859093D01*
X177600059Y-151969235D01*
X177545478Y-152041618D01*
X177533166Y-152053210D01*
X177302062Y-152170835D01*
X177024504Y-152191892D01*
X176770034Y-152120100D01*
X176634467Y-152005160D01*
X176582151Y-151897705D01*
X176545083Y-151731254D01*
X176521009Y-151479736D01*
X176507672Y-151117077D01*
X176502819Y-150617205D01*
X176502666Y-150481160D01*
X176504294Y-149972401D01*
X176511268Y-149605098D01*
X176526722Y-149351389D01*
X176553791Y-149183412D01*
X176595610Y-149073304D01*
X176655313Y-148993203D01*
X176671999Y-148975999D01*
X176903521Y-148843006D01*
X177184282Y-148810670D01*
X177442354Y-148880181D01*
G37*
%TD.AperFunction*%
%TA.AperFunction,EtchedComponent*%
G36*
X169737687Y-148880181D02*
G01*
X169843210Y-148961499D01*
X169896401Y-149043559D01*
X169934536Y-149171099D01*
X169959950Y-149370021D01*
X169974981Y-149666230D01*
X169981967Y-150085628D01*
X169983333Y-150514710D01*
X169981580Y-151038999D01*
X169974558Y-151420285D01*
X169959618Y-151684880D01*
X169934112Y-151859093D01*
X169895392Y-151969235D01*
X169840812Y-152041618D01*
X169828499Y-152053210D01*
X169585397Y-152171560D01*
X169293832Y-152178481D01*
X169030523Y-152076575D01*
X168967333Y-152023999D01*
X168903447Y-151947449D01*
X168857926Y-151847564D01*
X168827700Y-151696722D01*
X168809699Y-151467301D01*
X168800855Y-151131681D01*
X168798098Y-150662238D01*
X168797999Y-150499999D01*
X168799582Y-149987336D01*
X168806378Y-149616371D01*
X168821455Y-149359482D01*
X168847882Y-149189048D01*
X168888729Y-149077448D01*
X168947065Y-148997059D01*
X168967333Y-148975999D01*
X169198854Y-148843006D01*
X169479616Y-148810670D01*
X169737687Y-148880181D01*
G37*
%TD.AperFunction*%
%TA.AperFunction,EtchedComponent*%
G36*
X151181936Y-148694745D02*
G01*
X151356666Y-148806666D01*
X151417284Y-148878572D01*
X151461474Y-148972047D01*
X151491806Y-149112789D01*
X151510850Y-149326496D01*
X151521177Y-149638867D01*
X151525355Y-150075600D01*
X151525999Y-150499999D01*
X151524745Y-151046813D01*
X151519269Y-151450000D01*
X151507001Y-151735258D01*
X151485372Y-151928287D01*
X151451811Y-152054784D01*
X151403750Y-152140447D01*
X151356666Y-152193333D01*
X151143087Y-152320793D01*
X150933333Y-152362666D01*
X150684729Y-152305254D01*
X150509999Y-152193333D01*
X150449381Y-152121426D01*
X150405191Y-152027951D01*
X150374859Y-151887210D01*
X150355815Y-151673503D01*
X150345488Y-151361132D01*
X150341310Y-150924399D01*
X150340666Y-150499999D01*
X150341920Y-149953185D01*
X150347396Y-149549998D01*
X150359664Y-149264740D01*
X150381293Y-149071712D01*
X150414854Y-148945215D01*
X150462915Y-148859551D01*
X150509999Y-148806666D01*
X150723578Y-148679205D01*
X150933333Y-148637333D01*
X151181936Y-148694745D01*
G37*
%TD.AperFunction*%
%TA.AperFunction,EtchedComponent*%
G36*
X174184893Y-148663228D02*
G01*
X174431657Y-148821784D01*
X174464521Y-148860417D01*
X174529509Y-148955100D01*
X174576196Y-149066737D01*
X174607574Y-149223263D01*
X174626632Y-149452615D01*
X174636360Y-149782727D01*
X174639747Y-150241537D01*
X174639999Y-150499999D01*
X174638505Y-151026494D01*
X174632028Y-151411602D01*
X174617579Y-151683260D01*
X174592168Y-151869404D01*
X174552805Y-151997969D01*
X174496500Y-152096890D01*
X174464521Y-152139581D01*
X174227530Y-152321616D01*
X173945073Y-152353999D01*
X173655976Y-152233940D01*
X173612212Y-152200815D01*
X173541449Y-152138334D01*
X173489730Y-152065593D01*
X173454073Y-151957196D01*
X173431491Y-151787745D01*
X173419000Y-151531844D01*
X173413616Y-151164095D01*
X173412354Y-150659103D01*
X173412333Y-150500002D01*
X173413005Y-149954619D01*
X173417014Y-149553171D01*
X173427342Y-149270262D01*
X173446976Y-149080496D01*
X173478898Y-148958475D01*
X173526095Y-148878802D01*
X173591551Y-148816081D01*
X173612212Y-148799187D01*
X173898803Y-148654766D01*
X174184893Y-148663228D01*
G37*
%TD.AperFunction*%
%TA.AperFunction,EtchedComponent*%
G36*
X157434899Y-148316110D02*
G01*
X157534034Y-148399297D01*
X157589826Y-148467855D01*
X157632123Y-148553023D01*
X157662786Y-148677423D01*
X157683673Y-148863676D01*
X157696643Y-149134404D01*
X157703555Y-149512227D01*
X157706268Y-150019767D01*
X157706666Y-150499999D01*
X157705884Y-151119861D01*
X157702300Y-151593014D01*
X157694055Y-151942078D01*
X157679288Y-152189675D01*
X157656143Y-152358426D01*
X157622759Y-152470951D01*
X157577278Y-152549873D01*
X157534034Y-152600701D01*
X157291401Y-152752425D01*
X157003461Y-152782172D01*
X156736126Y-152689421D01*
X156640288Y-152607777D01*
X156588158Y-152538843D01*
X156548592Y-152447467D01*
X156519876Y-152311266D01*
X156500297Y-152107854D01*
X156488144Y-151814848D01*
X156481702Y-151409864D01*
X156479259Y-150870517D01*
X156478999Y-150499999D01*
X156479946Y-149875306D01*
X156483930Y-149397558D01*
X156492662Y-149044369D01*
X156507857Y-148793355D01*
X156531226Y-148622133D01*
X156564483Y-148508317D01*
X156609341Y-148429525D01*
X156640288Y-148392221D01*
X156876927Y-148244292D01*
X157163768Y-148219095D01*
X157434899Y-148316110D01*
G37*
%TD.AperFunction*%
%TA.AperFunction,EtchedComponent*%
G36*
X145143710Y-146155018D02*
G01*
X145312141Y-146418356D01*
X145338183Y-146500939D01*
X145357374Y-146658949D01*
X145374680Y-146970359D01*
X145389768Y-147419242D01*
X145402308Y-147989673D01*
X145411967Y-148665724D01*
X145418415Y-149431471D01*
X145421319Y-150270986D01*
X145421452Y-150499999D01*
X145419527Y-151356128D01*
X145413971Y-152142641D01*
X145405117Y-152843611D01*
X145393296Y-153443113D01*
X145378840Y-153925218D01*
X145362081Y-154274002D01*
X145343350Y-154473539D01*
X145338183Y-154499059D01*
X145194299Y-154787478D01*
X144970730Y-154954513D01*
X144706712Y-154988627D01*
X144441485Y-154878283D01*
X144344091Y-154791376D01*
X144302000Y-154744092D01*
X144266869Y-154689899D01*
X144238071Y-154614091D01*
X144214975Y-154501958D01*
X144196952Y-154338793D01*
X144183374Y-154109888D01*
X144173611Y-153800535D01*
X144167034Y-153396026D01*
X144163013Y-152881653D01*
X144160920Y-152242709D01*
X144160125Y-151464485D01*
X144159999Y-150532273D01*
X144159999Y-150488134D01*
X144159999Y-146380850D01*
X144355956Y-146196758D01*
X144629123Y-146032917D01*
X144903873Y-146022771D01*
X145143710Y-146155018D01*
G37*
%TD.AperFunction*%
%TA.AperFunction,EtchedComponent*%
G36*
X166526238Y-142826585D02*
G01*
X166765999Y-142964666D01*
X166795546Y-142997299D01*
X166821440Y-143039441D01*
X166843922Y-143101815D01*
X166863232Y-143195146D01*
X166879613Y-143330159D01*
X166893304Y-143517577D01*
X166904547Y-143768124D01*
X166913583Y-144092526D01*
X166920653Y-144501506D01*
X166925998Y-145005789D01*
X166929858Y-145616099D01*
X166932475Y-146343160D01*
X166934090Y-147197696D01*
X166934944Y-148190433D01*
X166935278Y-149332093D01*
X166935333Y-150499999D01*
X166935262Y-151785366D01*
X166934888Y-152912124D01*
X166933971Y-153890997D01*
X166932269Y-154732710D01*
X166929542Y-155447986D01*
X166925548Y-156047551D01*
X166920047Y-156542128D01*
X166912797Y-156942442D01*
X166903558Y-157259217D01*
X166892088Y-157503177D01*
X166878147Y-157685046D01*
X166861493Y-157815550D01*
X166841886Y-157905411D01*
X166819084Y-157965356D01*
X166792846Y-158006106D01*
X166765999Y-158035333D01*
X166515326Y-158176442D01*
X166215257Y-158187512D01*
X165938171Y-158072865D01*
X165749999Y-157941064D01*
X165749999Y-150499999D01*
X165749999Y-143058934D01*
X165938171Y-142927133D01*
X166226913Y-142810480D01*
X166526238Y-142826585D01*
G37*
%TD.AperFunction*%
%TA.AperFunction,EtchedComponent*%
G36*
X168018082Y-147285122D02*
G01*
X168141226Y-147303063D01*
X168239020Y-147352348D01*
X168314386Y-147448837D01*
X168370244Y-147608389D01*
X168409517Y-147846863D01*
X168435126Y-148180120D01*
X168449992Y-148624018D01*
X168457037Y-149194416D01*
X168459182Y-149907175D01*
X168459333Y-150499999D01*
X168458880Y-151321971D01*
X168455575Y-151990468D01*
X168446496Y-152521351D01*
X168428722Y-152930479D01*
X168399331Y-153233711D01*
X168355401Y-153446907D01*
X168294012Y-153585926D01*
X168212241Y-153666627D01*
X168107168Y-153704870D01*
X167975870Y-153716515D01*
X167866666Y-153717333D01*
X167599717Y-153682566D01*
X167430526Y-153561916D01*
X167405800Y-153529160D01*
X167369416Y-153457289D01*
X167340238Y-153344990D01*
X167317508Y-153174891D01*
X167300473Y-152929619D01*
X167288375Y-152591804D01*
X167280459Y-152144071D01*
X167275969Y-151569050D01*
X167274149Y-150849367D01*
X167273999Y-150499999D01*
X167274452Y-149678028D01*
X167277756Y-149009530D01*
X167286835Y-148478647D01*
X167304610Y-148069520D01*
X167334001Y-147766287D01*
X167377930Y-147553092D01*
X167439320Y-147414073D01*
X167521090Y-147333371D01*
X167626164Y-147295128D01*
X167757461Y-147283484D01*
X167866666Y-147282666D01*
X168018082Y-147285122D01*
G37*
%TD.AperFunction*%
%TA.AperFunction,EtchedComponent*%
G36*
X175968169Y-145581795D02*
G01*
X175991368Y-145605297D01*
X176028456Y-145648919D01*
X176059813Y-145702757D01*
X176085919Y-145780445D01*
X176107257Y-145895614D01*
X176124305Y-146061897D01*
X176137546Y-146292926D01*
X176147459Y-146602333D01*
X176154526Y-147003752D01*
X176159228Y-147510813D01*
X176162045Y-148137150D01*
X176163458Y-148896395D01*
X176163948Y-149802181D01*
X176163999Y-150499999D01*
X176163859Y-151511916D01*
X176163120Y-152368131D01*
X176161299Y-153082278D01*
X176157917Y-153667989D01*
X176152492Y-154138896D01*
X176144545Y-154508631D01*
X176133593Y-154790826D01*
X176119156Y-154999115D01*
X176100754Y-155147130D01*
X176077905Y-155248502D01*
X176050129Y-155316864D01*
X176016945Y-155365849D01*
X175991368Y-155394701D01*
X175745743Y-155547040D01*
X175458709Y-155566662D01*
X175194927Y-155452343D01*
X175147999Y-155410666D01*
X175111714Y-155370081D01*
X175081019Y-155317773D01*
X175055446Y-155240197D01*
X175034529Y-155123814D01*
X175017800Y-154955082D01*
X175004792Y-154720459D01*
X174995038Y-154406403D01*
X174988070Y-153999372D01*
X174983421Y-153485826D01*
X174980625Y-152852222D01*
X174979212Y-152085019D01*
X174978717Y-151170676D01*
X174978666Y-150503297D01*
X174978666Y-145765262D01*
X175163964Y-145592631D01*
X175427833Y-145446173D01*
X175714201Y-145442841D01*
X175968169Y-145581795D01*
G37*
%TD.AperFunction*%
%TA.AperFunction,EtchedComponent*%
G36*
X152705936Y-144800078D02*
G01*
X152880666Y-144911999D01*
X152914764Y-144949977D01*
X152943950Y-144998950D01*
X152968604Y-145071524D01*
X152989109Y-145180306D01*
X153005846Y-145337902D01*
X153019199Y-145556920D01*
X153029548Y-145849964D01*
X153037276Y-146229643D01*
X153042765Y-146708562D01*
X153046397Y-147299328D01*
X153048554Y-148014548D01*
X153049617Y-148866828D01*
X153049970Y-149868774D01*
X153049999Y-150499999D01*
X153049878Y-151591274D01*
X153049260Y-152525821D01*
X153047762Y-153316249D01*
X153045003Y-153975162D01*
X153040602Y-154515169D01*
X153034175Y-154948874D01*
X153025340Y-155288886D01*
X153013717Y-155547809D01*
X152998922Y-155738252D01*
X152980574Y-155872819D01*
X152958291Y-155964119D01*
X152931691Y-156024756D01*
X152900391Y-156067339D01*
X152880666Y-156087999D01*
X152630052Y-156230503D01*
X152340621Y-156236082D01*
X152072852Y-156104976D01*
X152049964Y-156084701D01*
X151864666Y-155912069D01*
X151864666Y-150496701D01*
X151864787Y-149405782D01*
X151865406Y-148471586D01*
X151866905Y-147681502D01*
X151869666Y-147022920D01*
X151874072Y-146483229D01*
X151880506Y-146049818D01*
X151889348Y-145710077D01*
X151900983Y-145451395D01*
X151915791Y-145261162D01*
X151934156Y-145126766D01*
X151956460Y-145035599D01*
X151983085Y-144975048D01*
X152014414Y-144932503D01*
X152033999Y-144911999D01*
X152247578Y-144784538D01*
X152457333Y-144742666D01*
X152705936Y-144800078D01*
G37*
%TD.AperFunction*%
%TA.AperFunction,EtchedComponent*%
G36*
X155802282Y-143927192D02*
G01*
X155974610Y-144038396D01*
X156085324Y-144207933D01*
X156104582Y-144328292D01*
X156121869Y-144601416D01*
X156137185Y-145010749D01*
X156150528Y-145539735D01*
X156161896Y-146171817D01*
X156171290Y-146890439D01*
X156178706Y-147679045D01*
X156184144Y-148521078D01*
X156187603Y-149399982D01*
X156189081Y-150299201D01*
X156188577Y-151202177D01*
X156186089Y-152092355D01*
X156181617Y-152953179D01*
X156175159Y-153768092D01*
X156166713Y-154520537D01*
X156156279Y-155193958D01*
X156143854Y-155771800D01*
X156129439Y-156237505D01*
X156113030Y-156574516D01*
X156094628Y-156766279D01*
X156086329Y-156799468D01*
X155908488Y-157006877D01*
X155646879Y-157117331D01*
X155373155Y-157101099D01*
X155365786Y-157098449D01*
X155281591Y-157068359D01*
X155208516Y-157037046D01*
X155145774Y-156993043D01*
X155092580Y-156924882D01*
X155048147Y-156821099D01*
X155011687Y-156670225D01*
X154982416Y-156460794D01*
X154959545Y-156181341D01*
X154942289Y-155820397D01*
X154929861Y-155366497D01*
X154921475Y-154808174D01*
X154916344Y-154133962D01*
X154913681Y-153332393D01*
X154912700Y-152392001D01*
X154912614Y-151301320D01*
X154912666Y-150492578D01*
X154912743Y-149325116D01*
X154913193Y-148315096D01*
X154914342Y-147450627D01*
X154916519Y-146719818D01*
X154920051Y-146110778D01*
X154925265Y-145611615D01*
X154932488Y-145210439D01*
X154942048Y-144895357D01*
X154954273Y-144654480D01*
X154969489Y-144475916D01*
X154988024Y-144347774D01*
X155010206Y-144258163D01*
X155036362Y-144195191D01*
X155066819Y-144146967D01*
X155088144Y-144119084D01*
X155306676Y-143938654D01*
X155532644Y-143897296D01*
X155802282Y-143927192D01*
G37*
%TD.AperFunction*%
%TA.AperFunction,EtchedComponent*%
G36*
X158998142Y-144944090D02*
G01*
X159061333Y-144996666D01*
X159095681Y-145034940D01*
X159125042Y-145084293D01*
X159149805Y-145157435D01*
X159170362Y-145267080D01*
X159187104Y-145425941D01*
X159200423Y-145646728D01*
X159210709Y-145942155D01*
X159218354Y-146324935D01*
X159223749Y-146807779D01*
X159227284Y-147403400D01*
X159229352Y-148124510D01*
X159230343Y-148983823D01*
X159230648Y-149994049D01*
X159230666Y-150499999D01*
X159230541Y-151582106D01*
X159229907Y-152507592D01*
X159228371Y-153289170D01*
X159225542Y-153939551D01*
X159221031Y-154471449D01*
X159214445Y-154897576D01*
X159205392Y-155230643D01*
X159193483Y-155483365D01*
X159178326Y-155668452D01*
X159159530Y-155798617D01*
X159136703Y-155886574D01*
X159109455Y-155945033D01*
X159077394Y-155986708D01*
X159061333Y-156003333D01*
X158829811Y-156136326D01*
X158549049Y-156168662D01*
X158290978Y-156099150D01*
X158185455Y-156017832D01*
X158156957Y-155974801D01*
X158132571Y-155905156D01*
X158111980Y-155796438D01*
X158094868Y-155636190D01*
X158080921Y-155411952D01*
X158069823Y-155111268D01*
X158061258Y-154721677D01*
X158054911Y-154230723D01*
X158050466Y-153625947D01*
X158047608Y-152894890D01*
X158046021Y-152025095D01*
X158045389Y-151004103D01*
X158045333Y-150485288D01*
X158045531Y-149396552D01*
X158046359Y-148464594D01*
X158048171Y-147676858D01*
X158051319Y-147020789D01*
X158056155Y-146483831D01*
X158063030Y-146053430D01*
X158072298Y-145717030D01*
X158084311Y-145462076D01*
X158099421Y-145276012D01*
X158117980Y-145146282D01*
X158140341Y-145060332D01*
X158166855Y-145005607D01*
X158197877Y-144969550D01*
X158200166Y-144967455D01*
X158443268Y-144849105D01*
X158734833Y-144842184D01*
X158998142Y-144944090D01*
G37*
%TD.AperFunction*%
%TD*%
D11*
%TO.P,R37,1*%
%TO.N,Net-(R37-Pad1)*%
X40070000Y-97250000D03*
%TO.P,R37,2*%
%TO.N,GND*%
X50230000Y-97250000D03*
%TD*%
%TO.P,R55,1*%
%TO.N,Po*%
X158900000Y-100750000D03*
%TO.P,R55,2*%
%TO.N,P-*%
X148740000Y-100750000D03*
%TD*%
%TO.P,R52,1*%
%TO.N,P-*%
X137150000Y-110590000D03*
%TO.P,R52,2*%
%TO.N,Mo*%
X137150000Y-120750000D03*
%TD*%
%TO.P,R51,1*%
%TO.N,P-*%
X152320000Y-110250000D03*
%TO.P,R51,2*%
%TO.N,No*%
X162480000Y-110250000D03*
%TD*%
%TO.P,R50,1*%
%TO.N,P-*%
X147650000Y-95750000D03*
%TO.P,R50,2*%
%TO.N,Oo*%
X137490000Y-95750000D03*
%TD*%
%TO.P,R49,1*%
%TO.N,Oo*%
X130570000Y-105500000D03*
%TO.P,R49,2*%
%TO.N,O-*%
X140730000Y-105500000D03*
%TD*%
%TO.P,R48,1*%
%TO.N,Net-(R48-Pad1)*%
X162150000Y-125580000D03*
%TO.P,R48,2*%
%TO.N,No*%
X162150000Y-115420000D03*
%TD*%
%TO.P,R46,1*%
%TO.N,Net-(R46-Pad1)*%
X123650000Y-109920000D03*
%TO.P,R46,2*%
%TO.N,Mo*%
X123650000Y-120080000D03*
%TD*%
%TO.P,R44,1*%
%TO.N,O-*%
X140650000Y-102000000D03*
%TO.P,R44,2*%
%TO.N,J-*%
X130490000Y-102000000D03*
%TD*%
%TO.P,R43,1*%
%TO.N,L-*%
X122230000Y-139250000D03*
%TO.P,R43,2*%
%TO.N,Lo*%
X112070000Y-139250000D03*
%TD*%
%TO.P,R42,1*%
%TO.N,/T3*%
X47650000Y-121420000D03*
%TO.P,R42,2*%
%TO.N,Net-(R42-Pad2)*%
X47650000Y-131580000D03*
%TD*%
%TO.P,R41,1*%
%TO.N,L-*%
X126070000Y-139250000D03*
%TO.P,R41,2*%
%TO.N,GND*%
X136230000Y-139250000D03*
%TD*%
%TO.P,R40,1*%
%TO.N,/T2*%
X51551180Y-121422265D03*
%TO.P,R40,2*%
%TO.N,Net-(R40-Pad2)*%
X51551180Y-131582265D03*
%TD*%
%TO.P,R13,1*%
%TO.N,Net-(C25-Pad1)*%
X125980000Y-152750000D03*
%TO.P,R13,2*%
%TO.N,GND*%
X115820000Y-152750000D03*
%TD*%
%TO.P,R12,1*%
%TO.N,Net-(C25-Pad1)*%
X125980000Y-148500000D03*
%TO.P,R12,2*%
%TO.N,J-*%
X115820000Y-148500000D03*
%TD*%
%TO.P,R11,1*%
%TO.N,K-*%
X135560000Y-125250000D03*
%TO.P,R11,2*%
%TO.N,Ko*%
X125400000Y-125250000D03*
%TD*%
%TO.P,R10,1*%
%TO.N,K-*%
X135570000Y-130750000D03*
%TO.P,R10,2*%
%TO.N,GND*%
X145730000Y-130750000D03*
%TD*%
%TO.P,R9,1*%
%TO.N,Net-(C24-Pad2)*%
X38570000Y-66000000D03*
%TO.P,R9,2*%
%TO.N,Net-(R9-Pad2)*%
X48730000Y-66000000D03*
%TD*%
%TO.P,R8,1*%
%TO.N,J-*%
X109400000Y-120080000D03*
%TO.P,R8,2*%
%TO.N,/B13*%
X109400000Y-109920000D03*
%TD*%
%TO.P,R7,1*%
%TO.N,GND*%
X105650000Y-120400000D03*
%TO.P,R7,2*%
%TO.N,J+*%
X105650000Y-130560000D03*
%TD*%
%TO.P,R6,1*%
%TO.N,+16V*%
X182150000Y-127330000D03*
%TO.P,R6,2*%
%TO.N,VCC*%
X182150000Y-117170000D03*
%TD*%
%TO.P,R5,1*%
%TO.N,-16V*%
X187900000Y-133910000D03*
%TO.P,R5,2*%
%TO.N,VEE*%
X187900000Y-123750000D03*
%TD*%
D12*
%TO.P,IC6,1,-VO*%
%TO.N,Net-(IC6--SENSE)*%
X162710000Y-96000000D03*
D13*
%TO.P,IC6,2,-SENSE*%
X162710000Y-98540000D03*
%TO.P,IC6,3,GND*%
%TO.N,GND*%
X162710000Y-101080000D03*
%TO.P,IC6,4,V_IN*%
%TO.N,Po*%
X162710000Y-103620000D03*
%TO.P,IC6,5,V-*%
%TO.N,-16V*%
X170650000Y-103620000D03*
%TO.P,IC6,6,V+*%
%TO.N,+16V*%
X170650000Y-101080000D03*
%TO.P,IC6,7,+SENSE*%
%TO.N,Net-(IC6-+SENSE)*%
X170650000Y-98540000D03*
%TO.P,IC6,8,+VO*%
X170650000Y-96000000D03*
%TD*%
D12*
%TO.P,IC1,1,REF*%
%TO.N,GND*%
X150210000Y-67280000D03*
D13*
%TO.P,IC1,2,-IN*%
%TO.N,Net-(IC1--IN)*%
X147670000Y-67280000D03*
%TO.P,IC1,3,+IN*%
%TO.N,Net-(IC1-+IN)*%
X145130000Y-67280000D03*
%TO.P,IC1,4,V-*%
%TO.N,-16V*%
X142590000Y-67280000D03*
%TO.P,IC1,5,SENSE*%
%TO.N,Net-(IC1-OUTPUT)*%
X142590000Y-75220000D03*
%TO.P,IC1,6,OUTPUT*%
X145130000Y-75220000D03*
%TO.P,IC1,7,V+*%
%TO.N,+16V*%
X147670000Y-75220000D03*
%TO.P,IC1,8,NC*%
%TO.N,unconnected-(IC1-NC-Pad8)*%
X150210000Y-75220000D03*
%TD*%
D14*
%TO.P,J3,1,Pin_1*%
%TO.N,Lo*%
X80790000Y-102750000D03*
D15*
%TO.P,J3,2,Pin_2*%
%TO.N,/B2*%
X83330000Y-102750000D03*
%TO.P,J3,3,Pin_3*%
%TO.N,L+*%
X85870000Y-102750000D03*
%TO.P,J3,4,Pin_4*%
%TO.N,/B4*%
X88410000Y-102750000D03*
%TO.P,J3,5,Pin_5*%
%TO.N,Fo*%
X90950000Y-102750000D03*
%TO.P,J3,6,Pin_6*%
%TO.N,Eo*%
X93490000Y-102750000D03*
%TO.P,J3,7,Pin_7*%
%TO.N,/B7*%
X96030000Y-102750000D03*
%TO.P,J3,8,Pin_8*%
%TO.N,/B8*%
X98570000Y-102750000D03*
%TO.P,J3,9,Pin_9*%
%TO.N,Bo*%
X101110000Y-102750000D03*
%TO.P,J3,10,Pin_10*%
%TO.N,/B10*%
X103650000Y-102750000D03*
%TO.P,J3,11,Pin_11*%
%TO.N,Ao*%
X106190000Y-102750000D03*
%TO.P,J3,12,Pin_12*%
%TO.N,K+*%
X108730000Y-102750000D03*
%TO.P,J3,13,Pin_13*%
%TO.N,/B13*%
X111270000Y-102750000D03*
%TO.P,J3,14,Pin_14*%
%TO.N,Ko*%
X113810000Y-102750000D03*
%TO.P,J3,15,Pin_15*%
%TO.N,GND*%
X116350000Y-102750000D03*
%TO.P,J3,16,Pin_16*%
%TO.N,unconnected-(J3-Pin_16-Pad16)*%
X118890000Y-102750000D03*
%TO.P,J3,17,Pin_17*%
%TO.N,unconnected-(J3-Pin_17-Pad17)*%
X121430000Y-102750000D03*
%TD*%
D16*
%TO.P,J1,1,Pin_1*%
%TO.N,/CHASSIS*%
X198500000Y-75139000D03*
%TO.P,J1,2,Pin_2*%
%TO.N,/+OUT+4*%
X198500000Y-79099000D03*
%TO.P,J1,3,Pin_3*%
%TO.N,unconnected-(J1-Pin_3-Pad3)*%
X198500000Y-83059000D03*
%TO.P,J1,4,Pin_4*%
%TO.N,/-OUT*%
X198500000Y-87019000D03*
%TO.P,J1,5,Pin_5*%
%TO.N,GND*%
X198500000Y-90979000D03*
%TO.P,J1,6,Pin_6*%
%TO.N,unconnected-(J1-Pin_6-Pad6)_1*%
X198500000Y-94939000D03*
%TO.P,J1,7,Pin_7*%
%TO.N,unconnected-(J1-Pin_7-Pad7)_1*%
X198500000Y-98899000D03*
%TO.P,J1,8,Pin_8*%
%TO.N,/-IN+4*%
X198500000Y-102859000D03*
%TO.P,J1,9,Pin_9*%
%TO.N,unconnected-(J1-Pin_9-Pad9)_1*%
X198500000Y-106819000D03*
%TO.P,J1,10,Pin_10*%
%TO.N,/+IN+4*%
X198500000Y-110779000D03*
%TO.P,J1,11,Pin_11*%
%TO.N,unconnected-(J1-Pin_11-Pad11)*%
X198500000Y-114739000D03*
%TO.P,J1,12,Pin_12*%
%TO.N,VCC*%
X198500000Y-118699000D03*
%TO.P,J1,13,Pin_13*%
%TO.N,GND*%
X198500000Y-122659000D03*
%TO.P,J1,14,Pin_14*%
%TO.N,VEE*%
X198500000Y-126619000D03*
%TO.P,J1,15,Pin_15*%
%TO.N,unconnected-(J1-Pin_15-Pad15)_1*%
X198500000Y-130579000D03*
%TD*%
D11*
%TO.P,R25,1*%
%TO.N,Net-(R25-Pad1)*%
X40070000Y-106500000D03*
%TO.P,R25,2*%
%TO.N,GND*%
X50230000Y-106500000D03*
%TD*%
%TO.P,R36,1*%
%TO.N,B-*%
X102150000Y-69080000D03*
%TO.P,R36,2*%
%TO.N,/B10*%
X102150000Y-58920000D03*
%TD*%
D17*
%TO.P,IC4,1,OUT_A*%
%TO.N,unconnected-(IC4-OUT_A-Pad1)*%
X115726000Y-126880000D03*
%TO.P,IC4,2,-IN_A*%
%TO.N,unconnected-(IC4--IN_A-Pad2)*%
X115726000Y-128150000D03*
%TO.P,IC4,3,+_IN_A*%
%TO.N,unconnected-(IC4-+_IN_A-Pad3)*%
X115726000Y-129420000D03*
%TO.P,IC4,4,V+*%
%TO.N,+16V*%
X115726000Y-130690000D03*
%TO.P,IC4,5,+IN_B*%
%TO.N,J+*%
X115726000Y-131960000D03*
%TO.P,IC4,6,-_IN_B*%
%TO.N,J-*%
X115726000Y-133230000D03*
%TO.P,IC4,7,OUT_B*%
X115726000Y-134500000D03*
%TO.P,IC4,8,OUT_C*%
%TO.N,Lo*%
X121150000Y-134500000D03*
%TO.P,IC4,9,-IN_C*%
%TO.N,L-*%
X121150000Y-133230000D03*
%TO.P,IC4,10,+_IN_C*%
%TO.N,L+*%
X121150000Y-131960000D03*
%TO.P,IC4,11,V-*%
%TO.N,-16V*%
X121150000Y-130690000D03*
%TO.P,IC4,12,+IN_D*%
%TO.N,K+*%
X121150000Y-129420000D03*
%TO.P,IC4,13,-_IN_D*%
%TO.N,K-*%
X121150000Y-128150000D03*
%TO.P,IC4,14,OUT_D*%
%TO.N,Ko*%
X121150000Y-126880000D03*
%TD*%
D11*
%TO.P,R14,1*%
%TO.N,Net-(R14-Pad1)*%
X68070000Y-111250000D03*
%TO.P,R14,2*%
%TO.N,GND*%
X78230000Y-111250000D03*
%TD*%
%TO.P,C25,1*%
%TO.N,Net-(C25-Pad1)*%
X121400000Y-143250000D03*
%TO.P,C25,2*%
%TO.N,/B2*%
X126400000Y-143250000D03*
%TD*%
%TO.P,C47,1*%
%TO.N,/T12*%
X52900000Y-74500000D03*
%TO.P,C47,2*%
%TO.N,GND*%
X52900000Y-69500000D03*
%TD*%
%TO.P,R27,1*%
%TO.N,Net-(R27-Pad1)*%
X70150000Y-81500000D03*
%TO.P,R27,2*%
%TO.N,GND*%
X80310000Y-81500000D03*
%TD*%
%TO.P,R4,1*%
%TO.N,GND*%
X157650000Y-58670000D03*
%TO.P,R4,2*%
%TO.N,Net-(IC1-+IN)*%
X157650000Y-68830000D03*
%TD*%
%TO.P,C18,1*%
%TO.N,-16V*%
X180650000Y-133500000D03*
%TO.P,C18,2*%
%TO.N,GND*%
X180650000Y-138500000D03*
%TD*%
D18*
%TO.P,RV1,1,1*%
%TO.N,/T13*%
X40650000Y-72000000D03*
D19*
%TO.P,RV1,2,2*%
X40650000Y-74500000D03*
%TO.P,RV1,3,3*%
%TO.N,Net-(C24-Pad2)*%
X40650000Y-77000000D03*
%TO.P,RV1,4,4*%
%TO.N,Net-(R9-Pad2)*%
X43150000Y-72000000D03*
%TO.P,RV1,5,5*%
X43150000Y-74500000D03*
%TO.P,RV1,6,6*%
%TO.N,/T12*%
X43150000Y-77000000D03*
%TD*%
D11*
%TO.P,C2,1*%
%TO.N,H+*%
X103400000Y-139080000D03*
%TO.P,C2,2*%
%TO.N,Fo*%
X103400000Y-141580000D03*
%TD*%
%TO.P,C38,1*%
%TO.N,GND*%
X147900000Y-84000000D03*
%TO.P,C38,2*%
%TO.N,+16V*%
X147900000Y-79000000D03*
%TD*%
%TO.P,C33,1*%
%TO.N,N-*%
X152900000Y-115750000D03*
%TO.P,C33,2*%
%TO.N,No*%
X157900000Y-115750000D03*
%TD*%
D19*
%TO.P,RV6,6,6*%
%TO.N,Net-(R25-Pad1)*%
X43304246Y-121488881D03*
%TO.P,RV6,5,5*%
%TO.N,/T4*%
X43304246Y-118988881D03*
%TO.P,RV6,4,4*%
%TO.N,/T5*%
X43304246Y-116488881D03*
%TO.P,RV6,3,3*%
%TO.N,Net-(R21-Pad1)*%
X40804246Y-121488881D03*
%TO.P,RV6,2,2*%
%TO.N,/T7*%
X40804246Y-118988881D03*
D18*
%TO.P,RV6,1,1*%
%TO.N,/T6*%
X40804246Y-116488881D03*
%TD*%
D20*
%TO.P,RV8,1,1*%
%TO.N,Net-(U1--)*%
X63400000Y-94500000D03*
D19*
%TO.P,RV8,2,2*%
%TO.N,Net-(R30-Pad2)*%
X63400000Y-97000000D03*
%TO.P,RV8,3,3*%
%TO.N,Do*%
X63400000Y-99500000D03*
%TD*%
D11*
%TO.P,C12,1*%
%TO.N,GND*%
X143150000Y-84000000D03*
%TO.P,C12,2*%
%TO.N,+16V*%
X143150000Y-79000000D03*
%TD*%
%TO.P,C13,1*%
%TO.N,GND*%
X95900000Y-155580000D03*
%TO.P,C13,2*%
%TO.N,+16V*%
X95900000Y-150580000D03*
%TD*%
%TO.P,R38,1*%
%TO.N,C-*%
X99150000Y-83420000D03*
%TO.P,R38,2*%
%TO.N,/B8*%
X99150000Y-93580000D03*
%TD*%
D14*
%TO.P,J2,1,Pin_1*%
%TO.N,/T1*%
X56150000Y-128040000D03*
D15*
%TO.P,J2,2,Pin_2*%
%TO.N,/T2*%
X56150000Y-125500000D03*
%TO.P,J2,3,Pin_3*%
%TO.N,/T3*%
X56150000Y-122960000D03*
%TO.P,J2,4,Pin_4*%
%TO.N,/T4*%
X56150000Y-120420000D03*
%TO.P,J2,5,Pin_5*%
%TO.N,/T5*%
X56150000Y-117880000D03*
%TO.P,J2,6,Pin_6*%
%TO.N,/T6*%
X56150000Y-115340000D03*
%TO.P,J2,7,Pin_7*%
%TO.N,/T7*%
X56150000Y-112800000D03*
%TO.P,J2,8,Pin_8*%
%TO.N,/T8*%
X56150000Y-110260000D03*
%TO.P,J2,9,Pin_9*%
%TO.N,/T9*%
X56150000Y-107720000D03*
%TO.P,J2,10,Pin_10*%
%TO.N,/T10*%
X56150000Y-105180000D03*
%TO.P,J2,11,Pin_11*%
%TO.N,/T11*%
X56150000Y-102640000D03*
%TO.P,J2,12,Pin_12*%
%TO.N,/T12*%
X56150000Y-100100000D03*
%TO.P,J2,13,Pin_13*%
%TO.N,/T13*%
X56150000Y-97560000D03*
%TO.P,J2,14,Pin_14*%
%TO.N,/T14*%
X56150000Y-95020000D03*
%TO.P,J2,15,Pin_15*%
%TO.N,GND*%
X56150000Y-92480000D03*
%TO.P,J2,16,Pin_16*%
%TO.N,unconnected-(J2-Pin_16-Pad16)*%
X56150000Y-89940000D03*
%TO.P,J2,17,Pin_17*%
%TO.N,unconnected-(J2-Pin_17-Pad17)*%
X56150000Y-87400000D03*
%TD*%
D11*
%TO.P,R54,1*%
%TO.N,P-*%
X128400000Y-109920000D03*
%TO.P,R54,2*%
%TO.N,Ko*%
X128400000Y-120080000D03*
%TD*%
%TO.P,R29,1*%
%TO.N,Net-(U1--)*%
X111700000Y-82402000D03*
%TO.P,R29,2*%
%TO.N,D-*%
X111700000Y-92562000D03*
%TD*%
%TO.P,C34,1*%
%TO.N,+16V*%
X175650000Y-99500000D03*
%TO.P,C34,2*%
%TO.N,GND*%
X175650000Y-104500000D03*
%TD*%
%TO.P,R24,1*%
%TO.N,F-*%
X101070000Y-155080000D03*
%TO.P,R24,2*%
%TO.N,/B7*%
X111230000Y-155080000D03*
%TD*%
%TO.P,C20,1*%
%TO.N,GND*%
X176900000Y-121000000D03*
%TO.P,C20,2*%
%TO.N,+16V*%
X176900000Y-126000000D03*
%TD*%
%TO.P,R16,1*%
%TO.N,Do*%
X67990000Y-122250000D03*
%TO.P,R16,2*%
%TO.N,H-*%
X78150000Y-122250000D03*
%TD*%
D21*
%TO.P,IC2,1,OUT_A*%
%TO.N,Eo*%
X91340000Y-144980000D03*
%TO.P,IC2,2,-IN_A*%
%TO.N,E-*%
X92610000Y-144980000D03*
%TO.P,IC2,3,+_IN_A*%
%TO.N,E+*%
X93880000Y-144980000D03*
%TO.P,IC2,4,V+*%
%TO.N,+16V*%
X95150000Y-144980000D03*
%TO.P,IC2,5,+IN_B*%
%TO.N,GND*%
X96420000Y-144980000D03*
%TO.P,IC2,6,-_IN_B*%
%TO.N,F-*%
X97690000Y-144980000D03*
%TO.P,IC2,7,OUT_B*%
%TO.N,Fo*%
X98960000Y-144980000D03*
%TO.P,IC2,8,OUT_C*%
%TO.N,Ho*%
X98960000Y-139556000D03*
%TO.P,IC2,9,-IN_C*%
%TO.N,H-*%
X97690000Y-139556000D03*
%TO.P,IC2,10,+_IN_C*%
%TO.N,H+*%
X96420000Y-139556000D03*
%TO.P,IC2,11,V-*%
%TO.N,-16V*%
X95150000Y-139556000D03*
%TO.P,IC2,12,+IN_D*%
%TO.N,GND*%
X93880000Y-139556000D03*
%TO.P,IC2,13,-_IN_D*%
%TO.N,G-*%
X92610000Y-139556000D03*
%TO.P,IC2,14,OUT_D*%
%TO.N,Go*%
X91340000Y-139556000D03*
%TD*%
D11*
%TO.P,C43,1*%
%TO.N,C-*%
X94900000Y-88250000D03*
%TO.P,C43,2*%
%TO.N,Co*%
X89900000Y-88250000D03*
%TD*%
D22*
%TO.P,U1,1,NC*%
%TO.N,unconnected-(U1-NC-Pad1)*%
X134361000Y-75405000D03*
%TO.P,U1,2,-*%
%TO.N,Net-(U1--)*%
X134361000Y-74135000D03*
%TO.P,U1,3,+*%
%TO.N,Net-(IC1-OUTPUT)*%
X134361000Y-72865000D03*
%TO.P,U1,4,V-*%
%TO.N,-16V*%
X134361000Y-71595000D03*
%TO.P,U1,5,NC*%
%TO.N,unconnected-(U1-NC-Pad5)*%
X128939000Y-71595000D03*
%TO.P,U1,6*%
%TO.N,Net-(U1--)*%
X128939000Y-72865000D03*
%TO.P,U1,7,V+*%
%TO.N,+16V*%
X128939000Y-74135000D03*
%TO.P,U1,8,NC*%
%TO.N,unconnected-(U1-NC-Pad8)*%
X128939000Y-75405000D03*
%TD*%
D11*
%TO.P,C11,1*%
%TO.N,GND*%
X147900000Y-57500000D03*
%TO.P,C11,2*%
%TO.N,-16V*%
X147900000Y-62500000D03*
%TD*%
%TO.P,R17,1*%
%TO.N,E+*%
X78150000Y-126500000D03*
%TO.P,R17,2*%
%TO.N,Net-(R17-Pad2)*%
X67990000Y-126500000D03*
%TD*%
%TO.P,C15,1*%
%TO.N,GND*%
X110900000Y-68250000D03*
%TO.P,C15,2*%
%TO.N,+16V*%
X105900000Y-68250000D03*
%TD*%
D23*
%TO.P,FB4,1*%
%TO.N,Net-(C35-Pad1)*%
X183110000Y-90680000D03*
%TO.P,FB4,2*%
%TO.N,/-OUT*%
X188190000Y-90680000D03*
%TD*%
D11*
%TO.P,C26,1*%
%TO.N,/B2*%
X129900000Y-135000000D03*
%TO.P,C26,2*%
%TO.N,L+*%
X124900000Y-135000000D03*
%TD*%
%TO.P,R1,1*%
%TO.N,/-IN*%
X174900000Y-75080000D03*
%TO.P,R1,2*%
%TO.N,Net-(C1-Pad1)*%
X174900000Y-64920000D03*
%TD*%
D20*
%TO.P,RV3,1,1*%
%TO.N,Net-(R46-Pad1)*%
X63400000Y-64472119D03*
D19*
%TO.P,RV3,2,2*%
%TO.N,M-*%
X63400000Y-66972119D03*
%TO.P,RV3,3,3*%
%TO.N,Net-(R45-Pad2)*%
X63400000Y-69472119D03*
%TD*%
D11*
%TO.P,C39,1*%
%TO.N,B-*%
X98150000Y-69000000D03*
%TO.P,C39,2*%
%TO.N,Bo*%
X93150000Y-69000000D03*
%TD*%
D18*
%TO.P,RV4,1,1*%
%TO.N,Net-(R42-Pad2)*%
X40900000Y-131500000D03*
D19*
%TO.P,RV4,2,2*%
X40900000Y-134000000D03*
%TO.P,RV4,3,3*%
%TO.N,GND*%
X40900000Y-136500000D03*
%TO.P,RV4,4,4*%
%TO.N,Net-(R40-Pad2)*%
X43400000Y-131500000D03*
%TO.P,RV4,5,5*%
X43400000Y-134000000D03*
%TO.P,RV4,6,6*%
%TO.N,/T1*%
X43400000Y-136500000D03*
%TD*%
D11*
%TO.P,C48,1*%
%TO.N,GND*%
X129150000Y-67750000D03*
%TO.P,C48,2*%
%TO.N,-16V*%
X134150000Y-67750000D03*
%TD*%
D23*
%TO.P,FB1,1*%
%TO.N,/-IN+4*%
X188190000Y-102500000D03*
%TO.P,FB1,2*%
%TO.N,/-IN*%
X183110000Y-102500000D03*
%TD*%
D11*
%TO.P,C40,1*%
%TO.N,B-*%
X98150000Y-64000000D03*
%TO.P,C40,2*%
%TO.N,Bo*%
X93150000Y-64000000D03*
%TD*%
%TO.P,C8,1*%
%TO.N,B-*%
X98150000Y-59000000D03*
%TO.P,C8,2*%
%TO.N,Bo*%
X93150000Y-59000000D03*
%TD*%
%TO.P,C19,1*%
%TO.N,GND*%
X169650000Y-121000000D03*
%TO.P,C19,2*%
%TO.N,+16V*%
X169650000Y-126000000D03*
%TD*%
%TO.P,R33,1*%
%TO.N,D+*%
X120200000Y-82420000D03*
%TO.P,R33,2*%
%TO.N,GND*%
X120200000Y-92580000D03*
%TD*%
%TO.P,R3,1*%
%TO.N,/+IN*%
X179900000Y-73330000D03*
%TO.P,R3,2*%
%TO.N,Net-(C10-Pad1)*%
X179900000Y-63170000D03*
%TD*%
%TO.P,R26,1*%
%TO.N,G-*%
X90150000Y-134910000D03*
%TO.P,R26,2*%
%TO.N,/B4*%
X90150000Y-124750000D03*
%TD*%
%TO.P,R32,1*%
%TO.N,Ao*%
X119730000Y-72000000D03*
%TO.P,R32,2*%
%TO.N,A-*%
X109570000Y-72000000D03*
%TD*%
%TO.P,C4,1*%
%TO.N,Net-(C1-Pad1)*%
X169150000Y-71000000D03*
%TO.P,C4,2*%
%TO.N,Net-(IC1--IN)*%
X165650000Y-71000000D03*
%TD*%
%TO.P,C9,1*%
%TO.N,C-*%
X94900000Y-93250000D03*
%TO.P,C9,2*%
%TO.N,Co*%
X89900000Y-93250000D03*
%TD*%
%TO.P,C27,1*%
%TO.N,/T14*%
X52400000Y-79000000D03*
%TO.P,C27,2*%
%TO.N,Net-(C24-Pad2)*%
X47400000Y-79000000D03*
%TD*%
%TO.P,C14,1*%
%TO.N,GND*%
X95400000Y-128080000D03*
%TO.P,C14,2*%
%TO.N,-16V*%
X95400000Y-133080000D03*
%TD*%
%TO.P,C35,1*%
%TO.N,Net-(C35-Pad1)*%
X176650000Y-88750000D03*
%TO.P,C35,2*%
%TO.N,GND*%
X176650000Y-93750000D03*
%TD*%
D20*
%TO.P,RV5,1,1*%
%TO.N,Do*%
X63400000Y-124000000D03*
D19*
%TO.P,RV5,2,2*%
%TO.N,Net-(R17-Pad2)*%
X63400000Y-126500000D03*
%TO.P,RV5,3,3*%
%TO.N,Ho*%
X63400000Y-129000000D03*
%TD*%
D11*
%TO.P,C46,1*%
%TO.N,/T12*%
X48850000Y-74500000D03*
%TO.P,C46,2*%
%TO.N,GND*%
X48850000Y-69500000D03*
%TD*%
%TO.P,R53,1*%
%TO.N,P-*%
X151650000Y-119920000D03*
%TO.P,R53,2*%
%TO.N,Lo*%
X151650000Y-130080000D03*
%TD*%
%TO.P,R34,1*%
%TO.N,Net-(R34-Pad1)*%
X40070000Y-102000000D03*
%TO.P,R34,2*%
%TO.N,GND*%
X50230000Y-102000000D03*
%TD*%
%TO.P,R15,1*%
%TO.N,E-*%
X78230000Y-115250000D03*
%TO.P,R15,2*%
%TO.N,Net-(R15-Pad2)*%
X68070000Y-115250000D03*
%TD*%
%TO.P,C44,1*%
%TO.N,G-*%
X85650000Y-135400000D03*
%TO.P,C44,2*%
%TO.N,Go*%
X85650000Y-140400000D03*
%TD*%
%TO.P,C22,1*%
%TO.N,GND*%
X129650000Y-130500000D03*
%TO.P,C22,2*%
%TO.N,-16V*%
X124650000Y-130500000D03*
%TD*%
%TO.P,C28,1*%
%TO.N,P-*%
X150150000Y-104750000D03*
%TO.P,C28,2*%
%TO.N,Po*%
X155150000Y-104750000D03*
%TD*%
%TO.P,C24,1*%
%TO.N,/T14*%
X52410000Y-83950000D03*
%TO.P,C24,2*%
%TO.N,Net-(C24-Pad2)*%
X47410000Y-83950000D03*
%TD*%
D24*
%TO.P,SW1,1,A*%
%TO.N,Net-(IC6--SENSE)*%
X166350000Y-87500000D03*
D25*
%TO.P,SW1,2,B*%
%TO.N,Net-(C35-Pad1)*%
X166350000Y-85000000D03*
%TO.P,SW1,3,C*%
%TO.N,/-IN*%
X166350000Y-82500000D03*
%TO.P,SW1,4,A*%
%TO.N,/+IN*%
X169650000Y-82500000D03*
%TO.P,SW1,5,B*%
%TO.N,Net-(C36-Pad2)*%
X169650000Y-85000000D03*
%TO.P,SW1,6,C*%
%TO.N,Net-(IC6-+SENSE)*%
X169650000Y-87500000D03*
%TD*%
D11*
%TO.P,C45,1*%
%TO.N,GND*%
X131650000Y-83000000D03*
%TO.P,C45,2*%
%TO.N,+16V*%
X131650000Y-78000000D03*
%TD*%
%TO.P,C41,1*%
%TO.N,F-*%
X108650000Y-150080000D03*
%TO.P,C41,2*%
%TO.N,Fo*%
X108650000Y-145080000D03*
%TD*%
D20*
%TO.P,RV7,1,1*%
%TO.N,A+*%
X63400000Y-79500000D03*
D19*
%TO.P,RV7,2,2*%
%TO.N,Net-(R27-Pad1)*%
X63400000Y-82000000D03*
%TO.P,RV7,3,3*%
%TO.N,Net-(R28-Pad2)*%
X63400000Y-84500000D03*
%TD*%
D11*
%TO.P,R28,1*%
%TO.N,A-*%
X80310000Y-85250000D03*
%TO.P,R28,2*%
%TO.N,Net-(R28-Pad2)*%
X70150000Y-85250000D03*
%TD*%
D23*
%TO.P,FB3,1*%
%TO.N,Net-(C36-Pad2)*%
X183110000Y-81750000D03*
%TO.P,FB3,2*%
%TO.N,/+OUT+4*%
X188190000Y-81750000D03*
%TD*%
D20*
%TO.P,RV2,1,1*%
%TO.N,E+*%
X63400000Y-109000000D03*
D19*
%TO.P,RV2,2,2*%
%TO.N,Net-(R14-Pad1)*%
X63400000Y-111500000D03*
%TO.P,RV2,3,3*%
%TO.N,Net-(R15-Pad2)*%
X63400000Y-114000000D03*
%TD*%
D11*
%TO.P,C21,1*%
%TO.N,GND*%
X111650000Y-125250000D03*
%TO.P,C21,2*%
%TO.N,+16V*%
X111650000Y-130250000D03*
%TD*%
%TO.P,C16,1*%
%TO.N,GND*%
X103150000Y-88000000D03*
%TO.P,C16,2*%
%TO.N,-16V*%
X103150000Y-83000000D03*
%TD*%
%TO.P,C36,1*%
%TO.N,GND*%
X177900000Y-79000000D03*
%TO.P,C36,2*%
%TO.N,Net-(C36-Pad2)*%
X177900000Y-84000000D03*
%TD*%
%TO.P,R19,1*%
%TO.N,Eo*%
X80410000Y-149500000D03*
%TO.P,R19,2*%
%TO.N,E-*%
X90570000Y-149500000D03*
%TD*%
D23*
%TO.P,FB2,1*%
%TO.N,/+IN+4*%
X188190000Y-111000000D03*
%TO.P,FB2,2*%
%TO.N,/+IN*%
X183110000Y-111000000D03*
%TD*%
D11*
%TO.P,R31,1*%
%TO.N,A+*%
X85990000Y-73750000D03*
%TO.P,R31,2*%
%TO.N,Bo*%
X96150000Y-73750000D03*
%TD*%
D20*
%TO.P,RV10,1,1*%
%TO.N,Net-(R48-Pad1)*%
X63400000Y-139000000D03*
D19*
%TO.P,RV10,2,2*%
%TO.N,N-*%
X63400000Y-141500000D03*
%TO.P,RV10,3,3*%
%TO.N,Net-(R47-Pad2)*%
X63400000Y-144000000D03*
%TD*%
D11*
%TO.P,C1,1*%
%TO.N,Net-(C1-Pad1)*%
X176150000Y-58000000D03*
%TO.P,C1,2*%
%TO.N,/CHASSIS*%
X181150000Y-58000000D03*
%TD*%
%TO.P,R22,1*%
%TO.N,H-*%
X78150000Y-130750000D03*
%TO.P,R22,2*%
%TO.N,Ho*%
X67990000Y-130750000D03*
%TD*%
%TO.P,C23,1*%
%TO.N,Ho*%
X104650000Y-134500000D03*
%TO.P,C23,2*%
%TO.N,J+*%
X109650000Y-134500000D03*
%TD*%
%TO.P,R35,1*%
%TO.N,Co*%
X115950000Y-82420000D03*
%TO.P,R35,2*%
%TO.N,A-*%
X115950000Y-92580000D03*
%TD*%
%TO.P,C10,1*%
%TO.N,Net-(C10-Pad1)*%
X169650000Y-60500000D03*
%TO.P,C10,2*%
%TO.N,Net-(IC1-+IN)*%
X166150000Y-60500000D03*
%TD*%
%TO.P,C17,1*%
%TO.N,-16V*%
X173150000Y-133500000D03*
%TO.P,C17,2*%
%TO.N,GND*%
X173150000Y-138500000D03*
%TD*%
%TO.P,R47,1*%
%TO.N,Lo*%
X118900000Y-120080000D03*
%TO.P,R47,2*%
%TO.N,Net-(R47-Pad2)*%
X118900000Y-109920000D03*
%TD*%
%TO.P,R30,1*%
%TO.N,A+*%
X70150000Y-77750000D03*
%TO.P,R30,2*%
%TO.N,Net-(R30-Pad2)*%
X80310000Y-77750000D03*
%TD*%
%TO.P,C32,1*%
%TO.N,-16V*%
X170650000Y-108250000D03*
%TO.P,C32,2*%
%TO.N,GND*%
X175650000Y-108250000D03*
%TD*%
%TO.P,R20,1*%
%TO.N,H+*%
X100150000Y-135160000D03*
%TO.P,R20,2*%
%TO.N,GND*%
X100150000Y-125000000D03*
%TD*%
%TO.P,C5,1*%
%TO.N,Net-(C10-Pad1)*%
X185900000Y-63500000D03*
%TO.P,C5,2*%
%TO.N,/CHASSIS*%
X190900000Y-63500000D03*
%TD*%
%TO.P,R23,1*%
%TO.N,Go*%
X76070000Y-144330000D03*
%TO.P,R23,2*%
%TO.N,E-*%
X86230000Y-144330000D03*
%TD*%
%TO.P,R21,1*%
%TO.N,Net-(R21-Pad1)*%
X40070000Y-111000000D03*
%TO.P,R21,2*%
%TO.N,GND*%
X50230000Y-111000000D03*
%TD*%
D21*
%TO.P,IC3,1,OUT_A*%
%TO.N,Ao*%
X106260000Y-73350000D03*
%TO.P,IC3,2,-IN_A*%
%TO.N,A-*%
X104990000Y-73350000D03*
%TO.P,IC3,3,+_IN_A*%
%TO.N,A+*%
X103720000Y-73350000D03*
%TO.P,IC3,4,V+*%
%TO.N,+16V*%
X102450000Y-73350000D03*
%TO.P,IC3,5,+IN_B*%
%TO.N,GND*%
X101180000Y-73350000D03*
%TO.P,IC3,6,-_IN_B*%
%TO.N,B-*%
X99910000Y-73350000D03*
%TO.P,IC3,7,OUT_B*%
%TO.N,Bo*%
X98640000Y-73350000D03*
%TO.P,IC3,8,OUT_C*%
%TO.N,Co*%
X98640000Y-78774000D03*
%TO.P,IC3,9,-IN_C*%
%TO.N,C-*%
X99910000Y-78774000D03*
%TO.P,IC3,10,+_IN_C*%
%TO.N,GND*%
X101180000Y-78774000D03*
%TO.P,IC3,11,V-*%
%TO.N,-16V*%
X102450000Y-78774000D03*
%TO.P,IC3,12,+IN_D*%
%TO.N,D+*%
X103720000Y-78774000D03*
%TO.P,IC3,13,-_IN_D*%
%TO.N,D-*%
X104990000Y-78774000D03*
%TO.P,IC3,14,OUT_D*%
%TO.N,Do*%
X106260000Y-78774000D03*
%TD*%
%TO.P,IC8,1,OUT_A*%
%TO.N,Mo*%
X141280000Y-115250000D03*
%TO.P,IC8,2,-IN_A*%
%TO.N,M-*%
X142550000Y-115250000D03*
%TO.P,IC8,3,+_IN_A*%
%TO.N,GND*%
X143820000Y-115250000D03*
%TO.P,IC8,4,V+*%
%TO.N,+16V*%
X145090000Y-115250000D03*
%TO.P,IC8,5,+IN_B*%
%TO.N,GND*%
X146360000Y-115250000D03*
%TO.P,IC8,6,-_IN_B*%
%TO.N,N-*%
X147630000Y-115250000D03*
%TO.P,IC8,7,OUT_B*%
%TO.N,No*%
X148900000Y-115250000D03*
%TO.P,IC8,8,OUT_C*%
%TO.N,Po*%
X148900000Y-109826000D03*
%TO.P,IC8,9,-IN_C*%
%TO.N,P-*%
X147630000Y-109826000D03*
%TO.P,IC8,10,+_IN_C*%
%TO.N,GND*%
X146360000Y-109826000D03*
%TO.P,IC8,11,V-*%
%TO.N,-16V*%
X145090000Y-109826000D03*
%TO.P,IC8,12,+IN_D*%
%TO.N,GND*%
X143820000Y-109826000D03*
%TO.P,IC8,13,-_IN_D*%
%TO.N,O-*%
X142550000Y-109826000D03*
%TO.P,IC8,14,OUT_D*%
%TO.N,Oo*%
X141280000Y-109826000D03*
%TD*%
D11*
%TO.P,R18,1*%
%TO.N,E+*%
X90650000Y-154250000D03*
%TO.P,R18,2*%
%TO.N,Fo*%
X80490000Y-154250000D03*
%TD*%
%TO.P,R39,1*%
%TO.N,D-*%
X107450000Y-92562000D03*
%TO.P,R39,2*%
%TO.N,Do*%
X107450000Y-82402000D03*
%TD*%
%TO.P,C6,1*%
%TO.N,G-*%
X80900000Y-135330000D03*
%TO.P,C6,2*%
%TO.N,Go*%
X80900000Y-140330000D03*
%TD*%
%TO.P,R45,1*%
%TO.N,Ko*%
X114150000Y-120080000D03*
%TO.P,R45,2*%
%TO.N,Net-(R45-Pad2)*%
X114150000Y-109920000D03*
%TD*%
D18*
%TO.P,RV9,1,1*%
%TO.N,/T11*%
X40650000Y-87000000D03*
D19*
%TO.P,RV9,2,2*%
%TO.N,/T10*%
X40650000Y-89500000D03*
%TO.P,RV9,3,3*%
%TO.N,Net-(R34-Pad1)*%
X40650000Y-92000000D03*
%TO.P,RV9,4,4*%
%TO.N,/T9*%
X43150000Y-87000000D03*
%TO.P,RV9,5,5*%
%TO.N,/T8*%
X43150000Y-89500000D03*
%TO.P,RV9,6,6*%
%TO.N,Net-(R37-Pad1)*%
X43150000Y-92000000D03*
%TD*%
D11*
%TO.P,R2,1*%
%TO.N,GND*%
X157650000Y-81660000D03*
%TO.P,R2,2*%
%TO.N,Net-(IC1--IN)*%
X157650000Y-71500000D03*
%TD*%
%TO.P,C29,1*%
%TO.N,M-*%
X141150000Y-124500000D03*
%TO.P,C29,2*%
%TO.N,Mo*%
X141150000Y-119500000D03*
%TD*%
%TO.P,C3,1*%
%TO.N,F-*%
X103650000Y-150080000D03*
%TO.P,C3,2*%
%TO.N,Fo*%
X103650000Y-145080000D03*
%TD*%
%TO.P,C30,1*%
%TO.N,GND*%
X145900000Y-124500000D03*
%TO.P,C30,2*%
%TO.N,+16V*%
X145900000Y-119500000D03*
%TD*%
%TO.P,C37,1*%
%TO.N,GND*%
X142650000Y-57500000D03*
%TO.P,C37,2*%
%TO.N,-16V*%
X142650000Y-62500000D03*
%TD*%
%TO.P,C31,1*%
%TO.N,GND*%
X145150000Y-101500000D03*
%TO.P,C31,2*%
%TO.N,-16V*%
X145150000Y-106500000D03*
%TD*%
%TO.P,C7,1*%
%TO.N,D+*%
X110400000Y-78000000D03*
%TO.P,C7,2*%
%TO.N,Bo*%
X110400000Y-75500000D03*
%TD*%
%TO.P,C42,1*%
%TO.N,C-*%
X94900000Y-83500000D03*
%TO.P,C42,2*%
%TO.N,Co*%
X89900000Y-83500000D03*
%TD*%
D26*
%TO.N,-16V*%
X132275000Y-94125000D03*
X132150000Y-70500000D03*
%TO.N,+16V*%
X126400000Y-74500000D03*
X115788139Y-125354043D03*
%TO.N,-16V*%
X117825000Y-130750000D03*
%TO.N,+16V*%
X95650000Y-143000000D03*
D27*
%TO.N,Net-(R46-Pad1)*%
X123650000Y-100750000D03*
X68900000Y-99250000D03*
D26*
%TO.N,GND*%
X100400000Y-81750000D03*
X101400000Y-71250000D03*
D27*
%TO.N,K+*%
X114650000Y-107250000D03*
X117150000Y-124250000D03*
D26*
%TO.N,GND*%
X145150000Y-111925000D03*
D27*
%TO.N,L+*%
X86784669Y-129562870D03*
%TO.N,Ho*%
X80150000Y-142000000D03*
%TO.N,E+*%
X93880000Y-146750000D03*
D26*
%TO.N,GND*%
X93900000Y-137000000D03*
D27*
%TO.N,N-*%
X148150000Y-135500000D03*
%TO.N,/T14*%
X52549000Y-91500000D03*
%TO.N,Net-(R25-Pad1)*%
X44400000Y-109250000D03*
%TO.N,J-*%
X111070000Y-120080000D03*
%TO.N,M-*%
X63425000Y-120249000D03*
%TO.N,Net-(U1--)*%
X109650000Y-86250000D03*
%TO.N,Do*%
X106900000Y-86250000D03*
%TO.N,Net-(U1--)*%
X85900000Y-85250000D03*
%TO.N,/T12*%
X53400000Y-98750000D03*
%TO.N,/T13*%
X48150000Y-94500000D03*
%TO.N,/T9*%
X51650000Y-87750000D03*
%TO.N,/T11*%
X36650000Y-100000000D03*
%TO.N,/T10*%
X38150000Y-104250000D03*
%TO.N,/T8*%
X45150000Y-108000000D03*
X53400000Y-109750000D03*
%TO.N,J-*%
X114563000Y-135663000D03*
X114400000Y-144500000D03*
%TO.N,Lo*%
X150150000Y-133250000D03*
X119150000Y-133750000D03*
%TO.N,/B7*%
X97150000Y-105250000D03*
%TO.N,Lo*%
X82400000Y-119250000D03*
%TO.N,Net-(R47-Pad2)*%
X61400000Y-120750000D03*
%TO.N,E+*%
X65900000Y-117000000D03*
%TO.N,E-*%
X83400000Y-125750000D03*
%TO.N,Fo*%
X88400000Y-106750000D03*
X89525000Y-142025000D03*
%TO.N,E-*%
X91900000Y-146750000D03*
%TO.N,H-*%
X97900000Y-137500000D03*
X97650000Y-131250000D03*
%TO.N,E+*%
X92675000Y-127500000D03*
%TO.N,Eo*%
X89900000Y-143750000D03*
%TO.N,/B2*%
X84400000Y-121025000D03*
X124650000Y-123250000D03*
X127650000Y-134500000D03*
%TO.N,P-*%
X147650000Y-112000000D03*
%TO.N,Fo*%
X100150000Y-146750000D03*
X88650000Y-152250000D03*
D26*
%TO.N,GND*%
X96650000Y-147250000D03*
D27*
%TO.N,Ho*%
X75150000Y-138500000D03*
X100400000Y-138500000D03*
%TO.N,Net-(R45-Pad2)*%
X67400000Y-108373787D03*
%TO.N,/T13*%
X46150000Y-71250000D03*
X41650000Y-69500000D03*
%TO.N,Do*%
X86900000Y-86250000D03*
%TO.N,Net-(R30-Pad2)*%
X72408650Y-87758650D03*
X77150000Y-77750000D03*
%TO.N,A-*%
X104814195Y-92070531D03*
%TO.N,Ao*%
X106150000Y-76225000D03*
%TO.N,A-*%
X104990000Y-75573078D03*
%TO.N,Bo*%
X99163750Y-74986250D03*
%TO.N,Co*%
X98900000Y-80250000D03*
%TO.N,/-IN*%
X174150000Y-97000000D03*
D28*
%TO.N,GND*%
X192650000Y-122750000D03*
X192650000Y-91000000D03*
%TD*%
D29*
%TO.N,/T12*%
X43150000Y-77000000D02*
X46350000Y-77000000D01*
X46350000Y-77000000D02*
X48850000Y-74500000D01*
%TO.N,Net-(R9-Pad2)*%
X48730000Y-66420000D02*
X48730000Y-66000000D01*
X43150000Y-72000000D02*
X48730000Y-66420000D01*
%TO.N,/T13*%
X40650000Y-70500000D02*
X41650000Y-69500000D01*
X40650000Y-72000000D02*
X40650000Y-70500000D01*
%TO.N,Net-(C24-Pad2)*%
X38570000Y-74920000D02*
X38570000Y-66000000D01*
X40650000Y-77000000D02*
X38570000Y-74920000D01*
X40650000Y-77000000D02*
X42650000Y-79000000D01*
X42650000Y-79000000D02*
X47400000Y-79000000D01*
%TO.N,/T9*%
X51650000Y-87750000D02*
X50900000Y-87000000D01*
X50900000Y-87000000D02*
X43150000Y-87000000D01*
%TO.N,Net-(R37-Pad1)*%
X40070000Y-95080000D02*
X40070000Y-97250000D01*
X43150000Y-92000000D02*
X40070000Y-95080000D01*
%TO.N,Net-(R34-Pad1)*%
X37900000Y-99830000D02*
X37900000Y-94750000D01*
X37900000Y-94750000D02*
X40650000Y-92000000D01*
X40070000Y-102000000D02*
X37900000Y-99830000D01*
%TO.N,Net-(R42-Pad2)*%
X40900000Y-130250000D02*
X40900000Y-131500000D01*
X41400000Y-129750000D02*
X40900000Y-130250000D01*
X47650000Y-131580000D02*
X46480000Y-131580000D01*
X46480000Y-131580000D02*
X44650000Y-129750000D01*
X44650000Y-129750000D02*
X41400000Y-129750000D01*
%TO.N,/T1*%
X53650000Y-136500000D02*
X43400000Y-136500000D01*
%TO.N,Net-(R40-Pad2)*%
X49133445Y-134000000D02*
X43400000Y-134000000D01*
%TO.N,/T4*%
X54718881Y-118988881D02*
X43304246Y-118988881D01*
X56150000Y-120420000D02*
X54718881Y-118988881D01*
%TO.N,/T5*%
X54758881Y-116488881D02*
X56150000Y-117880000D01*
X43304246Y-116488881D02*
X54758881Y-116488881D01*
%TO.N,/T6*%
X55560000Y-114750000D02*
X56150000Y-115340000D01*
X42543127Y-114750000D02*
X55560000Y-114750000D01*
X40804246Y-116488881D02*
X42543127Y-114750000D01*
%TO.N,/T7*%
X39150000Y-117334635D02*
X40804246Y-118988881D01*
X39150000Y-113000000D02*
X39150000Y-117334635D01*
X39350000Y-112800000D02*
X39150000Y-113000000D01*
X56150000Y-112800000D02*
X39350000Y-112800000D01*
%TO.N,D+*%
X110400000Y-78000000D02*
X108650000Y-78000000D01*
X108650000Y-78000000D02*
X107650000Y-77000000D01*
%TO.N,Ao*%
X117900000Y-72000000D02*
X119730000Y-72000000D01*
X116550000Y-73350000D02*
X117900000Y-72000000D01*
X106260000Y-73350000D02*
X116550000Y-73350000D01*
%TO.N,A-*%
X105770500Y-72000000D02*
X109570000Y-72000000D01*
X104990000Y-72780500D02*
X105770500Y-72000000D01*
X104990000Y-73350000D02*
X104990000Y-72780500D01*
%TO.N,N-*%
X148150000Y-135500000D02*
X148150000Y-116500000D01*
%TO.N,/+IN+4*%
X198279000Y-111000000D02*
X198500000Y-110779000D01*
X188190000Y-111000000D02*
X198279000Y-111000000D01*
%TO.N,/T14*%
X52410000Y-79010000D02*
X52400000Y-79000000D01*
X52410000Y-83950000D02*
X52410000Y-79010000D01*
%TO.N,Net-(C24-Pad2)*%
X47410000Y-79010000D02*
X47400000Y-79000000D01*
X47410000Y-83950000D02*
X47410000Y-79010000D01*
D30*
%TO.N,-16V*%
X132150000Y-70500000D02*
X132150000Y-69750000D01*
X132150000Y-69750000D02*
X134150000Y-67750000D01*
D29*
%TO.N,Net-(U1--)*%
X110650000Y-86250000D02*
X111700000Y-85200000D01*
X111700000Y-85200000D02*
X111700000Y-82402000D01*
X109650000Y-86250000D02*
X110650000Y-86250000D01*
%TO.N,Do*%
X107450000Y-85700000D02*
X107450000Y-82402000D01*
X106900000Y-86250000D02*
X107450000Y-85700000D01*
%TO.N,+16V*%
X126765000Y-74135000D02*
X126400000Y-74500000D01*
X128939000Y-74135000D02*
X126765000Y-74135000D01*
D30*
X114795957Y-125354043D02*
X111650000Y-128500000D01*
X115788139Y-125354043D02*
X114795957Y-125354043D01*
X111650000Y-128500000D02*
X111650000Y-130250000D01*
D29*
%TO.N,K+*%
X119070000Y-129420000D02*
X121150000Y-129420000D01*
X117650000Y-128000000D02*
X119070000Y-129420000D01*
X117650000Y-124750000D02*
X117650000Y-128000000D01*
X117150000Y-124250000D02*
X117650000Y-124750000D01*
D30*
%TO.N,-16V*%
X121090000Y-130750000D02*
X121150000Y-130690000D01*
X117825000Y-130750000D02*
X121090000Y-130750000D01*
%TO.N,+16V*%
X95150000Y-143500000D02*
X95650000Y-143000000D01*
X95150000Y-144980000D02*
X95150000Y-143500000D01*
D29*
%TO.N,Fo*%
X103230000Y-141750000D02*
X103400000Y-141580000D01*
X98929232Y-141750000D02*
X103230000Y-141750000D01*
X98878232Y-141801000D02*
X98929232Y-141750000D01*
X89625000Y-142025000D02*
X89849000Y-141801000D01*
X89525000Y-142025000D02*
X89625000Y-142025000D01*
X89849000Y-141801000D02*
X98878232Y-141801000D01*
%TO.N,/B7*%
X96030000Y-104130000D02*
X96030000Y-102750000D01*
X97150000Y-105250000D02*
X96030000Y-104130000D01*
%TO.N,Fo*%
X90950000Y-104200000D02*
X90950000Y-102750000D01*
X88400000Y-106750000D02*
X90950000Y-104200000D01*
%TO.N,Net-(R46-Pad1)*%
X122150000Y-99250000D02*
X123650000Y-100750000D01*
X97400000Y-99250000D02*
X122150000Y-99250000D01*
X68900000Y-99250000D02*
X97400000Y-99250000D01*
%TO.N,Do*%
X83650000Y-86250000D02*
X86900000Y-86250000D01*
X74552679Y-88097321D02*
X81802679Y-88097321D01*
X81802679Y-88097321D02*
X83650000Y-86250000D01*
X63150000Y-99500000D02*
X74552679Y-88097321D01*
%TO.N,Net-(R30-Pad2)*%
X72408650Y-87758650D02*
X63167299Y-97000000D01*
X63167299Y-97000000D02*
X63150000Y-97000000D01*
%TO.N,Net-(U1--)*%
X82661927Y-85250000D02*
X85900000Y-85250000D01*
X70726079Y-86923921D02*
X80988006Y-86923921D01*
X63150000Y-94500000D02*
X70726079Y-86923921D01*
X80988006Y-86923921D02*
X82661927Y-85250000D01*
%TO.N,A+*%
X88273837Y-76033837D02*
X85990000Y-73750000D01*
X103116163Y-76033837D02*
X88273837Y-76033837D01*
X103720000Y-75430000D02*
X103116163Y-76033837D01*
X103720000Y-73350000D02*
X103720000Y-75430000D01*
%TO.N,A-*%
X88560000Y-77000000D02*
X80310000Y-85250000D01*
X103620768Y-77000000D02*
X88560000Y-77000000D01*
X104990000Y-75630768D02*
X103620768Y-77000000D01*
X104990000Y-75573078D02*
X104990000Y-75630768D01*
X104990000Y-75573078D02*
X104990000Y-73350000D01*
D30*
%TO.N,GND*%
X101180000Y-80970000D02*
X100400000Y-81750000D01*
X101180000Y-78774000D02*
X101180000Y-80970000D01*
D29*
%TO.N,C-*%
X99695507Y-78988493D02*
X99910000Y-78774000D01*
X99695507Y-80668673D02*
X99695507Y-78988493D01*
X99150000Y-81214180D02*
X99695507Y-80668673D01*
X99150000Y-83420000D02*
X99150000Y-81214180D01*
D30*
%TO.N,GND*%
X101180000Y-71470000D02*
X101400000Y-71250000D01*
X101180000Y-73350000D02*
X101180000Y-71470000D01*
D29*
%TO.N,Net-(C35-Pad1)*%
X174150000Y-86250000D02*
X176650000Y-88750000D01*
X167600000Y-86250000D02*
X174150000Y-86250000D01*
X166350000Y-85000000D02*
X167600000Y-86250000D01*
%TO.N,L+*%
X124900000Y-134597500D02*
X124900000Y-135000000D01*
X122262500Y-131960000D02*
X124900000Y-134597500D01*
X121150000Y-131960000D02*
X122262500Y-131960000D01*
%TO.N,K+*%
X114650000Y-107250000D02*
X113230000Y-107250000D01*
X113230000Y-107250000D02*
X108730000Y-102750000D01*
D30*
%TO.N,GND*%
X146360000Y-113135000D02*
X145150000Y-111925000D01*
X146360000Y-115250000D02*
X146360000Y-113135000D01*
X143820000Y-113255000D02*
X145150000Y-111925000D01*
X143820000Y-115250000D02*
X143820000Y-113255000D01*
X143820000Y-110595000D02*
X145150000Y-111925000D01*
X143820000Y-109826000D02*
X143820000Y-110595000D01*
X146360000Y-111290000D02*
X146360000Y-109826000D01*
X145150000Y-111925000D02*
X145725000Y-111925000D01*
X145725000Y-111925000D02*
X146360000Y-111290000D01*
D29*
%TO.N,P-*%
X148740000Y-100590000D02*
X147650000Y-99500000D01*
X148740000Y-100750000D02*
X148740000Y-100590000D01*
X147650000Y-99500000D02*
X147650000Y-95750000D01*
%TO.N,Oo*%
X137490000Y-106090000D02*
X137490000Y-95750000D01*
X139150000Y-107750000D02*
X137490000Y-106090000D01*
X139204000Y-107750000D02*
X139150000Y-107750000D01*
%TO.N,O-*%
X140730000Y-105330000D02*
X140650000Y-105250000D01*
X140650000Y-105250000D02*
X140650000Y-102000000D01*
X140730000Y-105500000D02*
X140730000Y-105330000D01*
X142550000Y-107320000D02*
X142550000Y-109826000D01*
X140730000Y-105500000D02*
X142550000Y-107320000D01*
%TO.N,Oo*%
X132820000Y-107750000D02*
X130570000Y-105500000D01*
X141280000Y-109826000D02*
X139204000Y-107750000D01*
X139204000Y-107750000D02*
X132820000Y-107750000D01*
%TO.N,E+*%
X92400000Y-127250000D02*
X78900000Y-127250000D01*
X92650000Y-127500000D02*
X92400000Y-127250000D01*
X92675000Y-127500000D02*
X92650000Y-127500000D01*
X78900000Y-127250000D02*
X78150000Y-126500000D01*
%TO.N,L+*%
X119190000Y-131960000D02*
X121150000Y-131960000D01*
X117900000Y-133250000D02*
X119190000Y-131960000D01*
X102212870Y-129562870D02*
X109400000Y-136750000D01*
X117150000Y-136750000D02*
X117900000Y-136000000D01*
X86784669Y-129562870D02*
X102212870Y-129562870D01*
X109400000Y-136750000D02*
X117150000Y-136750000D01*
X117900000Y-136000000D02*
X117900000Y-133250000D01*
%TO.N,E+*%
X75400000Y-126500000D02*
X78150000Y-126500000D01*
X65900000Y-117000000D02*
X75400000Y-126500000D01*
%TO.N,H-*%
X97150000Y-130750000D02*
X97650000Y-131250000D01*
X78150000Y-130750000D02*
X97150000Y-130750000D01*
%TO.N,Ho*%
X87650000Y-142000000D02*
X80150000Y-142000000D01*
X88400000Y-141250000D02*
X87650000Y-142000000D01*
X98650000Y-141250000D02*
X88400000Y-141250000D01*
X98960000Y-140940000D02*
X98650000Y-141250000D01*
X98960000Y-139556000D02*
X98960000Y-140940000D01*
%TO.N,E-*%
X91900000Y-146750000D02*
X92610000Y-146040000D01*
X92610000Y-146040000D02*
X92610000Y-144980000D01*
X91900000Y-148170000D02*
X90570000Y-149500000D01*
X91900000Y-146750000D02*
X91900000Y-148170000D01*
%TO.N,E+*%
X93880000Y-148230000D02*
X93880000Y-144980000D01*
%TO.N,Eo*%
X90110000Y-143750000D02*
X91340000Y-144980000D01*
X89900000Y-143750000D02*
X90110000Y-143750000D01*
D30*
%TO.N,GND*%
X93880000Y-137020000D02*
X93900000Y-137000000D01*
X93880000Y-139556000D02*
X93880000Y-137020000D01*
D29*
%TO.N,-16V*%
X95400000Y-139306000D02*
X95400000Y-133080000D01*
X95150000Y-139556000D02*
X95400000Y-139306000D01*
D30*
%TO.N,+16V*%
X176900000Y-126000000D02*
X169650000Y-126000000D01*
X178230000Y-127330000D02*
X176900000Y-126000000D01*
X182150000Y-127330000D02*
X178230000Y-127330000D01*
%TO.N,-16V*%
X180650000Y-133500000D02*
X173150000Y-133500000D01*
X181060000Y-133910000D02*
X180650000Y-133500000D01*
X187900000Y-133910000D02*
X181060000Y-133910000D01*
D29*
%TO.N,VCC*%
X198500000Y-118699000D02*
X183679000Y-118699000D01*
X183679000Y-118699000D02*
X182150000Y-117170000D01*
%TO.N,/T14*%
X52630000Y-91500000D02*
X52549000Y-91500000D01*
X56150000Y-95020000D02*
X52630000Y-91500000D01*
D30*
%TO.N,GND*%
X55670000Y-92480000D02*
X56150000Y-92480000D01*
D29*
%TO.N,Net-(R25-Pad1)*%
X41400000Y-106500000D02*
X40070000Y-106500000D01*
X44400000Y-109250000D02*
X44150000Y-109250000D01*
X44150000Y-109250000D02*
X41400000Y-106500000D01*
%TO.N,/T2*%
X52072265Y-121422265D02*
X51551180Y-121422265D01*
X56150000Y-125500000D02*
X52072265Y-121422265D01*
%TO.N,J-*%
X114563000Y-135663000D02*
X115726000Y-134500000D01*
%TO.N,J+*%
X109590000Y-134500000D02*
X105650000Y-130560000D01*
X109650000Y-134500000D02*
X109590000Y-134500000D01*
%TO.N,/T12*%
X54750000Y-100100000D02*
X53400000Y-98750000D01*
X56150000Y-100100000D02*
X54750000Y-100100000D01*
%TO.N,/T13*%
X53090000Y-94500000D02*
X56150000Y-97560000D01*
X48150000Y-94500000D02*
X53090000Y-94500000D01*
%TO.N,/T8*%
X53910000Y-110260000D02*
X53400000Y-109750000D01*
X56150000Y-110260000D02*
X53910000Y-110260000D01*
%TO.N,Net-(R40-Pad2)*%
X51551180Y-131582265D02*
X49133445Y-134000000D01*
%TO.N,/T1*%
X56150000Y-134000000D02*
X56150000Y-128040000D01*
X53650000Y-136500000D02*
X56150000Y-134000000D01*
%TO.N,Go*%
X91146000Y-139750000D02*
X91340000Y-139556000D01*
X88650000Y-139750000D02*
X91146000Y-139750000D01*
X88000000Y-140400000D02*
X88650000Y-139750000D01*
X85650000Y-140400000D02*
X88000000Y-140400000D01*
%TO.N,L-*%
X123829998Y-139250000D02*
X123029999Y-138450001D01*
X126070000Y-139250000D02*
X123829998Y-139250000D01*
%TO.N,/B2*%
X128150000Y-141500000D02*
X128150000Y-135000000D01*
X126400000Y-143250000D02*
X128150000Y-141500000D01*
%TO.N,-16V*%
X124460000Y-130690000D02*
X124650000Y-130500000D01*
X121150000Y-130690000D02*
X124460000Y-130690000D01*
%TO.N,+16V*%
X112090000Y-130690000D02*
X111650000Y-130250000D01*
X115726000Y-130690000D02*
X112090000Y-130690000D01*
%TO.N,J+*%
X111275000Y-134500000D02*
X109650000Y-134500000D01*
X113815000Y-131960000D02*
X111275000Y-134500000D01*
X115726000Y-131960000D02*
X113815000Y-131960000D01*
%TO.N,J-*%
X115726000Y-133230000D02*
X115726000Y-134500000D01*
X115820000Y-147330000D02*
X115820000Y-148500000D01*
X114400000Y-145910000D02*
X115820000Y-147330000D01*
X114400000Y-144500000D02*
X114400000Y-145910000D01*
%TO.N,Net-(C25-Pad1)*%
X125980000Y-152750000D02*
X125980000Y-148500000D01*
X121400000Y-143920000D02*
X125980000Y-148500000D01*
X121400000Y-143250000D02*
X121400000Y-143920000D01*
%TO.N,Lo*%
X151650000Y-131750000D02*
X150150000Y-133250000D01*
X151650000Y-130080000D02*
X151650000Y-131750000D01*
%TO.N,L-*%
X123029999Y-133879999D02*
X123029999Y-138450001D01*
X121607500Y-133250000D02*
X122400000Y-133250000D01*
X122400000Y-133250000D02*
X123029999Y-133879999D01*
X121150000Y-133230000D02*
X121587500Y-133230000D01*
X121587500Y-133230000D02*
X121607500Y-133250000D01*
X123029999Y-138450001D02*
X122230000Y-139250000D01*
%TO.N,K-*%
X133650000Y-130750000D02*
X135570000Y-130750000D01*
X131050000Y-128150000D02*
X133650000Y-130750000D01*
X121150000Y-128150000D02*
X131050000Y-128150000D01*
X135560000Y-130740000D02*
X135570000Y-130750000D01*
X135560000Y-125250000D02*
X135560000Y-130740000D01*
%TO.N,Mo*%
X137150000Y-120750000D02*
X141150000Y-116750000D01*
X141150000Y-119500000D02*
X141150000Y-116750000D01*
%TO.N,M-*%
X142550000Y-123100000D02*
X142550000Y-115250000D01*
X141150000Y-124500000D02*
X142550000Y-123100000D01*
%TO.N,Mo*%
X141150000Y-116750000D02*
X141150000Y-115380000D01*
X141150000Y-115380000D02*
X141280000Y-115250000D01*
%TO.N,+16V*%
X145090000Y-118690000D02*
X145090000Y-115250000D01*
X145900000Y-119500000D02*
X145090000Y-118690000D01*
%TO.N,Lo*%
X119900000Y-134500000D02*
X119150000Y-133750000D01*
X121150000Y-134500000D02*
X119900000Y-134500000D01*
X116400000Y-139250000D02*
X121150000Y-134500000D01*
X112070000Y-139250000D02*
X116400000Y-139250000D01*
%TO.N,J-*%
X127900000Y-102000000D02*
X130490000Y-102000000D01*
X121150000Y-110000000D02*
X121150000Y-108750000D01*
X111070000Y-120080000D02*
X121150000Y-110000000D01*
X109400000Y-120080000D02*
X111070000Y-120080000D01*
X121150000Y-108750000D02*
X127900000Y-102000000D01*
%TO.N,N-*%
X148150000Y-116500000D02*
X148650000Y-117000000D01*
%TO.N,E-*%
X78230000Y-118580000D02*
X78230000Y-115250000D01*
X83400000Y-123750000D02*
X78230000Y-118580000D01*
X83400000Y-125750000D02*
X83400000Y-123750000D01*
%TO.N,H-*%
X97690000Y-137710000D02*
X97900000Y-137500000D01*
X97690000Y-139556000D02*
X97690000Y-137710000D01*
%TO.N,H+*%
X97360000Y-136290000D02*
X100610000Y-136290000D01*
X96420000Y-137230000D02*
X97360000Y-136290000D01*
X96420000Y-139556000D02*
X96420000Y-137230000D01*
%TO.N,/B2*%
X128150000Y-135000000D02*
X127650000Y-134500000D01*
X129900000Y-135000000D02*
X128150000Y-135000000D01*
%TO.N,Ko*%
X120950000Y-126880000D02*
X114150000Y-120080000D01*
X121150000Y-126880000D02*
X120950000Y-126880000D01*
X123770000Y-126880000D02*
X125400000Y-125250000D01*
X121150000Y-126880000D02*
X123770000Y-126880000D01*
X128400000Y-122000000D02*
X128400000Y-120080000D01*
X125400000Y-125000000D02*
X128400000Y-122000000D01*
X125400000Y-125250000D02*
X125400000Y-125000000D01*
%TO.N,P-*%
X129070000Y-110590000D02*
X128400000Y-109920000D01*
X137150000Y-110590000D02*
X129070000Y-110590000D01*
%TO.N,-16V*%
X145090000Y-106560000D02*
X145150000Y-106500000D01*
X145090000Y-109826000D02*
X145090000Y-106560000D01*
X170650000Y-103620000D02*
X170650000Y-108250000D01*
%TO.N,+16V*%
X172230000Y-99500000D02*
X175650000Y-99500000D01*
X170650000Y-101080000D02*
X172230000Y-99500000D01*
%TO.N,Po*%
X156650000Y-103000000D02*
X162090000Y-103000000D01*
X156400000Y-103250000D02*
X156650000Y-103000000D01*
X162090000Y-103000000D02*
X162710000Y-103620000D01*
X156400000Y-103250000D02*
X158900000Y-100750000D01*
X155150000Y-104750000D02*
X155150000Y-104500000D01*
X155150000Y-104500000D02*
X156400000Y-103250000D01*
%TO.N,P-*%
X148740000Y-103340000D02*
X150150000Y-104750000D01*
X148740000Y-100750000D02*
X148740000Y-103340000D01*
X147630000Y-107270000D02*
X150150000Y-104750000D01*
X147630000Y-109826000D02*
X147630000Y-107270000D01*
%TO.N,Po*%
X150074000Y-109826000D02*
X155150000Y-104750000D01*
X148900000Y-109826000D02*
X150074000Y-109826000D01*
%TO.N,P-*%
X147650000Y-109846000D02*
X147630000Y-109826000D01*
X147650000Y-112000000D02*
X147650000Y-109846000D01*
%TO.N,No*%
X162480000Y-114420000D02*
X161150000Y-115750000D01*
X162480000Y-110250000D02*
X162480000Y-114420000D01*
X161150000Y-115750000D02*
X161820000Y-115750000D01*
X161820000Y-115750000D02*
X162150000Y-115420000D01*
X157900000Y-115750000D02*
X161150000Y-115750000D01*
X156400000Y-114250000D02*
X149900000Y-114250000D01*
X149900000Y-114250000D02*
X148900000Y-115250000D01*
X157900000Y-115750000D02*
X156400000Y-114250000D01*
%TO.N,N-*%
X152900000Y-116000000D02*
X152900000Y-115750000D01*
X148650000Y-117000000D02*
X151900000Y-117000000D01*
X151900000Y-117000000D02*
X152900000Y-116000000D01*
X147630000Y-115980000D02*
X148150000Y-116500000D01*
X147630000Y-115250000D02*
X147630000Y-115980000D01*
%TO.N,E+*%
X93880000Y-151020000D02*
X93880000Y-148230000D01*
X90650000Y-154250000D02*
X93880000Y-151020000D01*
%TO.N,Fo*%
X100150000Y-146750000D02*
X100150000Y-146170000D01*
X100150000Y-146170000D02*
X98960000Y-144980000D01*
X86650000Y-154250000D02*
X88650000Y-152250000D01*
X80490000Y-154250000D02*
X86650000Y-154250000D01*
D30*
%TO.N,GND*%
X96420000Y-147020000D02*
X96650000Y-147250000D01*
X96420000Y-144980000D02*
X96420000Y-147020000D01*
D29*
%TO.N,Ho*%
X67990000Y-133340000D02*
X67990000Y-130750000D01*
X73150000Y-138500000D02*
X67990000Y-133340000D01*
X75150000Y-138500000D02*
X73150000Y-138500000D01*
X99344000Y-139556000D02*
X100400000Y-138500000D01*
X98960000Y-139556000D02*
X99344000Y-139556000D01*
%TO.N,H+*%
X100610000Y-136290000D02*
X100150000Y-135830000D01*
X103400000Y-139080000D02*
X100610000Y-136290000D01*
X100150000Y-135830000D02*
X100150000Y-135160000D01*
%TO.N,Fo*%
X103400000Y-142730000D02*
X101150000Y-144980000D01*
X103400000Y-141580000D02*
X103400000Y-142730000D01*
X101150000Y-144980000D02*
X98960000Y-144980000D01*
X103480000Y-145080000D02*
X103380000Y-144980000D01*
X103380000Y-144980000D02*
X101150000Y-144980000D01*
X103650000Y-145080000D02*
X103480000Y-145080000D01*
X103650000Y-145080000D02*
X108650000Y-145080000D01*
%TO.N,F-*%
X103650000Y-150080000D02*
X108650000Y-150080000D01*
X97690000Y-146040000D02*
X97690000Y-144980000D01*
X102690000Y-151040000D02*
X97690000Y-146040000D01*
X102690000Y-151040000D02*
X103650000Y-150080000D01*
X101070000Y-155080000D02*
X101070000Y-152660000D01*
X101070000Y-152660000D02*
X102690000Y-151040000D01*
%TO.N,+16V*%
X95150000Y-149830000D02*
X95150000Y-144980000D01*
X95900000Y-150580000D02*
X95150000Y-149830000D01*
%TO.N,Eo*%
X86820000Y-149500000D02*
X91340000Y-144980000D01*
X80410000Y-149500000D02*
X86820000Y-149500000D01*
%TO.N,Do*%
X60400000Y-121251085D02*
X60400000Y-102250000D01*
X60400000Y-102250000D02*
X63150000Y-99500000D01*
X63151180Y-124002265D02*
X60400000Y-121251085D01*
%TO.N,G-*%
X90150000Y-134910000D02*
X92610000Y-137370000D01*
X92610000Y-137370000D02*
X92610000Y-139556000D01*
X86140000Y-134910000D02*
X85650000Y-135400000D01*
X90150000Y-134910000D02*
X86140000Y-134910000D01*
X85580000Y-135330000D02*
X85650000Y-135400000D01*
X80900000Y-135330000D02*
X85580000Y-135330000D01*
%TO.N,Go*%
X80070000Y-140330000D02*
X80900000Y-140330000D01*
X76070000Y-144330000D02*
X80070000Y-140330000D01*
X85580000Y-140330000D02*
X85650000Y-140400000D01*
X80900000Y-140330000D02*
X85580000Y-140330000D01*
%TO.N,Ho*%
X64898915Y-130750000D02*
X63151180Y-129002265D01*
X67990000Y-130750000D02*
X64898915Y-130750000D01*
%TO.N,Net-(R17-Pad2)*%
X63153445Y-126500000D02*
X63151180Y-126502265D01*
X67990000Y-126500000D02*
X63153445Y-126500000D01*
%TO.N,Do*%
X64903445Y-122250000D02*
X63151180Y-124002265D01*
X67990000Y-122250000D02*
X64903445Y-122250000D01*
%TO.N,Net-(R15-Pad2)*%
X64650000Y-115250000D02*
X68070000Y-115250000D01*
X63400000Y-114000000D02*
X64650000Y-115250000D01*
X63150000Y-114000000D02*
X63400000Y-114000000D01*
%TO.N,Net-(R14-Pad1)*%
X63650000Y-111250000D02*
X68070000Y-111250000D01*
X63400000Y-111500000D02*
X63650000Y-111250000D01*
X63150000Y-111500000D02*
X63400000Y-111500000D01*
%TO.N,/T13*%
X40650000Y-74500000D02*
X40650000Y-72000000D01*
%TO.N,Net-(R9-Pad2)*%
X43150000Y-74500000D02*
X43150000Y-72000000D01*
%TO.N,/T12*%
X48850000Y-74500000D02*
X52900000Y-74500000D01*
%TO.N,GND*%
X48850000Y-69500000D02*
X52900000Y-69500000D01*
%TO.N,Net-(R9-Pad2)*%
X48650000Y-66000000D02*
X48730000Y-66000000D01*
%TO.N,A+*%
X74150000Y-73750000D02*
X70150000Y-77750000D01*
X85990000Y-73750000D02*
X74150000Y-73750000D01*
%TO.N,Do*%
X106260000Y-81212000D02*
X107450000Y-82402000D01*
X106260000Y-78774000D02*
X106260000Y-81212000D01*
%TO.N,Net-(R30-Pad2)*%
X77400000Y-77750000D02*
X77650000Y-77750000D01*
X77400000Y-77750000D02*
X77150000Y-77750000D01*
X80310000Y-77750000D02*
X77400000Y-77750000D01*
%TO.N,A+*%
X68400000Y-79500000D02*
X70150000Y-77750000D01*
X63150000Y-79500000D02*
X68400000Y-79500000D01*
%TO.N,Net-(R27-Pad1)*%
X70150000Y-81500000D02*
X63650000Y-81500000D01*
X63650000Y-81500000D02*
X63150000Y-82000000D01*
%TO.N,Net-(R28-Pad2)*%
X69150000Y-84500000D02*
X63150000Y-84500000D01*
X69900000Y-85250000D02*
X69150000Y-84500000D01*
X70150000Y-85250000D02*
X69900000Y-85250000D01*
%TO.N,Co*%
X93150000Y-80250000D02*
X98900000Y-80250000D01*
X89900000Y-83500000D02*
X93150000Y-80250000D01*
%TO.N,C-*%
X99070000Y-83500000D02*
X99150000Y-83420000D01*
X94900000Y-83500000D02*
X99070000Y-83500000D01*
X94900000Y-88250000D02*
X94900000Y-83500000D01*
X94900000Y-93250000D02*
X94900000Y-88250000D01*
%TO.N,Co*%
X89900000Y-93250000D02*
X89900000Y-88250000D01*
X89900000Y-83500000D02*
X89900000Y-88250000D01*
%TO.N,C-*%
X94890000Y-88490000D02*
X94900000Y-88500000D01*
%TO.N,Co*%
X89890000Y-88490000D02*
X89900000Y-88500000D01*
X98640000Y-79760000D02*
X98640000Y-78774000D01*
%TO.N,D-*%
X104990000Y-90102000D02*
X107450000Y-92562000D01*
X104990000Y-78774000D02*
X104990000Y-90102000D01*
X111700000Y-92562000D02*
X107450000Y-92562000D01*
%TO.N,Ao*%
X106150000Y-73460000D02*
X106260000Y-73350000D01*
X106150000Y-76225000D02*
X106150000Y-73460000D01*
%TO.N,-16V*%
X102450000Y-82300000D02*
X103150000Y-83000000D01*
X102450000Y-78774000D02*
X102450000Y-82300000D01*
%TO.N,Co*%
X98640000Y-79990000D02*
X98640000Y-79760000D01*
X98900000Y-80250000D02*
X98640000Y-79990000D01*
%TO.N,Bo*%
X99163750Y-74986250D02*
X98640000Y-74462500D01*
X98640000Y-74462500D02*
X98640000Y-73350000D01*
%TO.N,+16V*%
X105900000Y-68750000D02*
X105900000Y-68250000D01*
X102450000Y-72200000D02*
X105900000Y-68750000D01*
X102450000Y-73350000D02*
X102450000Y-72200000D01*
%TO.N,B-*%
X99910000Y-70990000D02*
X99910000Y-71320000D01*
X102150000Y-69080000D02*
X101820000Y-69080000D01*
X101820000Y-69080000D02*
X99910000Y-70990000D01*
X99910000Y-71010000D02*
X99910000Y-71320000D01*
X98150000Y-69250000D02*
X99910000Y-71010000D01*
X98150000Y-69000000D02*
X98150000Y-69250000D01*
X99910000Y-71320000D02*
X99910000Y-73350000D01*
X98150000Y-64000000D02*
X98150000Y-69000000D01*
X98150000Y-59000000D02*
X98150000Y-64000000D01*
%TO.N,Bo*%
X93150000Y-64000000D02*
X93150000Y-59000000D01*
X93150000Y-64000000D02*
X93150000Y-69000000D01*
X96150000Y-73750000D02*
X93150000Y-70750000D01*
X93150000Y-70750000D02*
X93150000Y-69000000D01*
X96150000Y-73750000D02*
X98240000Y-73750000D01*
X98240000Y-73750000D02*
X98640000Y-73350000D01*
%TO.N,D+*%
X103720000Y-77680000D02*
X103720000Y-78774000D01*
X104400000Y-77000000D02*
X103720000Y-77680000D01*
X107650000Y-77000000D02*
X104400000Y-77000000D01*
%TO.N,Net-(U1--)*%
X116602000Y-77500000D02*
X111700000Y-82402000D01*
X120400000Y-77500000D02*
X116602000Y-77500000D01*
X125035000Y-72865000D02*
X120400000Y-77500000D01*
X128939000Y-72865000D02*
X125035000Y-72865000D01*
%TO.N,-16V*%
X134361000Y-67961000D02*
X134150000Y-67750000D01*
X134361000Y-71595000D02*
X134361000Y-67961000D01*
X136495000Y-71595000D02*
X142590000Y-65500000D01*
X134361000Y-71595000D02*
X136495000Y-71595000D01*
%TO.N,+16V*%
X130053000Y-74135000D02*
X128939000Y-74135000D01*
X131650000Y-78000000D02*
X131650000Y-75732000D01*
X131650000Y-75732000D02*
X130053000Y-74135000D01*
%TO.N,Net-(U1--)*%
X131015000Y-72865000D02*
X128939000Y-72865000D01*
X132285000Y-74135000D02*
X131015000Y-72865000D01*
X134361000Y-74135000D02*
X132285000Y-74135000D01*
%TO.N,Net-(IC1-OUTPUT)*%
X137765000Y-72865000D02*
X134361000Y-72865000D01*
X140120000Y-75220000D02*
X137765000Y-72865000D01*
X142590000Y-75220000D02*
X140120000Y-75220000D01*
%TO.N,+16V*%
X146270000Y-77370000D02*
X145520000Y-77370000D01*
X147900000Y-79000000D02*
X146270000Y-77370000D01*
X145520000Y-77370000D02*
X143890000Y-79000000D01*
X147670000Y-75220000D02*
X145770000Y-77120000D01*
X143890000Y-79000000D02*
X143150000Y-79000000D01*
X145770000Y-77120000D02*
X145520000Y-77370000D01*
%TO.N,Net-(IC1-OUTPUT)*%
X145130000Y-75220000D02*
X142590000Y-75220000D01*
%TO.N,-16V*%
X142590000Y-65500000D02*
X142590000Y-65310000D01*
X143900000Y-63750000D02*
X142650000Y-62500000D01*
X144150000Y-63750000D02*
X143900000Y-63750000D01*
X144150000Y-63750000D02*
X145400000Y-62500000D01*
X145400000Y-62500000D02*
X147900000Y-62500000D01*
X142590000Y-65310000D02*
X144150000Y-63750000D01*
X142590000Y-67280000D02*
X142590000Y-65500000D01*
%TO.N,Net-(IC1-+IN)*%
X146650000Y-65250000D02*
X145130000Y-66770000D01*
X145130000Y-66770000D02*
X145130000Y-67280000D01*
X154070000Y-65250000D02*
X146650000Y-65250000D01*
X157650000Y-68830000D02*
X154070000Y-65250000D01*
%TO.N,Net-(IC1--IN)*%
X151890000Y-71500000D02*
X147670000Y-67280000D01*
X157650000Y-71500000D02*
X151890000Y-71500000D01*
X158150000Y-71000000D02*
X157650000Y-71500000D01*
X165650000Y-71000000D02*
X158150000Y-71000000D01*
%TO.N,Net-(IC1-+IN)*%
X157820000Y-68830000D02*
X157650000Y-68830000D01*
X166150000Y-60500000D02*
X157820000Y-68830000D01*
%TO.N,Net-(C1-Pad1)*%
X169150000Y-70670000D02*
X169150000Y-71000000D01*
X174900000Y-64920000D02*
X169150000Y-70670000D01*
%TO.N,Net-(IC6-+SENSE)*%
X170650000Y-98540000D02*
X170650000Y-96000000D01*
%TO.N,Net-(IC6--SENSE)*%
X162710000Y-98540000D02*
X162710000Y-96000000D01*
X166400000Y-87550000D02*
X166350000Y-87500000D01*
X166400000Y-92310000D02*
X166400000Y-87550000D01*
X162710000Y-96000000D02*
X166400000Y-92310000D01*
%TO.N,Net-(IC6-+SENSE)*%
X169650000Y-95000000D02*
X169650000Y-87500000D01*
X170650000Y-96000000D02*
X169650000Y-95000000D01*
%TO.N,/+IN+4*%
X188411000Y-110779000D02*
X188190000Y-111000000D01*
%TO.N,/-IN+4*%
X198141000Y-102500000D02*
X198500000Y-102859000D01*
X188190000Y-102500000D02*
X198141000Y-102500000D01*
%TO.N,/-IN*%
X183110000Y-100210000D02*
X183110000Y-102500000D01*
X180400000Y-97500000D02*
X183110000Y-100210000D01*
X174150000Y-97000000D02*
X174650000Y-97500000D01*
X174650000Y-97500000D02*
X180400000Y-97500000D01*
%TO.N,/+IN*%
X172150000Y-81000000D02*
X179820000Y-73330000D01*
%TO.N,Net-(C36-Pad2)*%
X176900000Y-85000000D02*
X169650000Y-85000000D01*
X177900000Y-84000000D02*
X176900000Y-85000000D01*
X183110000Y-81750000D02*
X180860000Y-84000000D01*
X180860000Y-84000000D02*
X177900000Y-84000000D01*
%TO.N,Net-(C35-Pad1)*%
X181180000Y-88750000D02*
X176650000Y-88750000D01*
X183110000Y-90680000D02*
X181180000Y-88750000D01*
%TO.N,/+IN*%
X170650000Y-82500000D02*
X172150000Y-81000000D01*
X169650000Y-82500000D02*
X170650000Y-82500000D01*
X179820000Y-73330000D02*
X179900000Y-73330000D01*
%TO.N,/-IN*%
X174570000Y-75080000D02*
X167150000Y-82500000D01*
X167150000Y-82500000D02*
X166350000Y-82500000D01*
X174900000Y-75080000D02*
X174570000Y-75080000D01*
%TO.N,Net-(C10-Pad1)*%
X170900000Y-61750000D02*
X169650000Y-60500000D01*
X178060000Y-61750000D02*
X170900000Y-61750000D01*
X179480000Y-63170000D02*
X178060000Y-61750000D01*
X179900000Y-63170000D02*
X179480000Y-63170000D01*
D31*
%TO.N,GND*%
X198500000Y-122729000D02*
X192671000Y-122729000D01*
D30*
X192671000Y-90979000D02*
X192650000Y-91000000D01*
D31*
X198500000Y-90979000D02*
X192671000Y-90979000D01*
D29*
%TO.N,/-OUT*%
X191851000Y-87019000D02*
X188190000Y-90680000D01*
X198500000Y-87019000D02*
X191851000Y-87019000D01*
%TO.N,/+OUT+4*%
X198500000Y-79099000D02*
X190841000Y-79099000D01*
X190841000Y-79099000D02*
X188190000Y-81750000D01*
%TO.N,Net-(C10-Pad1)*%
X180230000Y-63500000D02*
X179900000Y-63170000D01*
X185900000Y-63500000D02*
X180230000Y-63500000D01*
%TO.N,/CHASSIS*%
X186650000Y-58000000D02*
X181150000Y-58000000D01*
X190900000Y-62250000D02*
X186650000Y-58000000D01*
X190900000Y-63500000D02*
X190900000Y-62250000D01*
X190900000Y-72250000D02*
X190900000Y-63500000D01*
X193789000Y-75139000D02*
X190900000Y-72250000D01*
X198500000Y-75139000D02*
X193789000Y-75139000D01*
D30*
%TO.N,VEE*%
X190769000Y-126619000D02*
X187900000Y-123750000D01*
X198500000Y-126619000D02*
X190769000Y-126619000D01*
D29*
%TO.N,Net-(R42-Pad2)*%
X40900000Y-134000000D02*
X40900000Y-131500000D01*
%TO.N,Net-(R40-Pad2)*%
X43400000Y-131500000D02*
X43400000Y-134000000D01*
%TD*%
M02*
